<svg width="274" height="195" viewBox="0 0 274 195" fill="none" xmlns="http://www.w3.org/2000/svg">
<path d="M46.0605 124.27C37.7999 132.43 36.399 145.055 38.1501 156.115C38.1984 156.365 38.5849 156.298 38.5849 156.06C38.5849 153.544 38.5064 151.051 38.5124 148.565C38.5607 148.449 38.597 148.34 38.6453 148.23C40.801 146.646 42.7998 144.866 44.0075 142.429C45.3903 139.687 45.9337 136.604 46.9844 133.74C47.0871 133.466 46.7972 133.545 46.604 133.691C41.58 137.426 39.9617 141.454 38.5366 146.829C38.565 144.016 38.8582 141.213 39.4122 138.456C40.4991 133.356 42.6428 128.292 46.2779 124.508C46.3092 124.479 46.3276 124.439 46.3293 124.396C46.331 124.353 46.3158 124.311 46.287 124.28C46.2582 124.248 46.2181 124.229 46.1756 124.228C46.1332 124.226 46.0918 124.241 46.0605 124.27Z" fill="#C8C8C7"/>
<path d="M47.6302 125.222C49.0492 125.27 49.9429 127.561 51.048 128.232C51.1643 128.327 51.2993 128.397 51.444 128.436C51.5887 128.475 51.7401 128.483 51.8881 128.46C52.0362 128.436 52.1777 128.382 52.3034 128.299C52.4291 128.217 52.5363 128.109 52.618 127.982C53.717 126.434 52.2073 124.527 50.8064 123.461C51.8209 123.881 52.6602 124.618 53.7532 124.832C53.8929 124.876 54.0404 124.891 54.1859 124.874C54.3315 124.856 54.4717 124.808 54.5974 124.732C54.7231 124.656 54.8312 124.554 54.9147 124.432C54.9982 124.311 55.0551 124.173 55.0817 124.027C55.5587 121.919 52.944 120.981 51.1446 120.938C52.0141 120.328 54.514 118.665 53.1856 117.848C51.8571 117.032 48.9103 119.402 47.9563 120.182C46.5493 121.334 44.8766 123.052 44.8102 124.85C44.7015 126.952 46.5191 125.66 47.6302 125.222Z" fill="#DBDBDB"/>
<path d="M47.2018 125.575C49.0133 124.74 52.5096 125.94 52.8055 125.245C53.4094 123.832 50.6196 122.863 49.11 122.674C50.4988 122.296 53.1557 121.693 53.0772 120.346C52.9746 118.695 49.0013 120.115 46.9844 121.669C44.4543 123.631 44.4664 125.526 44.8891 125.904C45.4627 126.422 46.8999 125.709 47.2018 125.575Z" fill="white"/>
<path d="M27.2446 123.46C35.8072 131.297 37.6731 143.861 36.3446 154.982C36.3446 155.232 35.9219 155.183 35.9159 154.945C35.8193 152.429 35.8012 149.931 35.6985 147.45L35.5596 147.115C33.3495 145.622 31.2964 143.91 29.9801 141.509C28.4946 138.828 27.8364 135.763 26.677 132.942C26.5683 132.674 26.8582 132.741 27.0514 132.875C32.2143 136.421 33.9715 140.382 35.614 145.702C35.4714 142.891 35.0671 140.1 34.4063 137.366C33.1261 132.308 30.7832 127.336 27.0152 123.692C26.8944 123.54 27.0997 123.32 27.2446 123.46Z" fill="#C8C8C7"/>
<path d="M25.7291 124.472C24.31 124.575 23.5069 126.909 22.426 127.61C22.3138 127.71 22.1819 127.785 22.0388 127.83C21.8958 127.876 21.7449 127.89 21.596 127.872C21.4472 127.854 21.3038 127.805 21.1752 127.727C21.0466 127.649 20.9358 127.545 20.85 127.421C19.6966 125.916 21.1277 123.954 22.5045 122.832C21.5082 123.295 20.693 124.051 19.6121 124.313C19.4728 124.364 19.3241 124.384 19.1764 124.372C19.0286 124.36 18.8853 124.315 18.7562 124.242C18.627 124.168 18.5153 124.067 18.4285 123.946C18.3417 123.825 18.282 123.686 18.2534 123.539C17.6918 121.449 20.2763 120.413 22.0697 120.297C21.176 119.725 18.6157 118.159 19.914 117.293C21.2123 116.428 24.2436 118.683 25.2279 119.426C26.6771 120.523 28.4162 122.174 28.543 123.972C28.706 126.092 26.8401 124.868 25.7291 124.472Z" fill="#DBDBDB"/>
<path d="M26.1518 124.806C24.3101 124.044 20.8621 125.379 20.5421 124.696C19.8899 123.307 22.6374 122.259 24.1652 121.985C22.7643 121.662 20.0892 121.156 20.1194 119.81C20.1556 118.158 24.1833 119.42 26.2545 120.9C28.8571 122.765 28.9114 124.654 28.5069 125.05C27.9272 125.592 26.4598 124.934 26.1518 124.806Z" fill="white"/>
<path d="M36.0002 144.16C36.5809 148.352 37.4711 152.495 38.6631 156.554C38.6805 156.634 38.728 156.703 38.7956 156.747C38.8631 156.792 38.9452 156.808 39.0243 156.792C39.1033 156.776 39.173 156.729 39.2184 156.662C39.2638 156.595 39.2812 156.512 39.267 156.432C38.7054 152.618 37.6789 148.864 37.1173 145.05C36.5002 141.185 36.2796 137.266 36.4591 133.356C36.8154 126.921 38.5484 120.072 42.7089 115.039C42.8055 114.917 42.6063 114.753 42.5157 114.862C34.1826 124.667 35.511 136.683 35.5171 137.762C34.3094 133.704 33.1017 129.048 28.6574 124.917C28.4641 124.74 28.3132 124.825 28.3494 125.13C29.1404 132.68 31.2116 136.586 35.5533 140.601C35.662 141.82 35.813 142.99 36.0002 144.16Z" fill="#C8C8C7"/>
<path d="M42.7994 116.166C44.297 115.496 46.3682 117.421 47.8476 117.549C48.0159 117.593 48.1916 117.6 48.3627 117.569C48.5338 117.538 48.6963 117.47 48.839 117.37C48.9818 117.27 49.1014 117.14 49.1898 116.989C49.2782 116.838 49.3332 116.67 49.3512 116.495C49.7195 114.332 47.2075 113.119 45.2027 112.736C46.4648 112.656 47.7027 112.991 48.9406 112.656C49.1069 112.63 49.2659 112.568 49.4072 112.475C49.5486 112.383 49.6692 112.262 49.7613 112.119C49.8534 111.977 49.9151 111.817 49.9422 111.649C49.9693 111.481 49.9613 111.31 49.9188 111.145C49.3693 108.708 46.181 109.073 44.297 109.926C44.9008 108.848 46.658 105.856 44.9008 105.661C43.1436 105.466 41.2415 109.445 40.6437 110.743C39.756 112.65 38.8744 115.289 39.7077 117.184C40.6256 119.444 41.8634 117.178 42.7994 116.166Z" fill="#DBDBDB"/>
<path d="M42.5279 116.739C44.0013 114.953 48.2222 114.423 48.1799 113.552C48.1014 111.785 44.7259 112.193 43.0713 112.766C44.3153 111.669 46.7729 109.689 46.0181 108.33C45.0882 106.672 41.6704 110.158 40.3601 112.802C38.7116 116.123 39.6717 118.079 40.2936 118.256C41.1511 118.506 42.2863 117.037 42.5279 116.739Z" fill="white"/>
<path d="M30.5172 146.427L26.8458 174.761H49.1882C48.7293 172.251 44.5688 146.396 44.5688 146.396L30.5172 146.427Z" fill="#DBDBDB"/>
<path d="M248.591 63.5977H264.581V56.779H248.591V63.5977Z" fill="white"/>
<path d="M257.51 54.9993H273.5V48.1806H257.51V54.9993Z" fill="white"/>
<path d="M239.666 54.9993H255.656V48.1806H239.666V54.9993Z" fill="white"/>
<path d="M9.41878 151.539H25.4087V144.721H9.41878V151.539Z" fill="white"/>
<path d="M0.500077 142.941H16.49V136.122H0.500077V142.941Z" fill="white"/>
<path d="M257.51 151.533H273.5V144.714H257.51V151.533Z" fill="white"/>
<path d="M69.9185 0H53.9286V6.81861H69.9185V0Z" fill="white"/>
<path d="M60.9932 8.59766H45.0033V15.4163H60.9932V8.59766Z" fill="white"/>
<path d="M21.0309 174.737L50.0217 174.591L79.0124 174.536L137 174.433L194.982 174.536L223.978 174.591L252.969 174.737L223.978 174.89L194.982 174.938L137 175.042L79.0124 174.938L50.0217 174.884L21.0309 174.737Z" fill="#24221E"/>
<path d="M90.7452 88.1237C90.5909 87.9447 90.4256 87.7757 90.25 87.6179C90.0921 87.4423 89.9248 87.2755 89.7488 87.1183C89.593 86.9407 89.4277 86.7719 89.2537 86.6125C89.0973 86.4354 88.9299 86.2685 88.7525 86.1128C88.5955 85.9361 88.4264 85.7655 88.2573 85.6071C88.1046 85.4286 87.9391 85.2615 87.7622 85.1074C87.6043 84.9298 87.437 84.761 87.261 84.6017C87.1082 84.4231 86.9427 84.2561 86.7658 84.102C86.6079 83.9264 86.4406 83.7596 86.2646 83.6023C85.7535 83.0337 85.1563 82.5504 84.4954 82.1703V31.8137C84.4954 31.5456 84.3685 31.4116 84.3685 31.1435C84.4013 30.87 84.3551 30.5929 84.2357 30.3452C84.2357 30.2112 84.1089 29.943 84.1089 29.809C84.0362 29.535 83.9455 29.2663 83.8372 29.0046C83.6975 28.8575 83.6068 28.67 83.5775 28.4684C83.4255 28.2277 83.2472 28.0049 83.0461 27.8042C82.9072 27.6702 82.7804 27.4081 82.6476 27.268L82.1162 26.7318C82.1162 26.6526 82.0135 26.5672 81.8988 26.5185L81.6392 26.2504H81.609C81.609 26.1651 81.5123 26.0859 81.3976 26.031L81.1319 25.769C81.1319 25.6898 81.0293 25.6045 80.9145 25.5496L80.6549 25.2876C80.6549 25.2023 80.5522 25.1231 80.4375 25.0682L80.1778 24.8001C80.1778 24.7209 80.0752 24.6356 79.9604 24.5808L79.6948 24.3188V24.2883C79.6948 24.2091 79.5921 24.1299 79.4774 24.075L79.2177 23.8069H79.1875C79.1875 23.7277 79.0909 23.6424 78.9762 23.5875L78.7105 23.3255V23.295C78.7105 23.2158 78.6078 23.1366 78.4931 23.0818L78.2334 22.8137H78.2033C78.2033 22.7283 78.1066 22.6491 77.9919 22.5943L77.7262 22.3323C77.7262 22.2531 77.6236 22.1677 77.5088 22.119L77.219 21.8265C77.219 21.6925 76.9593 21.5584 76.8204 21.5584C76.8213 21.5411 76.8186 21.5238 76.8126 21.5076C76.8066 21.4913 76.7974 21.4765 76.7855 21.464C76.7736 21.4514 76.7594 21.4414 76.7436 21.4346C76.7278 21.4278 76.7108 21.4243 76.6936 21.4243C76.4279 21.2964 76.2891 21.1562 76.0294 21.0222C75.801 20.855 75.5813 20.676 75.3712 20.486C75.2384 20.486 74.9727 20.358 74.8398 20.358C74.5741 20.2239 74.1756 20.2239 74.0427 20.0838C73.8139 20.1026 73.5844 20.0584 73.3785 19.9558H71.1322C70.9745 20.058 70.7872 20.1031 70.6008 20.0838C70.2023 20.2239 69.9426 20.2239 69.8037 20.358C69.5441 20.358 69.4112 20.4859 69.2723 20.7602C68.9888 20.7668 68.7136 20.858 68.4813 21.0222C68.3545 21.1562 68.0827 21.2964 67.9499 21.4243C67.7735 21.6196 67.5449 21.7593 67.2917 21.8265C67.1927 22.0285 67.0576 22.2103 66.8932 22.3627C66.7603 22.4968 66.7603 22.6248 66.6335 22.6248L17.4379 83.9314C16.2746 85.341 15.694 87.1485 15.8165 88.9788C15.9391 90.809 16.7555 92.5213 18.0961 93.7602C18.2514 93.9442 18.421 94.1154 18.6034 94.272C18.755 94.4555 18.9228 94.6248 19.1046 94.7778C19.2598 94.9618 19.4294 95.133 19.6118 95.2896C19.7649 95.4736 19.9325 95.6448 20.113 95.8015C20.2683 95.9836 20.4379 96.1527 20.6202 96.3072C20.7733 96.4912 20.941 96.6624 21.1214 96.8191C21.2767 97.0012 21.4463 97.1703 21.6287 97.3249C21.7818 97.5088 21.9494 97.68 22.1299 97.8367C22.2851 98.0188 22.4548 98.188 22.6371 98.3425C22.9493 98.7006 23.2974 99.0253 23.6757 99.3113C24.9193 100.402 26.5276 100.975 28.1744 100.914H64.8401V105.978C64.8292 107.008 65.0345 108.03 65.4425 108.975C65.8504 109.92 66.4518 110.768 67.2072 111.462C67.3642 111.632 67.5272 111.797 67.6902 111.949C67.8441 112.123 68.0074 112.288 68.1794 112.443C68.3364 112.613 68.4994 112.778 68.6685 112.93C68.8223 113.104 68.9856 113.269 69.1576 113.424C69.3146 113.594 69.4776 113.759 69.6467 113.917C69.799 114.092 69.9624 114.257 70.1358 114.411C70.2868 114.582 70.4498 114.746 70.6189 114.905C70.7728 115.078 70.9361 115.243 71.108 115.398C71.259 115.563 71.422 115.727 71.5911 115.886C72.5885 116.974 73.8875 117.734 75.319 118.066C76.7504 118.399 78.2479 118.288 79.6164 117.75C80.9848 117.211 82.1609 116.269 82.9913 115.047C83.8217 113.824 84.2679 112.377 84.2719 110.895V100.89H85.6004C86.5671 100.906 87.5274 100.728 88.4253 100.366C89.3231 100.004 90.1407 99.465 90.8302 98.7811C91.5198 98.0971 92.0676 97.2816 92.4417 96.3819C92.8159 95.4823 93.0089 94.5165 93.0096 93.5408C93.0242 92.5289 92.8305 91.5249 92.4407 90.5925C92.0509 89.66 91.4736 88.8194 90.7452 88.1237ZM64.828 59.4843V81.0796H47.5821L64.828 59.4843Z" fill="#871E35"/>
<path opacity="0.1" d="M90.7452 88.1237C90.5909 87.9447 90.4256 87.7757 90.25 87.6179C90.0921 87.4423 89.9248 87.2755 89.7488 87.1183C89.593 86.9407 89.4277 86.7719 89.2537 86.6125C89.0973 86.4354 88.9299 86.2685 88.7525 86.1128C88.5955 85.9361 88.4264 85.7655 88.2573 85.6071C88.1046 85.4286 87.9391 85.2615 87.7622 85.1074C87.6043 84.9298 87.437 84.761 87.261 84.6017C87.1082 84.4231 86.9427 84.2561 86.7658 84.102C86.6079 83.9264 86.4406 83.7596 86.2646 83.6023C85.7535 83.0337 85.1563 82.5504 84.4954 82.1703V31.8137C84.4954 31.5456 84.3685 31.4116 84.3685 31.1435C84.4013 30.87 84.3551 30.5929 84.2357 30.3452C84.2357 30.2112 84.1089 29.943 84.1089 29.809C84.0362 29.535 83.9455 29.2663 83.8372 29.0046C83.6975 28.8575 83.6068 28.67 83.5775 28.4684C83.4255 28.2277 83.2472 28.0049 83.0461 27.8042C82.9072 27.6702 82.7804 27.4081 82.6476 27.268L82.1162 26.7318C82.1162 26.6526 82.0135 26.5672 81.8988 26.5185L81.6392 26.2504H81.609C81.609 26.1651 81.5123 26.0859 81.3976 26.031L81.1319 25.769C81.1319 25.6898 81.0293 25.6045 80.9145 25.5496L80.6549 25.2876C80.6549 25.2023 80.5522 25.1231 80.4375 25.0682L80.1778 24.8001C80.1778 24.7209 80.0752 24.6356 79.9604 24.5808L79.6948 24.3188V24.2883C79.6948 24.2091 79.5921 24.1299 79.4774 24.075L79.2177 23.8069H79.1875C79.1875 23.7277 79.0909 23.6424 78.9762 23.5875L78.7105 23.3255V23.295C78.7105 23.2158 78.6078 23.1366 78.4931 23.0818L78.2334 22.8137H78.2033C78.2033 22.7283 78.1066 22.6491 77.9919 22.5943L77.7262 22.3323C77.7262 22.2531 77.6236 22.1677 77.5088 22.119L77.219 21.8265C77.219 21.6925 76.9593 21.5584 76.8204 21.5584C76.8213 21.5411 76.8186 21.5238 76.8126 21.5076C76.8066 21.4913 76.7974 21.4765 76.7855 21.464C76.7736 21.4514 76.7594 21.4414 76.7436 21.4346C76.7278 21.4278 76.7108 21.4243 76.6936 21.4243C76.4279 21.2964 76.2891 21.1562 76.0294 21.0222C75.801 20.855 75.5813 20.676 75.3712 20.486C75.2384 20.486 74.9727 20.358 74.8398 20.358C74.5741 20.2239 74.1756 20.2239 74.0427 20.0838C73.8139 20.1026 73.5844 20.0584 73.3785 19.9558H71.1322C70.9745 20.058 70.7872 20.1031 70.6008 20.0838C70.2023 20.2239 69.9426 20.2239 69.8037 20.358C69.5441 20.358 69.4112 20.4859 69.2723 20.7602C68.9888 20.7668 68.7136 20.858 68.4813 21.0222C68.3545 21.1562 68.0827 21.2964 67.9499 21.4243C67.7735 21.6196 67.5449 21.7593 67.2917 21.8265C67.1927 22.0285 67.0576 22.2103 66.8932 22.3627C66.7603 22.4968 66.7603 22.6248 66.6335 22.6248L17.4379 83.9314C16.2746 85.341 15.694 87.1485 15.8165 88.9788C15.9391 90.809 16.7555 92.5213 18.0961 93.7602C18.2514 93.9442 18.421 94.1154 18.6034 94.272C18.755 94.4555 18.9228 94.6248 19.1046 94.7778C19.2598 94.9618 19.4294 95.133 19.6118 95.2896C19.7649 95.4736 19.9325 95.6448 20.113 95.8015C20.2683 95.9836 20.4379 96.1527 20.6202 96.3072C20.7733 96.4912 20.941 96.6624 21.1214 96.8191C21.2767 97.0012 21.4463 97.1703 21.6287 97.3249C21.7818 97.5088 21.9494 97.68 22.1299 97.8367C22.2851 98.0188 22.4548 98.188 22.6371 98.3425C22.9493 98.7006 23.2974 99.0253 23.6757 99.3113C24.9193 100.402 26.5276 100.975 28.1744 100.914H64.8401V105.978C64.8292 107.008 65.0345 108.03 65.4425 108.975C65.8504 109.92 66.4518 110.768 67.2072 111.462C67.3642 111.632 67.5272 111.797 67.6902 111.949C67.8441 112.123 68.0074 112.288 68.1794 112.443C68.3364 112.613 68.4994 112.778 68.6685 112.93C68.8223 113.104 68.9856 113.269 69.1576 113.424C69.3146 113.594 69.4776 113.759 69.6467 113.917C69.799 114.092 69.9624 114.257 70.1358 114.411C70.2868 114.582 70.4498 114.746 70.6189 114.905C70.7728 115.078 70.9361 115.243 71.108 115.398C71.259 115.563 71.422 115.727 71.5911 115.886C72.5885 116.974 73.8875 117.734 75.319 118.066C76.7504 118.399 78.2479 118.288 79.6164 117.75C80.9848 117.211 82.1609 116.269 82.9913 115.047C83.8217 113.824 84.2679 112.377 84.2719 110.895V100.89H85.6004C86.5671 100.906 87.5274 100.728 88.4253 100.366C89.3231 100.004 90.1407 99.465 90.8302 98.7811C91.5198 98.0971 92.0676 97.2816 92.4417 96.3819C92.8159 95.4823 93.0089 94.5165 93.0096 93.5408C93.0242 92.5289 92.8305 91.5249 92.4407 90.5925C92.0509 89.66 91.4736 88.8194 90.7452 88.1237ZM64.828 59.4843V81.0796H47.5821L64.828 59.4843Z" fill="#E3AC1E"/>
<path d="M88.125 88.4471C88.1244 89.4233 87.9312 90.3896 87.5566 91.2896C87.1821 92.1897 86.6337 93.0055 85.9435 93.6896C85.2533 94.3736 84.4351 94.9121 83.5365 95.2737C82.6379 95.6353 81.677 95.8128 80.7098 95.7958H79.3873V105.954C79.3873 107.903 78.6201 109.772 77.2544 111.15C75.8887 112.528 74.0364 113.302 72.1049 113.302C70.1735 113.302 68.3212 112.528 66.9555 111.15C65.5898 109.772 64.8225 107.903 64.8225 105.954V95.7958H23.1147C21.4778 95.8519 19.8809 95.2791 18.6462 94.1932C17.8812 93.6129 17.2407 92.8821 16.7634 92.0451C16.2861 91.208 15.9818 90.282 15.8689 89.323C15.756 88.364 15.8369 87.3918 16.1067 86.4652C16.3765 85.5386 16.8295 84.6768 17.4385 83.9318L66.4106 22.4424C66.5435 22.4424 66.5435 22.3144 66.6763 22.1804C66.8408 22.0279 66.9759 21.8461 67.0749 21.6441C67.329 21.5748 67.5589 21.4356 67.7391 21.242C67.8659 21.1079 68.1316 20.9739 68.2645 20.8398C68.4974 20.6716 68.7752 20.5782 69.0615 20.5717C69.1944 20.3097 69.3272 20.1756 69.5929 20.1756C69.7197 20.0415 69.9854 20.0416 70.384 19.9075C70.5712 19.9276 70.7595 19.8801 70.9154 19.7734H73.1677C73.3693 19.8823 73.5982 19.9289 73.8259 19.9075C73.9588 20.0416 74.3573 20.0415 74.623 20.1756C74.7558 20.1756 75.0215 20.3097 75.1544 20.3097C75.414 20.5717 75.6797 20.7057 75.8126 20.8398C76.0783 20.9739 76.2111 21.1079 76.4768 21.242C76.512 21.242 76.5458 21.2561 76.5707 21.2812C76.5957 21.3064 76.6096 21.3405 76.6096 21.376C76.7425 21.376 77.0082 21.5101 77.0082 21.6441L77.5335 22.1804C77.6664 22.3144 77.7992 22.5764 77.9321 22.7105C78.1347 22.9121 78.313 23.1371 78.4635 23.3808C78.4967 23.5824 78.5892 23.7692 78.7292 23.917C78.8383 24.1751 78.9252 24.4421 78.9888 24.7153C78.9888 24.8493 79.1217 25.1174 79.1217 25.2515C79.2413 25.5013 79.2874 25.7804 79.2545 26.0558C79.2545 26.3178 79.3873 26.4519 79.3873 26.72V81.0983H80.7098C82.6565 81.0885 84.5281 81.8554 85.917 83.2318C87.3059 84.6083 88.0996 86.4828 88.125 88.4471ZM64.8225 48.096L38.4766 81.0983H64.8225V48.096Z" fill="#871E35"/>
<path d="M165.581 39.6928C164.086 37.3975 162.349 35.2726 160.4 33.3556C160.328 33.2759 160.251 33.2006 160.17 33.1302L160.104 33.0631C160.043 32.9961 159.983 32.9291 159.917 32.8681C159.747 32.6853 159.566 32.5147 159.391 32.338L159.343 32.2954L159.162 32.1126C159.141 32.0887 159.119 32.0663 159.095 32.0455C159.035 31.9785 158.974 31.9115 158.908 31.8505C158.739 31.6677 158.558 31.4971 158.383 31.3204L158.334 31.2777L158.153 31.0949L158.087 31.0279C158.026 30.9609 157.966 30.8939 157.9 30.8329C157.731 30.6501 157.549 30.4795 157.374 30.3028L157.326 30.2601L157.145 30.0773C157.145 30.0773 157.103 30.0286 157.078 30.0103C157.019 29.9408 156.954 29.8757 156.885 29.8153C156.722 29.6264 156.541 29.4619 156.366 29.2852L156.318 29.2425C156.262 29.1771 156.201 29.116 156.136 29.0597C156.136 29.0597 156.094 29.011 156.07 28.9927C150.75 23.4598 143.818 19.7976 136.04 19.7976C125.576 19.7976 116.977 26.08 111.409 34.6231C105.582 43.154 102.545 54.2746 102.412 66.5591C102.545 78.746 105.582 89.9398 111.409 98.495C112.901 100.756 114.619 102.857 116.536 104.765L116.802 105.027V105.058L117.273 105.533C117.351 105.624 117.436 105.704 117.514 105.783L117.78 106.045L117.81 106.075L118.281 106.551L118.523 106.807L118.788 107.062C118.801 107.069 118.812 107.08 118.819 107.093L119.29 107.568L119.531 107.824L119.797 108.08C119.804 108.084 119.81 108.089 119.816 108.095C119.821 108.102 119.825 108.109 119.827 108.117L120.298 108.592L120.546 108.842L120.805 109.098L120.841 109.134L121.312 109.61C126.542 114.88 133.293 118.421 141.052 118.421C151.245 118.421 159.983 112.004 165.55 103.583C171.239 95.0522 174.421 83.8097 174.421 71.6532C174.439 59.3383 171.269 48.2481 165.581 39.6928ZM148.353 90.1896C144.512 95.9297 140.14 98.4706 136.04 98.4706C133.517 98.409 131.076 97.5572 129.054 96.0333C128.867 95.7895 128.685 95.5336 128.504 95.2655C124.797 89.6534 122.146 81.1042 122.146 71.6166C122.146 61.995 124.797 53.5799 128.504 47.852C132.484 42.2399 136.958 39.571 141.082 39.6989C143.473 39.6879 145.803 40.4575 147.725 41.8926C147.936 42.179 148.141 42.4593 148.329 42.7579C152.036 48.504 154.681 56.9191 154.681 66.5225C154.705 76.01 152.06 84.5714 148.353 90.1896Z" fill="#871E35"/>
<path opacity="0.1" d="M165.581 39.6928C164.086 37.3975 162.349 35.2726 160.4 33.3556C160.328 33.2759 160.251 33.2006 160.17 33.1302L160.104 33.0631C160.043 32.9961 159.983 32.9291 159.917 32.8681C159.747 32.6853 159.566 32.5147 159.391 32.338L159.343 32.2954L159.162 32.1126C159.141 32.0887 159.119 32.0663 159.095 32.0455C159.035 31.9785 158.974 31.9115 158.908 31.8505C158.739 31.6677 158.558 31.4971 158.383 31.3204L158.334 31.2777L158.153 31.0949L158.087 31.0279C158.026 30.9609 157.966 30.8939 157.9 30.8329C157.731 30.6501 157.549 30.4795 157.374 30.3028L157.326 30.2601L157.145 30.0773C157.145 30.0773 157.103 30.0286 157.078 30.0103C157.019 29.9408 156.954 29.8757 156.885 29.8153C156.722 29.6264 156.541 29.4619 156.366 29.2852L156.318 29.2425C156.262 29.1771 156.201 29.116 156.136 29.0597C156.136 29.0597 156.094 29.011 156.07 28.9927C150.75 23.4598 143.818 19.7976 136.04 19.7976C125.576 19.7976 116.977 26.08 111.409 34.6231C105.582 43.154 102.545 54.2746 102.412 66.5591C102.545 78.746 105.582 89.9398 111.409 98.495C112.901 100.756 114.619 102.857 116.536 104.765L116.802 105.027V105.058L117.273 105.533C117.351 105.624 117.436 105.704 117.514 105.783L117.78 106.045L117.81 106.075L118.281 106.551L118.523 106.807L118.788 107.062C118.801 107.069 118.812 107.08 118.819 107.093L119.29 107.568L119.531 107.824L119.797 108.08C119.804 108.084 119.81 108.089 119.816 108.095C119.821 108.102 119.825 108.109 119.827 108.117L120.298 108.592L120.546 108.842L120.805 109.098L120.841 109.134L121.312 109.61C126.542 114.88 133.293 118.421 141.052 118.421C151.245 118.421 159.983 112.004 165.55 103.583C171.239 95.0522 174.421 83.8097 174.421 71.6532C174.439 59.3383 171.269 48.2481 165.581 39.6928ZM148.353 90.1896C144.512 95.9297 140.14 98.4706 136.04 98.4706C133.517 98.409 131.076 97.5572 129.054 96.0333C128.867 95.7895 128.685 95.5336 128.504 95.2655C124.797 89.6534 122.146 81.1042 122.146 71.6166C122.146 61.995 124.797 53.5799 128.504 47.852C132.484 42.2399 136.958 39.571 141.082 39.6989C143.473 39.6879 145.803 40.4575 147.725 41.8926C147.936 42.179 148.141 42.4593 148.329 42.7579C152.036 48.504 154.681 56.9191 154.681 66.5225C154.705 76.01 152.06 84.5714 148.353 90.1896Z" fill="#E3AC1E"/>
<path d="M102.406 66.5349C102.538 54.2443 105.588 43.1542 111.409 34.605C116.97 26.0741 125.575 19.7734 136.04 19.7734C146.233 19.7734 154.971 26.0558 160.532 34.605C166.226 43.1359 169.403 54.2443 169.403 66.5349C169.403 78.7219 166.226 89.9217 160.532 98.4709C154.971 106.886 146.233 113.302 136.04 113.302C125.575 113.302 116.97 106.886 111.409 98.4709C105.6 89.9217 102.538 78.6975 102.406 66.5349ZM154.705 66.5349C154.705 56.9194 152.06 48.4982 148.352 42.7703C144.512 37.1582 140.146 34.4892 136.04 34.6233C131.934 34.4892 127.429 37.1582 123.462 42.7703C119.754 48.5164 117.103 56.9376 117.103 66.5349C117.103 76.0224 119.754 84.5777 123.462 90.1837C127.429 95.9299 131.916 98.4709 136.04 98.4709C140.164 98.4709 144.494 95.9299 148.352 90.1837C152.06 84.5777 154.705 76.0103 154.705 66.5349Z" fill="#871E35"/>
<path d="M255.783 88.1237C255.626 87.947 255.457 87.7764 255.288 87.6179C255.125 87.4412 254.956 87.2767 254.787 87.1183C254.624 86.9416 254.461 86.7709 254.292 86.6125C254.129 86.4358 253.96 86.2652 253.791 86.1128C253.627 85.9361 253.464 85.7655 253.295 85.6071C253.132 85.4304 252.963 85.2598 252.794 85.1074C252.631 84.9307 252.462 84.7601 252.299 84.6017C252.143 84.4261 251.978 84.2593 251.804 84.102C251.641 83.9253 251.472 83.7608 251.303 83.6023C250.791 83.0318 250.192 82.5483 249.527 82.1704V31.8137C249.527 31.5456 249.401 31.4116 249.401 31.1435C249.433 30.87 249.387 30.5929 249.268 30.3452C249.268 30.2112 249.141 29.943 249.141 29.809C249.068 29.535 248.977 29.2663 248.869 29.0046C248.732 28.8557 248.642 28.6691 248.609 28.4684C248.459 28.2263 248.281 28.0033 248.078 27.8042C247.939 27.6702 247.812 27.4081 247.68 27.268L247.148 26.7318C247.148 26.6526 247.046 26.5673 246.931 26.5185L246.671 26.2504H246.641C246.641 26.1651 246.544 26.0859 246.43 26.031L246.164 25.769C246.164 25.6898 246.061 25.6045 245.947 25.5496L245.687 25.2876C245.687 25.2023 245.584 25.1231 245.469 25.0682L245.21 24.8001C245.21 24.7209 245.107 24.6356 244.992 24.5808L244.727 24.3188V24.2883C244.727 24.2091 244.624 24.1299 244.509 24.075L244.25 23.8069H244.219C244.219 23.7277 244.123 23.6424 244.008 23.5875L243.742 23.3255V23.2951C243.742 23.2158 243.64 23.1366 243.525 23.0818L243.265 22.8137H243.235C243.235 22.7284 243.139 22.6491 243.024 22.5943L242.758 22.3323C242.758 22.2531 242.656 22.1677 242.541 22.119L242.251 21.8265C242.251 21.6925 241.991 21.5584 241.852 21.5584C241.852 21.5408 241.849 21.5234 241.842 21.5071C241.836 21.4908 241.826 21.4761 241.813 21.4636C241.801 21.4512 241.787 21.4413 241.77 21.4346C241.754 21.4278 241.737 21.4243 241.72 21.4243C241.46 21.2964 241.321 21.1562 241.061 21.0222C240.833 20.855 240.613 20.676 240.403 20.486C240.27 20.486 240.005 20.358 239.872 20.358C239.606 20.2239 239.214 20.2239 239.075 20.0838C238.846 20.1032 238.616 20.0589 238.41 19.9558H236.164C236.006 20.058 235.819 20.1031 235.633 20.0838C235.234 20.2239 234.975 20.2239 234.836 20.358C234.576 20.358 234.443 20.4859 234.304 20.7602C234.021 20.7675 233.746 20.8586 233.513 21.0222C233.386 21.1562 233.115 21.2964 232.988 21.4243C232.808 21.618 232.578 21.7572 232.324 21.8265C232.223 22.0273 232.088 22.2087 231.925 22.3627C231.792 22.4968 231.792 22.6248 231.665 22.6248L182.458 83.9314C181.295 85.341 180.714 87.1485 180.836 88.9788C180.959 90.809 181.775 92.5213 183.116 93.7602C183.271 93.9442 183.441 94.1154 183.623 94.272C183.775 94.4555 183.943 94.6248 184.124 94.7778C184.28 94.9618 184.449 95.133 184.632 95.2896C185.138 95.7964 185.641 96.3062 186.141 96.8191C186.481 97.1542 186.818 97.4935 187.15 97.8367C187.305 98.0188 187.475 98.188 187.657 98.3425C187.969 98.7006 188.317 99.0253 188.696 99.3113C189.939 100.402 191.547 100.975 193.194 100.914H229.86V105.978C229.849 107.008 230.054 108.03 230.462 108.975C230.87 109.92 231.472 110.768 232.227 111.462C232.384 111.638 232.553 111.803 232.716 111.955C232.867 112.126 233.03 112.284 233.199 112.443C233.355 112.616 233.52 112.781 233.694 112.936C233.851 113.107 234.008 113.265 234.177 113.424C234.334 113.601 234.504 113.765 234.673 113.924C234.83 114.094 234.987 114.259 235.156 114.411C235.313 114.588 235.482 114.752 235.651 114.911C235.808 115.081 235.965 115.246 236.134 115.398C236.288 115.574 236.451 115.74 236.623 115.898C237.621 116.986 238.92 117.746 240.352 118.079C241.784 118.411 243.282 118.3 244.651 117.761C246.02 117.222 247.196 116.279 248.026 115.055C248.856 113.831 249.301 112.384 249.304 110.901V100.89H250.632C251.6 100.907 252.561 100.729 253.46 100.368C254.359 100.006 255.178 99.4676 255.868 98.7836C256.559 98.0997 257.108 97.2839 257.483 96.3838C257.858 95.4837 258.052 94.5173 258.054 93.5408C258.067 92.5285 257.873 91.5242 257.482 90.5917C257.091 89.6592 256.513 88.8188 255.783 88.1237ZM229.86 59.4843V81.0796H212.614L229.86 59.4843Z" fill="#871E35"/>
<path opacity="0.1" d="M255.783 88.1237C255.626 87.947 255.457 87.7764 255.288 87.6179C255.125 87.4412 254.956 87.2767 254.787 87.1183C254.624 86.9416 254.461 86.7709 254.292 86.6125C254.129 86.4358 253.96 86.2652 253.791 86.1128C253.627 85.9361 253.464 85.7655 253.295 85.6071C253.132 85.4304 252.963 85.2598 252.794 85.1074C252.631 84.9307 252.462 84.7601 252.299 84.6017C252.143 84.4261 251.978 84.2593 251.804 84.102C251.641 83.9253 251.472 83.7608 251.303 83.6023C250.791 83.0318 250.192 82.5483 249.527 82.1704V31.8137C249.527 31.5456 249.401 31.4116 249.401 31.1435C249.433 30.87 249.387 30.5929 249.268 30.3452C249.268 30.2112 249.141 29.943 249.141 29.809C249.068 29.535 248.977 29.2663 248.869 29.0046C248.732 28.8557 248.642 28.6691 248.609 28.4684C248.459 28.2263 248.281 28.0033 248.078 27.8042C247.939 27.6702 247.812 27.4081 247.68 27.268L247.148 26.7318C247.148 26.6526 247.046 26.5673 246.931 26.5185L246.671 26.2504H246.641C246.641 26.1651 246.544 26.0859 246.43 26.031L246.164 25.769C246.164 25.6898 246.061 25.6045 245.947 25.5496L245.687 25.2876C245.687 25.2023 245.584 25.1231 245.469 25.0682L245.21 24.8001C245.21 24.7209 245.107 24.6356 244.992 24.5808L244.727 24.3188V24.2883C244.727 24.2091 244.624 24.1299 244.509 24.075L244.25 23.8069H244.219C244.219 23.7277 244.123 23.6424 244.008 23.5875L243.742 23.3255V23.2951C243.742 23.2158 243.64 23.1366 243.525 23.0818L243.265 22.8137H243.235C243.235 22.7284 243.139 22.6491 243.024 22.5943L242.758 22.3323C242.758 22.2531 242.656 22.1677 242.541 22.119L242.251 21.8265C242.251 21.6925 241.991 21.5584 241.852 21.5584C241.852 21.5408 241.849 21.5234 241.842 21.5071C241.836 21.4908 241.826 21.4761 241.813 21.4636C241.801 21.4512 241.787 21.4413 241.77 21.4346C241.754 21.4278 241.737 21.4243 241.72 21.4243C241.46 21.2964 241.321 21.1562 241.061 21.0222C240.833 20.855 240.613 20.676 240.403 20.486C240.27 20.486 240.005 20.358 239.872 20.358C239.606 20.2239 239.214 20.2239 239.075 20.0838C238.846 20.1032 238.616 20.0589 238.41 19.9558H236.164C236.006 20.058 235.819 20.1031 235.633 20.0838C235.234 20.2239 234.975 20.2239 234.836 20.358C234.576 20.358 234.443 20.4859 234.304 20.7602C234.021 20.7675 233.746 20.8586 233.513 21.0222C233.386 21.1562 233.115 21.2964 232.988 21.4243C232.808 21.618 232.578 21.7572 232.324 21.8265C232.223 22.0273 232.088 22.2087 231.925 22.3627C231.792 22.4968 231.792 22.6248 231.665 22.6248L182.458 83.9314C181.295 85.341 180.714 87.1485 180.836 88.9788C180.959 90.809 181.775 92.5213 183.116 93.7602C183.271 93.9442 183.441 94.1154 183.623 94.272C183.775 94.4555 183.943 94.6248 184.124 94.7778C184.28 94.9618 184.449 95.133 184.632 95.2896C185.138 95.7964 185.641 96.3062 186.141 96.8191C186.481 97.1542 186.818 97.4935 187.15 97.8367C187.305 98.0188 187.475 98.188 187.657 98.3425C187.969 98.7006 188.317 99.0253 188.696 99.3113C189.939 100.402 191.547 100.975 193.194 100.914H229.86V105.978C229.849 107.008 230.054 108.03 230.462 108.975C230.87 109.92 231.472 110.768 232.227 111.462C232.384 111.638 232.553 111.803 232.716 111.955C232.867 112.126 233.03 112.284 233.199 112.443C233.355 112.616 233.52 112.781 233.694 112.936C233.851 113.107 234.008 113.265 234.177 113.424C234.334 113.601 234.504 113.765 234.673 113.924C234.83 114.094 234.987 114.259 235.156 114.411C235.313 114.588 235.482 114.752 235.651 114.911C235.808 115.081 235.965 115.246 236.134 115.398C236.288 115.574 236.451 115.74 236.623 115.898C237.621 116.986 238.92 117.746 240.352 118.079C241.784 118.411 243.282 118.3 244.651 117.761C246.02 117.222 247.196 116.279 248.026 115.055C248.856 113.831 249.301 112.384 249.304 110.901V100.89H250.632C251.6 100.907 252.561 100.729 253.46 100.368C254.359 100.006 255.178 99.4676 255.868 98.7836C256.559 98.0997 257.108 97.2839 257.483 96.3838C257.858 95.4837 258.052 94.5173 258.054 93.5408C258.067 92.5285 257.873 91.5242 257.482 90.5917C257.091 89.6592 256.513 88.8188 255.783 88.1237ZM229.86 59.4843V81.0796H212.614L229.86 59.4843Z" fill="#E3AC1E"/>
<path d="M253.156 88.4471C253.156 89.4233 252.962 90.3896 252.588 91.2896C252.213 92.1897 251.665 93.0055 250.975 93.6896C250.284 94.3736 249.466 94.9121 248.568 95.2737C247.669 95.6353 246.708 95.8128 245.741 95.7958H244.419V105.954C244.419 107.903 243.651 109.772 242.286 111.15C240.92 112.528 239.068 113.302 237.136 113.302C235.205 113.302 233.352 112.528 231.987 111.15C230.621 109.772 229.854 107.903 229.854 105.954V95.7958H188.146C186.499 95.8597 184.89 95.2864 183.647 94.1932C182.879 93.6128 182.235 92.8808 181.755 92.0416C181.276 91.2025 180.97 90.2737 180.857 89.3117C180.744 88.3497 180.826 87.3746 181.098 86.4456C181.37 85.5166 181.827 84.653 182.439 83.9074L231.442 22.4424C231.575 22.4424 231.575 22.3144 231.708 22.1804C231.872 22.0279 232.007 21.8461 232.106 21.6441C232.36 21.5748 232.59 21.4356 232.77 21.242C232.903 21.1079 233.169 20.9739 233.302 20.8398C233.532 20.6707 233.808 20.5771 234.093 20.5717C234.226 20.3097 234.358 20.1756 234.618 20.1756C234.751 20.0415 235.017 20.0416 235.415 19.9075C235.602 19.9276 235.791 19.8801 235.947 19.7734H238.199C238.401 19.8823 238.629 19.9289 238.857 19.9075C238.99 20.0416 239.388 20.0415 239.654 20.1756C239.787 20.1756 240.053 20.3097 240.186 20.3097C240.451 20.5717 240.711 20.7057 240.844 20.8398C241.109 20.9739 241.242 21.1079 241.508 21.242C241.543 21.242 241.577 21.2561 241.602 21.2812C241.627 21.3064 241.641 21.3405 241.641 21.376C241.774 21.376 242.033 21.5101 242.033 21.6441L242.565 22.1804C242.698 22.3144 242.83 22.5764 242.963 22.7105C243.166 22.9121 243.344 23.1371 243.495 23.3808C243.528 23.5824 243.62 23.7692 243.76 23.917C243.869 24.1758 243.958 24.4427 244.026 24.7153C244.026 24.8493 244.153 25.1174 244.153 25.2515C244.272 25.5013 244.319 25.7804 244.286 26.0558C244.286 26.3178 244.419 26.4519 244.419 26.72V81.0983H245.741C247.688 81.0885 249.559 81.8554 250.948 83.2318C252.337 84.6083 253.131 86.4828 253.156 88.4471ZM229.854 48.096L203.508 81.0983H229.854V48.096Z" fill="#871E35"/>
<path d="M155.278 95.9663C155.258 96.1058 155.285 96.2482 155.357 96.3693C155.428 96.4904 155.539 96.5827 155.671 96.6305C156.305 96.728 157.078 96.8316 157.935 96.9535C160.49 91.3596 163.098 86.9541 162.362 88.6968C161.236 91.4347 160.498 94.3188 160.17 97.2642C161.166 97.3983 163.491 97.6847 164.65 97.8248C167.319 87.8437 170.26 80.5071 169.916 82.8105C168.515 92.1031 168.762 95.1376 169.082 98.3854C179.909 99.7138 194.13 101.286 204.438 102.182C206.122 96.6975 207.698 90.7015 207.843 91.1403C208.973 94.4003 208.948 99.007 208.665 102.541C211.95 102.803 214.582 102.943 216.195 102.943C216.195 102.943 217.402 98.3001 217.62 96.7646C218.266 92.8356 218.229 88.8229 217.511 84.9066C216.768 80.9093 215.186 77.3142 213.707 73.6398C213.702 73.617 213.696 73.5946 213.689 73.5728C212.707 71.1655 212.002 68.6529 211.587 66.0839C211.583 66.0637 211.583 66.043 211.587 66.0229C211.311 64.1494 211.192 62.2558 211.231 60.3621C211.364 53.4277 208.284 47.194 202.433 44.9394C192.439 34.6353 178.714 39.3639 174.837 48.0776C173.321 51.9835 171.818 57.0838 170.507 61.0141C170.511 61.0205 170.513 61.0279 170.513 61.0354C170.513 61.0429 170.511 61.0502 170.507 61.0567C170.013 62.5984 169.426 64.1083 168.75 65.5781C165.157 72.5978 158.237 76.2173 155.278 95.9663Z" fill="#24221E"/>
<path d="M204.842 46.9869C208.592 49.4913 210.73 52.9098 210.881 57.9917C210.977 60.9532 210.881 63.8354 211.708 66.681C212.535 69.6181 214.033 72.0921 215.585 74.5599C218.042 78.4841 219.661 82.3352 219.655 87.3075C219.649 92.2798 218.906 98.2758 216.919 102.84C216.919 102.87 216.871 102.84 216.883 102.84C218.574 98.1783 219.19 91.6095 218.846 86.5763C218.465 81.0434 215.905 77.3995 213.332 73.0305C211.26 69.5623 210.113 65.6111 210.005 61.5625C209.933 59.052 210.198 56.4623 209.474 54.0492C208.616 51.1731 206.563 49.2293 204.51 47.4926C204.238 47.2428 204.558 46.798 204.842 46.9869Z" fill="#24221E"/>
<path d="M161.372 72.8478C164.499 69.1369 167.694 66.0109 169.759 61.2702C171.637 56.9499 172.899 52.3371 174.801 48.029C174.801 47.9559 174.928 47.9925 174.898 48.0717C171.878 55.7495 170.719 63.6345 165.441 69.8925C162.567 73.2926 159.723 76.4308 157.658 80.6048C155.546 85.0068 154.225 89.7521 153.757 94.6199C153.757 94.7905 153.534 94.7661 153.534 94.6199C153.531 86.6587 156.306 78.9507 161.372 72.8478Z" fill="#24221E"/>
<path d="M130.962 167.413C130.962 167.413 160.109 175.335 164.928 174.482C169.747 173.628 186.014 151.533 189.625 143.521C193.236 135.508 199.233 95.644 198.079 91.2567C196.926 86.8694 190.894 86.8084 185.803 98.118C180.713 109.427 168.678 134.289 166.534 136.336C164.391 138.384 128.613 165.293 130.962 167.413Z" fill="#EB9481"/>
<path d="M162.398 171.86C157.93 169.502 152.489 163.78 148.781 163.183C147.874 163.004 146.934 163.124 146.1 163.526C145.266 163.927 144.582 164.589 144.15 165.413C144.15 165.413 142.447 161.593 138.993 161.611C137.224 161.611 135.678 164.487 135.678 164.487C135.678 164.487 134.174 161.483 131.113 161.69C128.667 161.855 127.49 164.706 127.49 164.706C127.49 164.706 124.724 162.501 122.284 163.488C117.345 165.456 116.524 186.643 124.132 190.226C127.677 191.896 127.598 186.71 127.598 186.71C127.598 186.71 129.494 194.144 133.818 194.424C138.141 194.705 137.64 187.977 137.64 187.977C137.64 187.977 139.542 195.162 144.053 194.997C148.751 194.833 147.109 188.185 147.109 188.185C147.109 188.185 150.092 193.023 153.515 192.097C159.174 190.573 153.093 179.105 154.373 174.493H161.48L162.398 171.86Z" fill="#EB9481"/>
<path d="M155.949 167.352C160.375 169.216 165.423 162.166 169.976 163.805C175.882 165.932 170.423 173.287 161.474 174.481H154.367L155.949 167.352Z" fill="#EB9481"/>
<path d="M127.23 165.127C127.23 165.113 127.224 165.099 127.214 165.089C127.204 165.078 127.19 165.073 127.175 165.073C127.161 165.073 127.147 165.078 127.137 165.089C127.127 165.099 127.121 165.113 127.121 165.127C125.171 172.031 125.116 180.221 127.562 187.009C127.64 187.228 128.039 187.198 127.997 186.936C126.801 179.429 126.33 172.689 127.23 165.127Z" fill="#24221E"/>
<path d="M135.636 164.366C135.636 164.281 135.509 164.263 135.485 164.366C133.51 171.496 133.673 180.715 137.435 188.21C137.562 188.466 137.936 188.564 137.809 188.259C135.702 183.092 134.79 171.185 135.636 164.366Z" fill="#24221E"/>
<path d="M147.543 188.631C144.24 181.318 143.594 173.659 144.053 165.701C144.053 165.597 143.914 165.597 143.884 165.701C142.61 169.534 142.845 174.634 143.359 178.588C143.76 182.259 145.107 185.759 147.266 188.74C147.374 188.868 147.616 188.789 147.543 188.631Z" fill="#24221E"/>
<path d="M170.327 163.244C167.428 162.269 164.451 164.609 162.012 165.919C161.231 166.388 160.408 166.782 159.554 167.095C157.622 167.705 156.191 167.315 155.327 166.772C153.974 165.901 149.754 161.648 146.704 163.061C145.652 163.558 144.751 164.33 144.096 165.298C143.166 163.592 141.976 161.733 139.917 161.392C139.463 161.314 138.998 161.334 138.553 161.451C138.107 161.567 137.692 161.778 137.332 162.068C136.949 162.367 136.607 162.718 136.318 163.11C136.031 163.463 135.795 163.855 135.617 164.274C135.617 164.26 135.617 164.246 135.617 164.231L135.551 164.103L135.424 163.841C135.252 163.49 135.007 163.181 134.706 162.933C134.648 162.874 134.58 162.828 134.504 162.796C134.428 162.765 134.347 162.749 134.265 162.751C134.252 162.751 134.24 162.756 134.231 162.765C134.222 162.774 134.217 162.786 134.217 162.799C134.217 162.812 134.222 162.825 134.231 162.834C134.24 162.843 134.252 162.848 134.265 162.848C134.406 162.916 134.521 163.03 134.591 163.171C134.688 163.317 134.778 163.47 134.881 163.61C134.983 163.75 135.08 163.896 135.183 164.036L135.334 164.262L135.4 164.378C135.429 164.415 135.461 164.45 135.497 164.481C135.505 164.493 135.516 164.502 135.529 164.508C135.541 164.514 135.555 164.518 135.569 164.518C135.583 164.518 135.597 164.514 135.61 164.508C135.622 164.502 135.633 164.493 135.642 164.481C135.952 164.202 136.234 163.892 136.481 163.555C136.785 163.198 137.123 162.872 137.489 162.58C137.838 162.308 138.238 162.114 138.666 162.009C139.094 161.904 139.538 161.891 139.971 161.971C141.819 162.336 142.99 163.994 143.975 165.474C143.975 165.474 143.975 165.474 144.005 165.474C143.975 165.523 144.041 165.566 144.077 165.529C145.092 164.634 146.058 163.628 147.459 163.421C148.969 163.195 150.4 163.927 151.65 164.694C152.276 165.066 152.881 165.473 153.461 165.913C153.974 166.315 154.464 166.766 155.013 167.132C157.362 168.625 159.934 167.467 160.575 167.193C161.837 166.619 163.061 165.964 164.24 165.231C165.425 164.429 166.761 163.883 168.165 163.628C168.809 163.532 169.468 163.603 170.078 163.833C170.688 164.063 171.231 164.445 171.655 164.944C172.096 165.517 172.658 166.59 171.504 169.033C171.504 169.033 171.504 169.082 171.54 169.064C172.144 168.43 174.065 164.506 170.327 163.244Z" fill="#24221E"/>
<path d="M195.79 128.28L168.285 123.844C168.285 123.844 181.425 97.5875 189.317 89.9706C197.107 82.4513 200.899 90.1534 199.752 101.768C198.484 114.643 195.79 128.28 195.79 128.28Z" fill="#9F7815"/>
<path d="M194.897 123.113C194.124 122.93 193.333 122.815 192.56 122.638C191.787 122.461 191.045 122.351 190.284 122.236C188.732 121.992 187.174 121.773 185.622 121.559C182.555 121.133 179.487 120.664 176.407 120.341C174.656 120.146 172.917 119.877 171.16 119.731C171.106 119.731 171.1 119.817 171.16 119.829C174.209 120.548 177.313 121.047 180.405 121.59C183.497 122.132 186.54 122.571 189.62 122.906C190.483 123.003 191.353 123.113 192.216 123.156C193.08 123.198 193.998 123.284 194.885 123.296C194.909 123.298 194.933 123.289 194.951 123.273C194.969 123.257 194.98 123.235 194.982 123.211C194.983 123.186 194.975 123.162 194.96 123.144C194.944 123.126 194.921 123.115 194.897 123.113Z" fill="#24221E"/>
<path d="M180.477 174.725H253.32C253.32 174.725 223.043 98.8973 207.65 87.8193C203.031 84.4923 195.67 84.1206 190.706 90.799C186.637 96.2832 175.339 118.067 174.825 125.904C174.312 133.74 180.405 141.485 180.405 141.485L180.477 174.725Z" fill="#8A6912"/>
<path d="M204.594 123.344C204.782 123.295 204.963 123.271 205.144 123.234C205.304 123.198 205.47 123.198 205.629 123.235C205.789 123.271 205.938 123.344 206.066 123.447C206.195 123.55 206.298 123.681 206.369 123.829C206.441 123.978 206.478 124.141 206.478 124.307C206.474 124.454 206.507 124.599 206.575 124.73C206.643 124.86 206.742 124.97 206.865 125.05C207.002 125.137 207.157 125.191 207.318 125.208C207.503 125.236 207.686 125.272 207.867 125.318C207.686 125.367 207.505 125.391 207.318 125.428C207.116 125.468 206.906 125.449 206.714 125.373C206.51 125.285 206.336 125.138 206.214 124.95C206.093 124.763 206.029 124.543 206.032 124.319C206.028 124.172 205.988 124.029 205.915 123.902C205.843 123.776 205.739 123.669 205.615 123.594C205.471 123.515 205.313 123.467 205.15 123.453C204.963 123.417 204.782 123.392 204.594 123.344Z" fill="white"/>
<path d="M176.733 123.344C176.914 123.295 177.096 123.271 177.277 123.234C177.436 123.198 177.602 123.198 177.762 123.235C177.922 123.271 178.071 123.344 178.199 123.447C178.327 123.55 178.431 123.681 178.502 123.829C178.574 123.978 178.611 124.141 178.611 124.307C178.608 124.454 178.642 124.6 178.711 124.73C178.78 124.86 178.881 124.97 179.004 125.05C179.14 125.139 179.295 125.193 179.457 125.208C179.638 125.245 179.819 125.263 180 125.318C179.819 125.367 179.638 125.391 179.457 125.428C179.254 125.467 179.045 125.448 178.853 125.373C178.65 125.283 178.477 125.135 178.356 124.948C178.235 124.761 178.17 124.542 178.17 124.319C178.167 124.172 178.127 124.029 178.054 123.902C177.981 123.776 177.878 123.669 177.754 123.594C177.611 123.514 177.452 123.466 177.289 123.453C177.096 123.417 176.914 123.392 176.733 123.344Z" fill="white"/>
<path d="M214.715 159.869C214.896 159.82 215.084 159.796 215.265 159.759C215.425 159.725 215.59 159.727 215.749 159.765C215.908 159.803 216.056 159.877 216.183 159.98C216.31 160.083 216.413 160.214 216.484 160.362C216.555 160.511 216.592 160.673 216.593 160.838C216.592 160.985 216.627 161.13 216.695 161.26C216.764 161.39 216.864 161.501 216.986 161.581C217.123 161.666 217.278 161.718 217.439 161.734C217.62 161.77 217.807 161.795 217.988 161.843C217.807 161.898 217.62 161.922 217.439 161.959C217.236 161.997 217.026 161.976 216.835 161.898C216.63 161.81 216.456 161.663 216.334 161.475C216.211 161.288 216.146 161.068 216.146 160.844C216.145 160.698 216.106 160.554 216.033 160.428C215.96 160.302 215.856 160.197 215.73 160.125C215.59 160.042 215.433 159.994 215.271 159.985C215.084 159.948 214.896 159.924 214.715 159.869Z" fill="white"/>
<path d="M227.312 125.319C227.493 125.264 227.68 125.245 227.861 125.209C228.02 125.172 228.186 125.172 228.345 125.209C228.505 125.246 228.654 125.319 228.782 125.422C228.909 125.525 229.012 125.656 229.083 125.804C229.154 125.953 229.19 126.116 229.19 126.281C229.187 126.429 229.222 126.574 229.291 126.704C229.359 126.834 229.46 126.944 229.582 127.025C229.718 127.113 229.874 127.166 230.035 127.177C230.216 127.22 230.403 127.238 230.584 127.293C230.403 127.342 230.216 127.366 230.035 127.402C229.833 127.443 229.623 127.424 229.431 127.348C229.227 127.259 229.052 127.112 228.93 126.925C228.808 126.737 228.742 126.518 228.743 126.293C228.742 126.147 228.702 126.002 228.629 125.875C228.556 125.748 228.452 125.642 228.326 125.568C228.185 125.488 228.028 125.441 227.867 125.428C227.68 125.367 227.493 125.367 227.312 125.319Z" fill="white"/>
<path d="M195.108 106.74C195.295 106.691 195.477 106.667 195.658 106.63C195.859 106.586 196.068 106.601 196.262 106.673C196.471 106.752 196.652 106.893 196.78 107.078C196.909 107.263 196.978 107.483 196.98 107.709C196.98 107.856 197.015 108.001 197.084 108.13C197.152 108.26 197.251 108.371 197.373 108.452C197.511 108.535 197.666 108.586 197.825 108.605C198.013 108.641 198.194 108.666 198.375 108.714C198.194 108.769 198.013 108.787 197.825 108.83C197.622 108.865 197.414 108.844 197.222 108.769C197.014 108.68 196.839 108.53 196.717 108.339C196.595 108.148 196.533 107.924 196.539 107.697C196.537 107.551 196.497 107.408 196.424 107.282C196.351 107.156 196.247 107.052 196.123 106.978C195.981 106.894 195.822 106.844 195.658 106.831C195.477 106.813 195.295 106.795 195.108 106.74Z" fill="white"/>
<path d="M214.933 106.319C215.114 106.27 215.295 106.246 215.483 106.209C215.684 106.167 215.893 106.181 216.086 106.252C216.296 106.332 216.477 106.474 216.606 106.658C216.735 106.843 216.806 107.062 216.811 107.288C216.808 107.435 216.843 107.581 216.912 107.711C216.98 107.841 217.081 107.952 217.204 108.031C217.341 108.117 217.496 108.169 217.656 108.184C217.838 108.22 218.019 108.245 218.206 108.293C218.019 108.348 217.838 108.373 217.656 108.409C217.454 108.448 217.244 108.427 217.053 108.348C216.848 108.26 216.674 108.113 216.552 107.926C216.429 107.738 216.364 107.519 216.364 107.294C216.362 107.148 216.323 107.005 216.25 106.879C216.177 106.753 216.073 106.649 215.948 106.575C215.808 106.492 215.65 106.444 215.489 106.435C215.302 106.406 215.116 106.367 214.933 106.319Z" fill="white"/>
<path d="M202.101 87.1186C202.282 87.0698 202.469 87.0454 202.65 87.0089C202.81 86.9722 202.975 86.9723 203.135 87.0092C203.294 87.046 203.443 87.1187 203.571 87.2218C203.699 87.3249 203.802 87.4557 203.872 87.6045C203.943 87.7533 203.979 87.9163 203.979 88.0813C203.976 88.2288 204.01 88.3747 204.079 88.5049C204.147 88.6351 204.248 88.7452 204.371 88.8247C204.508 88.9127 204.663 88.9669 204.824 88.9832C205.005 89.0197 205.193 89.038 205.374 89.0928C205.193 89.1416 205.005 89.166 204.824 89.2025C204.622 89.2434 204.412 89.2244 204.22 89.1477C204.016 89.0593 203.842 88.9123 203.719 88.7249C203.597 88.5375 203.532 88.318 203.532 88.0935C203.531 87.9466 203.492 87.8024 203.419 87.6753C203.346 87.5482 203.241 87.4424 203.115 87.3684C202.974 87.2885 202.818 87.2407 202.657 87.2282C202.469 87.1917 202.282 87.1673 202.101 87.1186Z" fill="white"/>
<path d="M190.247 138.627C190.428 138.578 190.61 138.554 190.791 138.517C190.992 138.472 191.202 138.487 191.395 138.56C191.604 138.638 191.786 138.778 191.915 138.961C192.045 139.145 192.116 139.364 192.119 139.59C192.116 139.737 192.15 139.883 192.219 140.013C192.288 140.144 192.389 140.254 192.512 140.333C192.648 140.422 192.803 140.476 192.965 140.492C193.146 140.528 193.327 140.553 193.508 140.601C193.327 140.656 193.146 140.674 192.965 140.711C192.762 140.75 192.553 140.731 192.361 140.656C192.158 140.566 191.985 140.419 191.864 140.231C191.743 140.044 191.678 139.826 191.678 139.602C191.675 139.455 191.635 139.312 191.562 139.185C191.489 139.059 191.386 138.953 191.262 138.877C191.118 138.798 190.96 138.75 190.797 138.737C190.61 138.7 190.428 138.682 190.247 138.627Z" fill="white"/>
<path d="M211.878 172.098C212.059 172.044 212.246 172.019 212.427 171.983C212.587 171.948 212.752 171.95 212.911 171.988C213.07 172.027 213.218 172.1 213.345 172.203C213.473 172.306 213.576 172.437 213.646 172.586C213.717 172.734 213.755 172.896 213.756 173.061C213.754 173.208 213.789 173.354 213.858 173.484C213.926 173.613 214.026 173.724 214.148 173.805C214.284 173.892 214.44 173.944 214.601 173.957C214.782 173.994 214.969 174.018 215.15 174.067C214.969 174.122 214.782 174.146 214.601 174.182C214.398 174.221 214.188 174.2 213.997 174.122C213.792 174.034 213.617 173.887 213.495 173.699C213.373 173.512 213.308 173.292 213.309 173.067C213.308 172.921 213.269 172.778 213.196 172.652C213.122 172.525 213.018 172.421 212.892 172.348C212.752 172.266 212.595 172.218 212.433 172.208C212.228 172.172 212.041 172.147 211.878 172.098Z" fill="white"/>
<path d="M201.219 154.111C201.401 154.062 201.582 154.038 201.763 154.002C201.964 153.96 202.173 153.974 202.367 154.044C202.577 154.123 202.759 154.264 202.888 154.449C203.017 154.634 203.088 154.854 203.091 155.08C203.089 155.227 203.123 155.373 203.192 155.503C203.261 155.633 203.361 155.744 203.484 155.824C203.62 155.91 203.776 155.963 203.937 155.976C204.118 156.012 204.299 156.037 204.486 156.086C204.299 156.14 204.118 156.159 203.937 156.201C203.734 156.236 203.525 156.215 203.333 156.14C203.13 156.05 202.957 155.903 202.836 155.716C202.715 155.529 202.651 155.31 202.65 155.086C202.647 154.941 202.606 154.798 202.534 154.673C202.461 154.547 202.358 154.442 202.234 154.367C202.093 154.281 201.933 154.233 201.769 154.227C201.612 154.184 201.401 154.166 201.219 154.111Z" fill="white"/>
<path d="M181.528 157.383C181.715 157.328 181.896 157.304 182.077 157.267C182.237 157.233 182.402 157.235 182.561 157.273C182.72 157.311 182.869 157.384 182.996 157.488C183.123 157.591 183.226 157.722 183.297 157.87C183.368 158.018 183.405 158.181 183.406 158.346C183.404 158.493 183.439 158.638 183.508 158.768C183.577 158.898 183.676 159.008 183.798 159.089C183.935 159.177 184.09 159.229 184.251 159.241C184.439 159.278 184.62 159.302 184.801 159.351C184.62 159.399 184.436 159.438 184.251 159.467C184.048 159.505 183.839 159.484 183.647 159.406C183.443 159.318 183.268 159.171 183.145 158.984C183.023 158.796 182.958 158.576 182.959 158.352C182.958 158.206 182.92 158.064 182.848 157.938C182.776 157.812 182.673 157.707 182.548 157.633C182.406 157.551 182.247 157.503 182.084 157.493C181.896 157.456 181.715 157.432 181.528 157.383Z" fill="white"/>
<path d="M210.283 139.065C210.464 139.017 210.645 138.992 210.826 138.956C210.986 138.921 211.152 138.923 211.311 138.962C211.47 139 211.619 139.073 211.747 139.176C211.874 139.279 211.978 139.41 212.049 139.558C212.121 139.707 212.159 139.869 212.161 140.034C212.158 140.182 212.193 140.327 212.261 140.457C212.33 140.588 212.431 140.698 212.553 140.778C212.69 140.865 212.845 140.917 213.006 140.93C213.187 140.967 213.369 140.991 213.55 141.04C213.369 141.095 213.187 141.113 213.006 141.155C212.803 141.193 212.594 141.172 212.402 141.095C212.2 141.005 212.027 140.857 211.906 140.67C211.785 140.483 211.72 140.264 211.72 140.04C211.716 139.895 211.676 139.753 211.603 139.627C211.53 139.501 211.427 139.396 211.303 139.321C211.162 139.237 211.003 139.189 210.839 139.181C210.669 139.139 210.464 139.12 210.283 139.065Z" fill="white"/>
<path d="M235.458 163.689C235.639 163.641 235.826 163.616 236.007 163.58C236.208 163.535 236.418 163.55 236.611 163.622C236.821 163.701 237.002 163.843 237.13 164.028C237.258 164.213 237.328 164.433 237.33 164.658C237.329 164.805 237.365 164.95 237.433 165.08C237.502 165.21 237.601 165.32 237.722 165.402C237.861 165.484 238.015 165.536 238.175 165.554C238.362 165.591 238.543 165.615 238.724 165.664C238.543 165.719 238.362 165.737 238.175 165.78C238.014 165.809 237.849 165.803 237.692 165.76C237.534 165.718 237.387 165.64 237.263 165.533C237.139 165.427 237.04 165.293 236.973 165.143C236.906 164.993 236.873 164.829 236.877 164.664C236.876 164.518 236.837 164.375 236.764 164.249C236.69 164.123 236.586 164.018 236.46 163.945C236.321 163.861 236.163 163.811 236.001 163.799C235.826 163.757 235.639 163.757 235.458 163.689Z" fill="white"/>
<path d="M225.464 148.656C225.645 148.608 225.832 148.583 226.014 148.547C226.173 148.512 226.339 148.514 226.497 148.552C226.656 148.59 226.805 148.664 226.932 148.767C227.059 148.87 227.162 149.001 227.233 149.149C227.304 149.298 227.341 149.46 227.342 149.625C227.339 149.773 227.374 149.918 227.443 150.048C227.511 150.178 227.612 150.289 227.735 150.369C227.87 150.457 228.026 150.509 228.187 150.521C228.369 150.558 228.556 150.582 228.737 150.631C228.556 150.685 228.369 150.71 228.187 150.746C227.985 150.785 227.775 150.764 227.584 150.685C227.379 150.598 227.204 150.451 227.082 150.263C226.959 150.076 226.894 149.856 226.895 149.631C226.894 149.485 226.855 149.342 226.782 149.216C226.709 149.089 226.604 148.985 226.479 148.912C226.339 148.83 226.181 148.782 226.02 148.772C225.832 148.736 225.645 148.711 225.464 148.656Z" fill="white"/>
<path d="M246.707 170.563C246.894 170.515 247.076 170.49 247.257 170.454C247.416 170.419 247.582 170.421 247.741 170.459C247.899 170.497 248.048 170.571 248.175 170.674C248.302 170.777 248.405 170.908 248.476 171.056C248.547 171.205 248.584 171.367 248.585 171.532C248.584 171.679 248.619 171.825 248.687 171.955C248.756 172.084 248.856 172.195 248.978 172.276C249.114 172.363 249.27 172.415 249.431 172.428C249.618 172.465 249.799 172.489 249.98 172.538C249.799 172.586 249.616 172.624 249.431 172.653C249.228 172.692 249.018 172.671 248.827 172.592C248.622 172.505 248.448 172.358 248.326 172.17C248.205 171.983 248.141 171.763 248.144 171.538C248.141 171.393 248.1 171.251 248.027 171.125C247.955 170.999 247.852 170.894 247.728 170.819C247.585 170.738 247.426 170.69 247.263 170.679C247.076 170.643 246.901 170.618 246.707 170.563Z" fill="white"/>
<path d="M196.781 117.117C196.69 117.282 196.576 117.428 196.473 117.586C196.385 117.726 196.268 117.844 196.128 117.932C195.989 118.019 195.833 118.074 195.67 118.092C195.507 118.11 195.342 118.091 195.187 118.036C195.032 117.982 194.892 117.892 194.776 117.775C194.676 117.669 194.549 117.59 194.409 117.547C194.27 117.505 194.122 117.499 193.979 117.531C193.821 117.567 193.674 117.64 193.55 117.745C193.401 117.857 193.246 117.96 193.085 118.055C193.182 117.891 193.291 117.745 193.393 117.586C193.512 117.411 193.677 117.274 193.87 117.19C194.075 117.109 194.298 117.09 194.512 117.136C194.727 117.181 194.924 117.289 195.078 117.446C195.183 117.548 195.312 117.621 195.452 117.658C195.593 117.696 195.74 117.696 195.881 117.659C196.038 117.616 196.183 117.537 196.304 117.428C196.497 117.324 196.642 117.208 196.781 117.117Z" fill="white"/>
<path d="M189.492 104.777C189.402 104.942 189.287 105.088 189.184 105.246C189.097 105.386 188.979 105.504 188.84 105.592C188.701 105.679 188.544 105.734 188.381 105.752C188.218 105.771 188.053 105.751 187.899 105.697C187.744 105.642 187.603 105.552 187.488 105.435C187.387 105.328 187.261 105.249 187.121 105.207C186.981 105.164 186.833 105.159 186.691 105.192C186.533 105.227 186.386 105.3 186.262 105.405C186.112 105.517 185.957 105.621 185.797 105.716C185.893 105.551 186.002 105.405 186.105 105.246C186.223 105.071 186.389 104.934 186.582 104.85C186.786 104.769 187.009 104.75 187.224 104.796C187.438 104.841 187.635 104.949 187.79 105.106C187.894 105.209 188.023 105.282 188.163 105.319C188.304 105.357 188.452 105.357 188.593 105.32C188.749 105.276 188.894 105.197 189.015 105.088C189.184 104.984 189.329 104.869 189.492 104.777Z" fill="white"/>
<path d="M226.37 138.596C226.273 138.767 226.165 138.913 226.062 139.065C225.947 139.242 225.786 139.383 225.597 139.474C225.397 139.562 225.175 139.588 224.96 139.549C224.745 139.51 224.547 139.407 224.389 139.254C224.288 139.149 224.161 139.072 224.022 139.029C223.882 138.986 223.735 138.98 223.592 139.011C223.435 139.046 223.288 139.119 223.163 139.224C223.006 139.327 222.862 139.443 222.698 139.535C222.789 139.37 222.904 139.224 223.006 139.065C223.123 138.89 223.286 138.753 223.477 138.669C223.682 138.591 223.904 138.573 224.119 138.618C224.333 138.664 224.529 138.77 224.685 138.925C224.788 139.027 224.916 139.101 225.056 139.138C225.195 139.176 225.342 139.176 225.482 139.138C225.64 139.097 225.787 139.02 225.911 138.913C226.08 138.809 226.225 138.694 226.37 138.596Z" fill="white"/>
<path d="M207.928 98.6048C207.838 98.7694 207.723 98.9156 207.62 99.074C207.507 99.2485 207.348 99.3878 207.161 99.4762C206.957 99.5691 206.731 99.5985 206.51 99.5605C206.29 99.5225 206.085 99.4189 205.923 99.2629C205.822 99.1567 205.696 99.0781 205.557 99.0344C205.417 98.9907 205.269 98.9834 205.126 99.0131C204.969 99.05 204.822 99.123 204.698 99.2264C204.541 99.33 204.396 99.4457 204.233 99.5432C204.323 99.3726 204.438 99.2264 204.541 99.0679C204.658 98.8929 204.824 98.7571 205.018 98.678C205.222 98.597 205.445 98.5781 205.659 98.6236C205.874 98.669 206.071 98.7769 206.225 98.9339C206.331 99.0404 206.462 99.1177 206.606 99.1582C206.75 99.1988 206.902 99.2013 207.047 99.1654C207.202 99.1198 207.347 99.0408 207.469 98.9339C207.65 98.812 207.765 98.6962 207.928 98.6048Z" fill="white"/>
<path d="M195.139 89.4889C195.048 89.6534 194.933 89.7996 194.831 89.9581C194.717 90.1332 194.558 90.2742 194.372 90.3663C194.167 90.4585 193.94 90.4868 193.72 90.4477C193.499 90.4087 193.295 90.3039 193.134 90.147C193.033 90.0404 192.907 89.9619 192.767 89.9192C192.627 89.8765 192.479 89.871 192.337 89.9032C192.179 89.9377 192.031 90.0109 191.908 90.1165C191.751 90.2201 191.606 90.3359 191.443 90.4273C191.534 90.2628 191.648 90.1165 191.751 89.9581C191.868 89.7815 192.034 89.6438 192.228 89.562C192.432 89.481 192.655 89.4621 192.87 89.5076C193.085 89.5531 193.281 89.661 193.436 89.8179C193.54 89.9207 193.669 89.9944 193.809 90.0318C193.95 90.0692 194.098 90.069 194.239 90.0312C194.396 89.988 194.54 89.9088 194.662 89.7996C194.831 89.6961 194.97 89.5803 195.139 89.4889Z" fill="white"/>
<path d="M207.209 110.207C207.264 110.39 207.282 110.578 207.324 110.761C207.362 110.965 207.347 111.174 207.282 111.371C207.202 111.581 207.062 111.763 206.879 111.892C206.696 112.021 206.479 112.092 206.255 112.096C206.109 112.094 205.965 112.129 205.836 112.198C205.708 112.267 205.598 112.368 205.519 112.492C205.431 112.629 205.379 112.786 205.368 112.949C205.325 113.132 205.307 113.321 205.253 113.503C205.205 113.321 205.181 113.132 205.144 112.949C205.103 112.744 205.124 112.532 205.205 112.34C205.291 112.132 205.436 111.956 205.622 111.832C205.808 111.708 206.027 111.643 206.249 111.645C206.394 111.643 206.536 111.604 206.661 111.53C206.786 111.456 206.89 111.351 206.962 111.224C207.041 111.082 207.088 110.924 207.101 110.761C207.137 110.578 207.161 110.39 207.209 110.207Z" fill="white"/>
<path d="M202.856 142.667C202.904 142.85 202.928 143.039 202.964 143.221C202.998 143.383 202.996 143.549 202.959 143.71C202.921 143.87 202.848 144.02 202.746 144.148C202.643 144.277 202.514 144.38 202.367 144.452C202.22 144.524 202.059 144.561 201.895 144.562C201.749 144.559 201.605 144.594 201.476 144.664C201.347 144.733 201.238 144.834 201.159 144.958C201.074 145.096 201.022 145.253 201.008 145.415C200.972 145.598 200.947 145.787 200.899 145.97C200.845 145.787 200.821 145.598 200.784 145.415C200.746 145.21 200.767 144.999 200.845 144.806C200.932 144.599 201.078 144.424 201.264 144.3C201.449 144.177 201.667 144.111 201.889 144.111C202.034 144.11 202.176 144.071 202.301 143.997C202.426 143.923 202.53 143.818 202.602 143.691C202.684 143.55 202.731 143.391 202.741 143.228C202.777 143.039 202.819 142.85 202.856 142.667Z" fill="white"/>
<path d="M245.089 157.706C245.143 157.889 245.167 158.072 245.203 158.254C245.237 158.416 245.235 158.583 245.198 158.744C245.16 158.904 245.087 159.054 244.985 159.183C244.883 159.312 244.753 159.416 244.606 159.489C244.459 159.561 244.298 159.599 244.135 159.601C243.989 159.598 243.844 159.633 243.715 159.703C243.586 159.772 243.477 159.873 243.398 159.997C243.309 160.134 243.257 160.291 243.247 160.454C243.211 160.637 243.187 160.82 243.138 161.003C243.084 160.82 243.06 160.637 243.024 160.454C242.987 160.249 243.007 160.038 243.084 159.845C243.172 159.64 243.318 159.465 243.504 159.343C243.69 159.22 243.907 159.156 244.129 159.156C244.273 159.152 244.414 159.112 244.538 159.038C244.663 158.965 244.767 158.861 244.841 158.736C244.922 158.592 244.97 158.432 244.98 158.267C245.022 158.072 245.046 157.889 245.089 157.706Z" fill="white"/>
<path d="M225.524 114.704C225.572 114.887 225.597 115.069 225.633 115.258C225.675 115.461 225.661 115.673 225.591 115.868C225.511 116.079 225.371 116.261 225.188 116.392C225.005 116.522 224.788 116.594 224.564 116.599C224.418 116.596 224.274 116.631 224.145 116.7C224.016 116.77 223.907 116.871 223.827 116.995C223.742 117.133 223.691 117.29 223.676 117.452C223.64 117.635 223.616 117.818 223.568 118.007C223.513 117.818 223.495 117.635 223.453 117.452C223.423 117.29 223.43 117.123 223.472 116.964C223.514 116.805 223.591 116.657 223.697 116.532C223.803 116.406 223.935 116.306 224.084 116.239C224.233 116.171 224.395 116.138 224.558 116.142C224.703 116.14 224.844 116.1 224.969 116.026C225.094 115.953 225.198 115.848 225.271 115.721C225.355 115.581 225.403 115.422 225.409 115.258C225.452 115.069 225.47 114.887 225.524 114.704Z" fill="white"/>
<path d="M225.524 166.803C225.573 166.986 225.597 167.169 225.633 167.352C225.667 167.513 225.665 167.68 225.627 167.841C225.589 168.001 225.517 168.152 225.415 168.28C225.312 168.409 225.183 168.514 225.036 168.586C224.889 168.658 224.728 168.696 224.564 168.698C224.418 168.696 224.274 168.73 224.145 168.8C224.016 168.869 223.907 168.971 223.827 169.094C223.741 169.232 223.69 169.389 223.677 169.551C223.64 169.734 223.616 169.917 223.568 170.1C223.513 169.917 223.495 169.734 223.453 169.551C223.419 169.346 223.44 169.136 223.513 168.942C223.603 168.737 223.749 168.563 223.934 168.441C224.12 168.319 224.337 168.254 224.558 168.253C224.702 168.25 224.843 168.209 224.968 168.135C225.092 168.062 225.197 167.958 225.271 167.833C225.356 167.691 225.404 167.53 225.41 167.364C225.452 167.187 225.47 167.004 225.524 166.803Z" fill="white"/>
<path d="M235.458 136.976C235.512 137.159 235.53 137.348 235.566 137.53C235.603 137.691 235.603 137.858 235.566 138.019C235.53 138.18 235.458 138.33 235.355 138.459C235.253 138.588 235.124 138.692 234.976 138.763C234.829 138.835 234.667 138.871 234.504 138.871C234.358 138.869 234.214 138.904 234.085 138.973C233.956 139.042 233.847 139.144 233.767 139.267C233.679 139.404 233.627 139.561 233.616 139.724C233.574 139.907 233.556 140.096 233.501 140.279C233.453 140.096 233.429 139.907 233.393 139.724C233.351 139.519 233.372 139.307 233.453 139.115C233.539 138.908 233.683 138.732 233.868 138.609C234.053 138.485 234.27 138.419 234.492 138.42C234.637 138.419 234.78 138.379 234.906 138.306C235.032 138.232 235.137 138.127 235.21 138C235.289 137.857 235.337 137.699 235.349 137.536C235.385 137.348 235.428 137.159 235.458 136.976Z" fill="white"/>
<path d="M185.121 143.831C185.175 144.014 185.193 144.197 185.229 144.38C185.266 144.541 185.265 144.708 185.229 144.869C185.192 145.03 185.121 145.181 185.018 145.311C184.916 145.44 184.787 145.544 184.639 145.616C184.492 145.688 184.33 145.726 184.167 145.726C184.02 145.723 183.876 145.758 183.747 145.827C183.618 145.896 183.509 145.998 183.43 146.122C183.341 146.259 183.289 146.417 183.279 146.579C183.237 146.762 183.219 146.945 183.164 147.128C183.116 146.945 183.092 146.762 183.056 146.579C183.016 146.375 183.037 146.163 183.116 145.97C183.203 145.765 183.348 145.59 183.532 145.468C183.717 145.345 183.934 145.28 184.155 145.282C184.3 145.278 184.442 145.238 184.567 145.164C184.693 145.091 184.798 144.986 184.873 144.861C184.953 144.717 185.001 144.557 185.012 144.392C185.048 144.197 185.072 144.014 185.121 143.831Z" fill="white"/>
<path d="M186.099 114.704C186.144 114.887 186.181 115.072 186.208 115.258C186.252 115.461 186.24 115.672 186.171 115.868C186.092 116.079 185.952 116.261 185.769 116.392C185.586 116.522 185.369 116.594 185.145 116.599C184.999 116.596 184.854 116.63 184.725 116.7C184.596 116.769 184.487 116.871 184.408 116.995C184.32 117.132 184.268 117.289 184.257 117.452C184.215 117.635 184.197 117.818 184.142 118.007C184.094 117.818 184.07 117.635 184.034 117.452C183.993 117.248 184.012 117.036 184.088 116.843C184.176 116.636 184.321 116.461 184.507 116.337C184.693 116.214 184.91 116.148 185.133 116.148C185.278 116.146 185.42 116.106 185.546 116.032C185.672 115.959 185.777 115.854 185.851 115.728C185.93 115.585 185.978 115.427 185.99 115.264C186.026 115.069 186.051 114.887 186.099 114.704Z" fill="white"/>
<path d="M196.63 95.7712C196.678 95.954 196.703 96.1369 196.739 96.3258C196.781 96.5289 196.767 96.7399 196.697 96.9351C196.617 97.1463 196.477 97.3288 196.294 97.4591C196.111 97.5894 195.894 97.6616 195.67 97.6663C195.524 97.6635 195.38 97.6985 195.251 97.7678C195.122 97.8371 195.012 97.9385 194.933 98.0624C194.848 98.2007 194.797 98.3573 194.782 98.5194C194.746 98.7022 194.722 98.885 194.674 99.0739C194.619 98.885 194.601 98.7022 194.559 98.5194C194.522 98.3146 194.543 98.1034 194.619 97.9101C194.708 97.7053 194.855 97.5312 195.04 97.409C195.226 97.2867 195.442 97.2215 195.664 97.2215C195.809 97.2193 195.95 97.1794 196.075 97.1058C196.2 97.0321 196.304 96.9271 196.376 96.801C196.461 96.661 196.509 96.5017 196.515 96.3379C196.558 96.1186 196.576 95.954 196.63 95.7712Z" fill="white"/>
<path d="M193.804 125.038C193.852 125.227 193.877 125.41 193.913 125.593C193.947 125.754 193.945 125.921 193.907 126.082C193.869 126.243 193.797 126.393 193.694 126.522C193.592 126.65 193.463 126.755 193.316 126.827C193.169 126.899 193.008 126.938 192.844 126.939C192.698 126.937 192.554 126.972 192.425 127.041C192.296 127.11 192.187 127.212 192.107 127.336C192.021 127.473 191.97 127.63 191.956 127.793C191.92 127.975 191.896 128.158 191.848 128.341C191.793 128.158 191.769 127.975 191.733 127.793C191.696 127.588 191.717 127.377 191.793 127.183C191.882 126.979 192.029 126.804 192.214 126.682C192.4 126.56 192.616 126.495 192.838 126.495C192.982 126.491 193.123 126.45 193.248 126.377C193.372 126.303 193.476 126.199 193.551 126.074C193.631 125.93 193.679 125.77 193.689 125.605C193.726 125.41 193.762 125.227 193.804 125.038Z" fill="white"/>
<path d="M219.183 128.975C219.232 129.158 219.256 129.347 219.292 129.53C219.326 129.691 219.324 129.858 219.287 130.018C219.249 130.178 219.176 130.328 219.074 130.456C218.971 130.585 218.842 130.688 218.695 130.76C218.548 130.832 218.387 130.869 218.223 130.87C218.078 130.869 217.934 130.904 217.805 130.973C217.676 131.042 217.567 131.143 217.487 131.266C217.402 131.405 217.351 131.561 217.336 131.723C217.299 131.906 217.275 132.095 217.227 132.278C217.173 132.095 217.155 131.906 217.112 131.723C217.074 131.518 217.095 131.307 217.173 131.114C217.26 130.908 217.406 130.732 217.592 130.608C217.777 130.485 217.995 130.419 218.217 130.419C218.362 130.418 218.504 130.379 218.629 130.305C218.754 130.231 218.858 130.126 218.93 129.999C219.014 129.859 219.062 129.699 219.069 129.536C219.123 129.347 219.123 129.158 219.183 128.975Z" fill="white"/>
<path d="M195.724 161.843C195.772 162.032 195.797 162.215 195.833 162.398C195.869 162.559 195.869 162.726 195.832 162.887C195.796 163.048 195.724 163.199 195.622 163.328C195.52 163.458 195.39 163.562 195.243 163.634C195.095 163.706 194.934 163.744 194.77 163.744C194.624 163.74 194.479 163.774 194.349 163.843C194.22 163.913 194.111 164.015 194.033 164.14C193.946 164.276 193.892 164.43 193.876 164.591C193.849 164.778 193.813 164.963 193.768 165.146C193.719 164.963 193.695 164.78 193.659 164.591C193.619 164.387 193.638 164.175 193.713 163.982C193.8 163.776 193.946 163.6 194.132 163.478C194.318 163.355 194.536 163.291 194.758 163.293C194.903 163.29 195.045 163.249 195.171 163.176C195.296 163.102 195.401 162.998 195.477 162.873C195.555 162.728 195.602 162.568 195.615 162.404C195.652 162.215 195.676 162.032 195.724 161.843Z" fill="white"/>
<path d="M214.83 119.682C214.926 119.518 215.041 119.371 215.144 119.213C215.255 119.037 215.414 118.897 215.603 118.811C215.803 118.723 216.024 118.696 216.238 118.734C216.453 118.772 216.652 118.873 216.81 119.024C216.913 119.13 217.04 119.209 217.18 119.253C217.321 119.296 217.47 119.304 217.614 119.274C217.769 119.237 217.914 119.164 218.036 119.061C218.193 118.951 218.338 118.841 218.507 118.744C218.411 118.914 218.296 119.061 218.193 119.219C218.077 119.392 217.913 119.528 217.722 119.609C217.518 119.688 217.295 119.707 217.081 119.661C216.867 119.616 216.67 119.509 216.515 119.353C216.41 119.253 216.282 119.181 216.143 119.143C216.004 119.106 215.857 119.105 215.717 119.14C215.562 119.185 215.418 119.264 215.295 119.371C215.144 119.475 214.999 119.591 214.83 119.682Z" fill="white"/>
<path d="M200.03 133.217C200.12 133.052 200.235 132.906 200.338 132.748C200.426 132.608 200.543 132.49 200.682 132.402C200.822 132.315 200.978 132.26 201.141 132.242C201.304 132.223 201.469 132.242 201.624 132.297C201.778 132.352 201.919 132.442 202.035 132.559C202.135 132.666 202.261 132.745 202.401 132.787C202.541 132.83 202.689 132.835 202.832 132.802C202.989 132.767 203.136 132.694 203.261 132.589C203.41 132.477 203.565 132.373 203.725 132.278C203.629 132.443 203.52 132.589 203.417 132.748C203.325 132.884 203.204 132.998 203.062 133.081C202.921 133.164 202.762 133.214 202.599 133.228C202.436 133.241 202.272 133.217 202.119 133.159C201.966 133.1 201.828 133.007 201.715 132.888C201.611 132.786 201.483 132.713 201.344 132.675C201.204 132.638 201.057 132.638 200.918 132.674C200.762 132.72 200.618 132.799 200.495 132.906C200.338 133.01 200.193 133.125 200.03 133.217Z" fill="white"/>
<path d="M189.994 153.154C190.091 152.983 190.205 152.837 190.308 152.685C190.396 152.545 190.514 152.427 190.653 152.339C190.792 152.252 190.949 152.197 191.112 152.179C191.275 152.16 191.439 152.179 191.594 152.234C191.749 152.289 191.889 152.379 192.005 152.496C192.106 152.601 192.233 152.679 192.372 152.722C192.512 152.764 192.66 152.77 192.802 152.739C192.96 152.704 193.107 152.631 193.231 152.526C193.38 152.414 193.535 152.31 193.696 152.215C193.599 152.38 193.49 152.526 193.388 152.685C193.296 152.821 193.175 152.935 193.034 153.018C192.893 153.101 192.735 153.151 192.573 153.164C192.41 153.178 192.246 153.154 192.094 153.096C191.941 153.037 191.803 152.944 191.691 152.825C191.587 152.722 191.458 152.649 191.317 152.612C191.176 152.574 191.029 152.574 190.888 152.611C190.731 152.652 190.587 152.729 190.465 152.837C190.308 152.947 190.139 153.056 189.994 153.154Z" fill="white"/>
<path d="M194.329 173.866C194.426 173.701 194.541 173.555 194.643 173.397C194.755 173.22 194.914 173.081 195.102 172.994C195.302 172.908 195.523 172.882 195.738 172.92C195.952 172.958 196.151 173.058 196.31 173.208C196.411 173.314 196.537 173.393 196.676 173.437C196.816 173.481 196.964 173.488 197.107 173.457C197.265 173.419 197.412 173.344 197.536 173.238C197.687 173.135 197.832 173.025 198.001 172.927C197.904 173.098 197.795 173.244 197.693 173.397C197.575 173.572 197.409 173.709 197.216 173.793C197.011 173.872 196.789 173.89 196.574 173.845C196.36 173.799 196.163 173.692 196.008 173.537C195.904 173.436 195.776 173.364 195.637 173.327C195.497 173.29 195.351 173.289 195.211 173.323C195.055 173.369 194.911 173.448 194.788 173.555C194.643 173.659 194.498 173.774 194.329 173.866Z" fill="white"/>
<path d="M213.743 151.101C213.834 150.936 213.948 150.79 214.051 150.632C214.164 150.457 214.323 150.318 214.51 150.229C214.714 150.136 214.941 150.107 215.161 150.145C215.382 150.183 215.586 150.287 215.748 150.443C215.849 150.549 215.975 150.628 216.114 150.672C216.254 150.716 216.402 150.723 216.545 150.692C216.702 150.654 216.848 150.581 216.974 150.479C217.125 150.376 217.27 150.26 217.439 150.162C217.342 150.333 217.233 150.479 217.131 150.638C217.014 150.813 216.848 150.948 216.654 151.028C216.45 151.109 216.227 151.127 216.012 151.082C215.797 151.037 215.601 150.929 215.446 150.772C215.34 150.671 215.212 150.599 215.071 150.562C214.931 150.525 214.784 150.524 214.643 150.558C214.487 150.604 214.343 150.683 214.22 150.79C214.051 150.894 213.906 151.009 213.743 151.101Z" fill="white"/>
<path d="M227.1 159.35C227.191 159.186 227.305 159.04 227.408 158.881C227.522 158.708 227.681 158.569 227.867 158.479C228.067 158.393 228.288 158.367 228.502 158.405C228.717 158.443 228.916 158.542 229.075 158.692C229.176 158.798 229.302 158.877 229.441 158.921C229.581 158.964 229.729 158.972 229.872 158.942C230.029 158.905 230.176 158.832 230.301 158.729C230.458 158.625 230.602 158.509 230.765 158.412C230.675 158.583 230.56 158.729 230.457 158.887C230.342 159.064 230.175 159.2 229.98 159.277C229.776 159.358 229.553 159.377 229.339 159.332C229.124 159.286 228.927 159.178 228.773 159.021C228.667 158.921 228.538 158.849 228.398 158.812C228.258 158.774 228.111 158.773 227.97 158.808C227.814 158.854 227.67 158.933 227.547 159.04C227.408 159.143 227.263 159.259 227.1 159.35Z" fill="white"/>
<path d="M204.631 165.614C204.722 165.45 204.836 165.304 204.939 165.145C205.05 164.969 205.21 164.829 205.398 164.743C205.602 164.65 205.829 164.621 206.049 164.659C206.27 164.697 206.474 164.8 206.636 164.956C206.737 165.063 206.863 165.142 207.002 165.186C207.142 165.229 207.29 165.236 207.433 165.206C207.591 165.168 207.738 165.093 207.862 164.987C208.013 164.883 208.158 164.773 208.327 164.676C208.23 164.847 208.121 164.993 208.019 165.145C207.902 165.322 207.736 165.46 207.542 165.541C207.338 165.622 207.114 165.641 206.9 165.596C206.685 165.55 206.489 165.442 206.334 165.285C206.228 165.185 206.1 165.113 205.959 165.076C205.819 165.038 205.672 165.037 205.531 165.072C205.375 165.118 205.231 165.197 205.108 165.304C204.939 165.407 204.794 165.523 204.631 165.614Z" fill="white"/>
<path d="M233.616 173.866C233.712 173.702 233.821 173.555 233.924 173.397C234.036 173.222 234.195 173.083 234.383 172.995C234.587 172.902 234.813 172.872 235.034 172.91C235.254 172.948 235.459 173.052 235.621 173.208C235.722 173.314 235.848 173.393 235.987 173.437C236.127 173.48 236.275 173.488 236.418 173.458C236.575 173.421 236.722 173.348 236.846 173.245C237.003 173.135 237.148 173.025 237.311 172.928C237.221 173.098 237.106 173.245 237.003 173.403C236.887 173.576 236.723 173.712 236.532 173.793C236.328 173.873 236.105 173.892 235.891 173.846C235.676 173.801 235.48 173.693 235.325 173.537C235.22 173.437 235.092 173.365 234.953 173.328C234.814 173.291 234.667 173.289 234.528 173.324C234.369 173.368 234.223 173.447 234.099 173.555C233.918 173.659 233.773 173.775 233.616 173.866Z" fill="white"/>
<path d="M236.883 151.57C236.973 151.4 237.088 151.253 237.191 151.095C237.305 150.922 237.463 150.783 237.649 150.693C237.853 150.6 238.08 150.57 238.301 150.608C238.521 150.646 238.726 150.75 238.887 150.906C238.988 151.012 239.115 151.091 239.254 151.135C239.393 151.178 239.541 151.186 239.684 151.156C239.842 151.119 239.988 151.046 240.113 150.943C240.27 150.839 240.415 150.723 240.578 150.626C240.488 150.796 240.373 150.943 240.27 151.101C240.155 151.277 239.988 151.413 239.793 151.491C239.589 151.572 239.366 151.591 239.151 151.545C238.937 151.5 238.74 151.392 238.585 151.235C238.481 151.135 238.353 151.063 238.214 151.026C238.075 150.989 237.928 150.987 237.788 151.022C237.63 151.066 237.484 151.145 237.36 151.253C237.191 151.363 237.046 151.479 236.883 151.57Z" fill="white"/>
<path d="M183.949 168.473C184.046 168.302 184.155 168.156 184.257 167.997C184.372 167.824 184.53 167.685 184.716 167.595C184.92 167.502 185.147 167.473 185.368 167.511C185.588 167.549 185.792 167.652 185.954 167.808C186.055 167.915 186.181 167.993 186.321 168.037C186.46 168.081 186.608 168.088 186.751 168.058C186.909 168.021 187.055 167.948 187.18 167.845C187.337 167.741 187.482 167.626 187.645 167.528C187.554 167.699 187.44 167.845 187.337 168.003C187.222 168.178 187.058 168.314 186.866 168.393C186.662 168.473 186.439 168.492 186.224 168.447C186.01 168.401 185.813 168.294 185.658 168.137C185.554 168.037 185.426 167.966 185.286 167.929C185.147 167.893 185.001 167.893 184.861 167.93C184.702 167.969 184.555 168.047 184.433 168.156C184.257 168.259 184.1 168.375 183.949 168.473Z" fill="white"/>
<path d="M182.289 133.686C182.379 133.521 182.494 133.375 182.597 133.217C182.711 133.042 182.869 132.901 183.055 132.808C183.26 132.716 183.487 132.688 183.708 132.727C183.928 132.766 184.132 132.871 184.293 133.028C184.394 133.134 184.52 133.213 184.66 133.256C184.8 133.298 184.948 133.304 185.09 133.272C185.25 133.24 185.397 133.166 185.519 133.058C185.676 132.955 185.821 132.839 185.984 132.748C185.89 132.909 185.787 133.066 185.676 133.217C185.56 133.392 185.397 133.529 185.205 133.613C185.001 133.693 184.778 133.711 184.564 133.666C184.349 133.621 184.152 133.513 183.997 133.357C183.894 133.256 183.766 133.183 183.626 133.146C183.487 133.108 183.34 133.108 183.2 133.144C183.042 133.188 182.896 133.267 182.772 133.375C182.603 133.479 182.458 133.595 182.289 133.686Z" fill="white"/>
<path d="M201.992 87.271C201.769 88.4105 196.672 95.9116 191.551 95.8445C189.885 95.8141 189.619 86.6251 189.619 86.6251L189.444 85.9548L187.029 76.5221L197.856 68.9844L199.426 67.9851C199.426 67.9851 199.915 70.6114 200.5 73.8836C200.5 74.0359 200.555 74.1883 200.579 74.3528C200.603 74.5173 200.657 74.7062 200.682 74.8829C200.778 75.3704 200.869 75.8701 200.953 76.3697C201.02 76.7475 201.08 77.1132 201.134 77.5153C201.189 77.9175 201.249 78.3075 201.316 78.734C201.733 81.5608 201.959 84.4131 201.992 87.271Z" fill="#EB9481"/>
<path d="M200.5 73.8836C199.635 76.5845 198.199 79.0632 196.289 81.1477C194.38 83.2321 192.044 84.8725 189.444 85.9548L187.029 76.5221L197.856 68.9844L199.426 67.9851C199.426 67.9851 199.915 70.6114 200.5 73.8836Z" fill="#24221E"/>
<path d="M173.756 62.5134C173.31 79.6117 183.418 81.8115 187.041 81.9029C190.356 81.9882 201.66 81.8541 203.858 64.8959C206.056 47.9378 198.315 42.35 190.743 41.7407C183.17 41.1313 174.203 45.4151 173.756 62.5134Z" fill="#EB9481"/>
<path d="M176.329 57.3398C176.728 57.2728 177.078 57.1509 177.464 57.0473C177.877 56.9965 178.262 56.8127 178.563 56.5233C178.64 56.4134 178.679 56.2809 178.674 56.1464C178.668 56.0119 178.619 55.883 178.533 55.7799C178.332 55.6029 178.088 55.4831 177.826 55.4328C177.564 55.3824 177.293 55.4034 177.042 55.4935C176.507 55.5955 176.029 55.8954 175.701 56.3344C175.632 56.439 175.595 56.5614 175.594 56.6869C175.593 56.8124 175.627 56.9355 175.693 57.0417C175.76 57.1478 175.855 57.2324 175.968 57.2853C176.08 57.3382 176.206 57.3571 176.329 57.3398Z" fill="#24221E"/>
<path d="M187.657 59.8382C187.267 59.795 186.88 59.7299 186.497 59.6432C186.084 59.6319 185.685 59.4842 185.362 59.2228C185.275 59.1203 185.225 58.9918 185.218 58.8573C185.212 58.7228 185.25 58.5899 185.326 58.4794C185.51 58.2846 185.743 58.143 186 58.0691C186.257 57.9952 186.529 57.9917 186.787 58.0589C187.329 58.1152 187.831 58.3738 188.194 58.784C188.273 58.8814 188.323 59.0001 188.336 59.1254C188.349 59.2507 188.326 59.3772 188.268 59.4892C188.211 59.6012 188.123 59.694 188.014 59.756C187.906 59.818 187.781 59.8466 187.657 59.8382Z" fill="#24221E"/>
<path d="M178.828 62.9031C178.828 62.8605 178.744 62.9641 178.744 63.0128C178.859 64.1706 178.798 65.5172 177.784 65.9743C177.748 65.9743 177.784 66.0474 177.784 66.0413C179.052 65.7732 179.118 63.9817 178.828 62.9031Z" fill="#24221E"/>
<path d="M177.718 61.7573C175.858 61.7573 175.96 65.4987 177.687 65.517C179.414 65.5353 179.269 61.7756 177.718 61.7573Z" fill="#24221E"/>
<path d="M176.951 62.0316C176.661 62.2388 176.383 62.6044 176.027 62.641C175.671 62.6775 175.308 62.2815 175.037 61.8976C175.037 61.861 174.982 61.8976 174.982 61.9402C174.982 62.6593 175.242 63.4027 175.924 63.5184C176.607 63.6342 176.993 63.0005 177.132 62.2997C177.174 62.1474 177.066 61.9463 176.951 62.0316Z" fill="#24221E"/>
<path d="M186.407 72.8539C186.123 73.1159 185.833 73.4632 185.41 73.5059C184.989 73.4776 184.578 73.3615 184.203 73.1647C184.194 73.1606 184.185 73.1594 184.176 73.1612C184.167 73.1629 184.159 73.1676 184.153 73.1745C184.147 73.1814 184.143 73.1901 184.142 73.1993C184.141 73.2085 184.144 73.2177 184.148 73.2256C184.306 73.4614 184.524 73.6495 184.779 73.7697C185.034 73.89 185.317 73.9378 185.598 73.9081C185.836 73.857 186.054 73.7342 186.222 73.5558C186.39 73.3774 186.501 73.1518 186.54 72.9087C186.515 72.8417 186.449 72.8173 186.407 72.8539Z" fill="#24221E"/>
<path d="M180.634 68.1801C180.634 68.1801 180.501 69.9229 180.543 70.7394C182.125 70.6518 183.711 70.7913 185.253 71.1538C185.616 71.2513 185.592 70.9527 185.181 70.7333C183.958 70.0902 182.572 69.8313 181.202 69.9899C181.129 69.7644 181.461 67.3088 181.334 67.3088C180.71 67.4012 180.101 67.5775 179.523 67.8328C179.704 64.1767 180.465 60.6181 180.592 56.9925C180.593 56.9659 180.586 56.9396 180.57 56.9185C180.553 56.8974 180.53 56.8828 180.505 56.8776C180.479 56.8724 180.452 56.8768 180.429 56.8901C180.406 56.9034 180.389 56.9246 180.38 56.9498C179.318 60.6486 179.016 64.8287 178.732 68.5823C178.696 69.0454 180.32 68.3386 180.634 68.1801Z" fill="#24221E"/>
<path d="M188.695 62.9642C188.017 62.6959 187.275 62.6365 186.563 62.7936C186.182 62.8811 185.821 63.0425 185.501 63.2689C185.17 63.5177 184.9 63.8385 184.71 64.2073L184.353 64.8715L185.084 64.7923C185.598 64.7373 186.116 64.7373 186.63 64.7923C187.166 64.8396 187.682 65.0241 188.127 65.3285C187.836 64.7902 187.345 64.3896 186.763 64.2134C186.195 64.0241 185.595 63.9556 184.999 64.0123L185.374 64.6217C185.686 64.0929 186.168 63.6868 186.739 63.47C187.367 63.2201 188.025 63.0502 188.695 62.9642Z" fill="#24221E"/>
<path d="M186.6 65.9927C186.053 65.8632 185.527 65.6581 185.036 65.3833C184.921 65.3102 184.48 64.9751 184.505 64.8776C184.567 64.5942 184.664 64.3199 184.794 64.061C184.591 64.2911 184.437 64.5607 184.342 64.8532C184.375 65.0143 184.444 65.1659 184.542 65.2975C184.64 65.4291 184.765 65.5374 184.909 65.6149C185.428 65.8932 186.013 66.0237 186.6 65.9927Z" fill="#24221E"/>
<path d="M182.591 70.6178C182.591 70.6178 183.641 72.1412 184.849 72.324C186.238 72.5434 186.401 71.282 184.849 70.563C184.064 70.1913 182.591 70.6178 182.591 70.6178Z" fill="#24221E"/>
<path d="M184.843 72.3539C184.317 72.2437 183.833 71.9836 183.448 71.6044C183.738 71.1718 184.402 70.6904 185.894 71.5008C186.111 72.0127 185.725 72.4636 184.843 72.3539Z" fill="#FF99BA"/>
<path d="M203.755 65.3039C200.966 65.6574 200.036 59.765 200.036 59.765C200.036 59.765 194.348 60.0574 192.071 51.8922C192.353 54.359 193.344 56.6887 194.921 58.595C194.921 58.595 184.831 57.9857 180.199 49.7412C180.199 49.7412 182.095 53.9761 183.75 55.4325C183.75 55.4325 179.481 54.4575 177.265 51.1061C177.265 51.1061 175.743 56.0845 174.457 57.5043C174.457 57.5043 174.016 39.7661 190.374 40.8508C190.374 40.8508 200.591 41.0336 204.643 48.9917C208.695 56.9498 203.755 65.3039 203.755 65.3039Z" fill="#24221E"/>
<path d="M201.147 66.1331C201.147 66.1331 204.522 60.5819 206.998 61.764C209.474 62.9462 207.155 70.8433 204.408 72.0681C204.066 72.2505 203.691 72.3612 203.306 72.3935C202.921 72.4258 202.533 72.379 202.167 72.256C201.8 72.133 201.462 71.9364 201.172 71.6779C200.883 71.4194 200.648 71.1044 200.483 70.7519L201.147 66.1331Z" fill="#EB9481"/>
<path d="M206.28 64.0122C206.322 64.0122 206.334 64.067 206.28 64.0853C204.353 65.0115 203.43 66.9188 202.814 68.8809C203.357 68.107 204.13 67.6622 205.15 68.2716C205.205 68.302 205.15 68.3873 205.102 68.3812C204.749 68.2899 204.377 68.3118 204.037 68.444C203.697 68.5762 203.407 68.8119 203.206 69.1186C202.868 69.6293 202.588 70.1772 202.373 70.7516C202.288 70.9344 201.968 70.8613 202.023 70.6541C202.019 70.6381 202.019 70.6214 202.023 70.6054C201.853 68.0888 203.593 64.4327 206.28 64.0122Z" fill="#24221E"/>
<path d="M202.82 71.178C202.828 71.3358 202.883 71.4874 202.977 71.6137C203.071 71.74 203.2 71.8353 203.348 71.8874C203.496 71.9396 203.656 71.9463 203.808 71.9067C203.959 71.8671 204.096 71.783 204.2 71.6651C204.304 71.5471 204.371 71.4006 204.393 71.2441C204.414 71.0876 204.39 70.9281 204.321 70.7859C204.253 70.6437 204.144 70.5251 204.009 70.4452C203.874 70.3653 203.719 70.3277 203.562 70.3371C203.459 70.3425 203.357 70.3687 203.263 70.414C203.17 70.4593 203.086 70.5229 203.017 70.6011C202.948 70.6793 202.895 70.7706 202.861 70.8696C202.827 70.9686 202.813 71.0735 202.82 71.178Z" fill="white"/>
<path d="M204.716 69.8559C204.721 69.9572 204.755 70.0548 204.815 70.1362C204.875 70.2176 204.958 70.2791 205.052 70.3131C205.147 70.347 205.25 70.3518 205.347 70.3268C205.445 70.3018 205.532 70.2481 205.6 70.1726C205.667 70.0972 205.71 70.0032 205.724 69.9028C205.738 69.8024 205.723 69.7 205.679 69.6086C205.636 69.5172 205.566 69.441 205.479 69.3895C205.393 69.3381 205.293 69.3138 205.193 69.3197C205.126 69.3228 205.061 69.3392 205.001 69.3679C204.941 69.3967 204.887 69.4372 204.843 69.4871C204.798 69.537 204.764 69.5953 204.742 69.6586C204.721 69.7219 204.711 69.789 204.716 69.8559Z" fill="white"/>
<path d="M149.766 103.111L140.996 105.167L147.304 132.565L156.074 130.509L149.766 103.111Z" fill="white"/>
<path d="M128.389 30.3883C121.062 32.1085 114.405 35.9821 109.259 41.5195C104.114 47.0569 100.71 54.0095 99.4797 61.4984C98.249 68.9873 99.2463 76.6763 102.345 83.5934C105.444 90.5104 110.506 96.3451 116.891 100.36C123.275 104.374 130.696 106.389 138.215 106.148C145.734 105.908 153.013 103.423 159.133 99.0088C165.253 94.5943 169.938 88.4479 172.597 81.3467C175.256 74.2455 175.768 66.5082 174.07 59.113C172.942 54.199 170.865 49.5575 167.958 45.454C165.051 41.3504 161.371 37.8652 157.129 35.1975C152.886 32.5299 148.165 30.732 143.233 29.9068C138.302 29.0816 133.258 29.2452 128.389 30.3883ZM143.799 97.3374C138.01 98.6962 131.952 98.292 126.39 96.1758C120.829 94.0596 116.015 90.3266 112.556 85.4489C109.097 80.5713 107.15 74.7681 106.96 68.7734C106.77 62.7787 108.346 56.8618 111.489 51.7712C114.632 46.6806 119.2 42.6449 124.616 40.1746C130.033 37.7043 136.053 36.9104 141.916 37.8933C147.779 38.8762 153.222 41.5917 157.556 45.6964C161.889 49.8011 164.919 55.1106 166.262 60.9532C168.062 68.7838 166.707 77.0152 162.495 83.838C158.283 90.6607 151.558 95.5163 143.799 97.3374Z" fill="#C8C8C7"/>
<path d="M152.759 122.756L146.877 124.135C144.84 124.612 143.573 126.666 144.046 128.721L151.569 161.395C152.042 163.451 154.077 164.73 156.114 164.252L161.996 162.873C164.032 162.396 165.3 160.342 164.827 158.287L157.304 125.613C156.83 123.557 154.796 122.278 152.759 122.756Z" fill="#24221E"/>
<g opacity="0.3">
<path d="M166.262 60.9412C167.605 66.7815 167.201 72.8923 165.102 78.501C163.002 84.1096 159.302 88.9643 154.469 92.4511C149.636 95.9379 143.887 97.9003 137.949 98.0901C132.011 98.28 126.15 96.6888 121.108 93.5177C116.066 90.3466 112.069 85.7381 109.622 80.2747C107.175 74.8114 106.389 68.7387 107.362 62.8243C108.335 56.91 111.024 51.4197 115.09 47.0475C119.155 42.6754 124.413 39.6177 130.201 38.2612C134.044 37.3595 138.026 37.2309 141.919 37.8828C145.812 38.5347 149.54 39.9543 152.889 42.0606C156.238 44.1668 159.143 46.9184 161.437 50.158C163.732 53.3977 165.372 57.0619 166.262 60.9412Z" fill="white"/>
<path d="M166.999 69.4839C166.556 77.4646 163.008 84.9461 157.129 90.3021C151.249 95.6582 143.512 98.4557 135.599 98.0867L166.999 69.4839Z" fill="white"/>
<path d="M153.177 42.2522L110.165 81.4273C109.094 79.2761 108.284 77.0033 107.749 74.6574C107.123 71.9698 106.871 69.2073 107 66.4495L138.757 37.5237C143.885 37.8282 148.85 39.4563 153.177 42.2522Z" fill="white"/>
<path d="M165.435 58.0345L124.464 95.345C122.674 94.5147 120.968 93.5085 119.374 92.3409L163.002 52.6113C163.993 54.3311 164.808 56.1482 165.435 58.0345Z" fill="white"/>
<path d="M156.48 44.7264L112.242 85.0044C112.037 84.6997 111.831 84.395 111.638 84.0843L155.622 44.0317C155.924 44.2511 156.208 44.4766 156.48 44.7264Z" fill="white"/>
<path d="M128.739 38.6448L109.114 56.5109C109.446 55.6639 109.82 54.8352 110.231 54.0308L126.191 39.4918C127.018 39.181 127.869 38.8946 128.739 38.6448Z" fill="white"/>
</g>
<path d="M115.672 73.0433C115.669 73.0027 115.669 72.962 115.672 72.9214C115.563 72.312 115.751 73.5003 115.672 73.1042C115.594 72.7081 115.551 72.1658 115.515 71.6966C115.376 70.0421 115.376 68.3788 115.515 66.7243C115.515 66.4867 115.557 66.2551 115.576 66.0236C115.576 65.9504 115.509 66.572 115.576 66.0784L115.63 65.6519C115.702 65.1034 115.793 64.555 115.902 64.0127C116.131 62.817 116.439 61.6383 116.825 60.4846C116.916 60.2104 117.019 59.9362 117.115 59.662C117.242 59.2903 116.946 60.0702 117.146 59.5827L117.345 59.1014C117.604 58.492 117.888 57.8827 118.19 57.2733C118.492 56.664 118.885 56.012 119.265 55.4087C119.446 55.1284 119.627 54.8542 119.815 54.58C120.135 54.1108 119.664 54.7689 119.911 54.4398L120.267 53.9646C121.367 52.5696 122.596 51.2841 123.939 50.1257C123.939 50.1257 124.217 49.9002 124.011 50.0708C123.806 50.2414 124.12 49.9794 124.156 49.9489L124.76 49.4676C125.165 49.1629 125.575 48.8582 125.998 48.5901C126.883 47.9929 127.798 47.4417 128.739 46.9388C128.992 46.7787 129.21 46.5701 129.382 46.3249C129.555 46.0796 129.677 45.8026 129.744 45.5095C129.81 45.2164 129.818 44.913 129.768 44.6166C129.718 44.3203 129.611 44.0368 129.452 43.7823C129.293 43.5279 129.087 43.3074 128.844 43.1336C128.601 42.9597 128.326 42.8359 128.036 42.7691C127.745 42.7023 127.444 42.6939 127.151 42.7444C126.857 42.7949 126.576 42.9032 126.324 43.0633C120.358 46.2746 115.455 51.3443 112.991 57.7364C111.323 62.035 110.612 66.6511 110.908 71.2579C110.968 72.2811 111.097 73.299 111.294 74.3046C111.466 74.8846 111.859 75.3723 112.386 75.6612C112.913 75.9501 113.532 76.0166 114.108 75.8463C114.675 75.6581 115.148 75.2587 115.432 74.7297C115.716 74.2006 115.789 73.5821 115.636 73.0006L115.672 73.0433Z" fill="white"/>
<path d="M117.677 79.5267C117.802 79.9517 117.799 80.4046 117.669 80.8281C117.539 81.2516 117.287 81.6267 116.946 81.9059C116.605 82.1852 116.189 82.3561 115.752 82.3971C115.314 82.4381 114.875 82.3473 114.488 82.1362C114.102 81.9251 113.786 81.6031 113.581 81.211C113.376 80.819 113.291 80.3743 113.336 79.9333C113.381 79.4923 113.555 79.0748 113.835 78.7334C114.116 78.392 114.49 78.1422 114.911 78.0155C115.191 77.9304 115.485 77.902 115.776 77.932C116.067 77.962 116.349 78.0497 116.606 78.1902C116.863 78.3307 117.09 78.5211 117.274 78.7504C117.457 78.9798 117.594 79.2436 117.677 79.5267Z" fill="white"/>
<path d="M213.767 98.7389C219.202 118.567 221.811 138.475 218.803 148.742C216.883 155.286 212.252 159.71 209.305 161.173C202.415 164.61 179.559 159.735 164.668 156.712C161.009 155.969 169.638 126.214 173.315 127.793C178.75 130.114 195.386 133.246 195.845 133.399C196.829 133.74 198.864 112.224 200.301 99.6103C202.288 82.0367 210.633 87.2892 213.767 98.7389Z" fill="#EB9481"/>
<path d="M136.052 122.126C134.434 124.789 136.535 127.226 136.535 127.226C135.156 127.922 134.062 129.084 133.443 130.51C132.471 133.07 136.022 135.733 136.022 135.733C134.741 136.755 133.795 138.144 133.311 139.718C132.622 142.265 135.829 145.464 135.829 145.464C135.167 147.059 135.096 148.841 135.629 150.485C137.23 154.817 144.083 156.237 148.431 157.188C152.779 158.138 165.991 156.7 168.539 156.688L174.789 128.579C174.789 128.579 156.486 118.738 151.239 118.36C146.776 118.055 137.87 119.14 136.052 122.126Z" fill="#EB9481"/>
<path d="M136.825 126.818C141.655 126.02 146.402 126.69 151.202 127.086C151.225 127.086 151.246 127.095 151.262 127.111C151.278 127.127 151.287 127.149 151.287 127.172C151.287 127.194 151.278 127.216 151.262 127.232C151.246 127.248 151.225 127.257 151.202 127.257C146.426 126.806 141.625 127.312 136.849 127.056C136.821 127.053 136.795 127.041 136.775 127.021C136.756 127.001 136.743 126.975 136.74 126.947C136.738 126.919 136.744 126.891 136.76 126.867C136.775 126.844 136.798 126.827 136.825 126.818Z" fill="#24221E"/>
<path d="M136.197 135.386C137.304 135.308 138.417 135.38 139.506 135.599C140.669 135.754 141.831 135.928 142.99 136.123C145.313 136.529 147.623 136.978 149.922 137.47C150.025 137.47 150.019 137.653 149.922 137.634C147.603 137.251 145.285 136.903 142.96 136.617C141.794 136.471 140.629 136.343 139.457 136.215C138.349 136.169 137.25 136 136.179 135.709C136.146 135.696 136.118 135.672 136.099 135.642C136.08 135.612 136.071 135.576 136.073 135.541C136.075 135.505 136.088 135.471 136.11 135.443C136.132 135.415 136.162 135.395 136.197 135.386Z" fill="#24221E"/>
<path d="M135.925 145.476C136.867 145.312 137.966 145.653 138.896 145.83C139.953 146.031 141.003 146.22 142.06 146.409C144.174 146.786 146.287 147.158 148.413 147.463C148.515 147.463 148.503 147.646 148.413 147.627C146.251 147.335 144.089 147.067 141.933 146.756C140.877 146.604 139.814 146.439 138.757 146.274C137.857 146.134 136.722 146.061 135.919 145.586C135.909 145.58 135.901 145.572 135.895 145.562C135.89 145.552 135.887 145.541 135.888 145.529C135.888 145.518 135.892 145.507 135.899 145.497C135.905 145.488 135.914 145.481 135.925 145.476Z" fill="#24221E"/>
<path d="M142.018 119.213C139.826 119.5 137.314 119.987 135.895 121.87C135.239 122.669 134.916 123.694 134.995 124.728C135.12 125.694 135.603 126.576 136.347 127.196C135.471 127.481 134.693 128.009 134.101 128.721C133.509 129.432 133.128 130.298 133.002 131.218C132.965 131.678 133.023 132.142 133.172 132.579C133.32 133.016 133.556 133.418 133.866 133.759C134.168 134.118 134.512 134.435 134.844 134.764C135.176 135.093 135.544 135.373 135.889 135.66C135.516 135.953 135.167 136.275 134.844 136.622C134.481 136.974 134.156 137.362 133.872 137.78C133.284 138.609 132.952 139.595 132.918 140.614C132.968 141.626 133.317 142.6 133.92 143.411C134.41 144.249 135.102 144.949 135.931 145.446C135.941 145.451 135.953 145.452 135.964 145.449C135.975 145.446 135.985 145.439 135.992 145.43C135.998 145.42 136.001 145.409 136 145.397C135.999 145.385 135.994 145.375 135.985 145.367C135.334 144.766 134.781 144.065 134.349 143.289C133.826 142.461 133.54 141.504 133.521 140.522C133.601 139.592 133.913 138.697 134.427 137.92C134.683 137.499 134.961 137.092 135.261 136.702C135.559 136.382 135.837 136.044 136.094 135.69C136.094 135.69 135.375 134.922 135.122 134.593C134.868 134.264 134.62 133.911 134.391 133.551C133.905 132.869 133.689 132.028 133.787 131.193C133.93 130.414 134.28 129.689 134.802 129.097C135.309 128.488 135.967 128.006 136.498 127.409C136.517 127.377 136.53 127.342 136.535 127.306C136.54 127.269 136.538 127.232 136.529 127.196C135.321 125.295 135.472 123.491 136.764 122.083C137.422 121.401 138.193 120.838 139.041 120.42C140.017 119.972 141.026 119.603 142.06 119.317C142.102 119.311 142.084 119.207 142.018 119.213Z" fill="#24221E"/>
<path d="M182.053 160.156C180.767 159.753 179.409 159.546 178.092 159.254C176.776 158.961 175.447 158.687 174.119 158.419C172.79 158.151 171.408 157.883 170.055 157.627C168.702 157.371 167.44 157.084 166.124 156.926C164.853 156.802 163.572 156.831 162.308 157.011C161.031 157.158 159.751 157.261 158.467 157.322C155.88 157.448 153.287 157.391 150.708 157.152C147.789 156.878 144.899 156.358 142.067 155.598C142.006 155.598 141.988 155.671 142.067 155.689C146.977 157.343 152.125 158.167 157.302 158.126C158.582 158.126 159.868 158.047 161.142 157.919C162.415 157.737 163.697 157.627 164.983 157.59C166.342 157.681 167.691 157.885 169.016 158.2C170.351 158.449 171.679 158.705 173.014 158.943C174.523 159.211 176.033 159.485 177.549 159.723C179.064 159.961 180.568 160.302 182.053 160.412C182.162 160.387 182.168 160.186 182.053 160.156Z" fill="#24221E"/>
<path d="M200.809 134.63C198.876 133.965 196.835 133.551 194.849 133.07C192.862 132.588 190.851 132.125 188.852 131.668C185.036 130.797 181.171 130.06 177.379 128.993C176.383 128.713 175.399 128.384 174.427 128.055C173.937 127.878 173.46 127.683 172.983 127.445C172.506 127.208 171.957 127.062 171.486 126.836C171.431 126.8 171.389 126.885 171.443 126.921C171.824 127.159 172.174 127.445 172.567 127.677C172.959 127.909 173.436 128.14 173.883 128.347C174.7 128.724 175.536 129.056 176.389 129.34C178.164 129.95 180.012 130.37 181.824 130.797C185.809 131.717 189.8 132.625 193.798 133.496C194.921 133.74 196.05 133.984 197.18 134.209C198.309 134.435 199.541 134.715 200.736 134.849C200.765 134.857 200.795 134.854 200.821 134.84C200.847 134.826 200.866 134.802 200.876 134.774C200.885 134.746 200.883 134.715 200.871 134.688C200.858 134.661 200.836 134.64 200.809 134.63Z" fill="#24221E"/>
<path d="M194.523 127.256L222.143 131.047C222.143 131.047 217.094 102.072 211.726 92.4747C206.43 83.0055 200.585 89.2635 198.357 100.719C195.857 113.418 194.523 127.256 194.523 127.256Z" fill="#9F7815"/>
<path d="M220.071 126.848C219.298 126.666 218.507 126.55 217.734 126.379C216.962 126.209 216.219 126.093 215.458 125.971C213.906 125.727 212.348 125.508 210.79 125.295C207.723 124.868 204.661 124.399 201.582 124.076C199.83 123.881 198.085 123.619 196.334 123.467C196.321 123.467 196.309 123.472 196.3 123.481C196.291 123.49 196.286 123.502 196.286 123.515C196.286 123.528 196.291 123.541 196.3 123.55C196.309 123.559 196.321 123.564 196.334 123.564C199.384 124.283 202.493 124.819 205.585 125.325C208.677 125.831 211.72 126.306 214.8 126.647C215.663 126.739 216.527 126.855 217.396 126.897C218.266 126.94 219.178 127.019 220.065 127.037C220.09 127.038 220.114 127.029 220.132 127.012C220.151 126.995 220.161 126.971 220.162 126.946C220.163 126.921 220.154 126.897 220.137 126.878C220.12 126.86 220.096 126.849 220.071 126.848Z" fill="#24221E"/>
<path d="M235.204 21.7235C234.849 25.1514 233.558 28.4124 231.474 31.1427C229.389 33.873 226.594 35.965 223.4 37.1854C220.206 38.4058 216.738 38.7066 213.385 38.054C210.031 37.4015 206.923 35.8213 204.408 33.49L195.181 34.861L199.8 26.8115C198.741 24.1916 198.288 21.3624 198.475 18.5391C198.662 15.7158 199.485 12.9727 200.88 10.5185C202.276 8.0643 204.208 5.96358 206.529 4.37611C208.85 2.78865 211.5 1.75624 214.276 1.35741C217.052 0.958582 219.882 1.20383 222.55 2.07451C225.218 2.94518 227.654 4.41835 229.673 6.38198C231.692 8.34561 233.241 10.748 234.201 13.4064C235.162 16.0648 235.509 18.9093 235.216 21.7235H235.204Z" fill="white"/>
<path d="M235.204 21.7232C234.851 25.1536 233.563 28.4184 231.484 31.1559C230.463 32.5338 229.242 33.7479 227.861 34.7571C225.118 36.8352 221.861 38.1126 218.447 38.4498C217.596 38.53 216.74 38.5463 215.887 38.4985C215.032 38.4796 214.179 38.3899 213.339 38.2304C209.938 37.602 206.779 36.03 204.214 33.6908L204.432 33.7578L195.223 35.1837L194.553 35.2873L194.891 34.6779L199.48 26.6162V26.9331C198.139 23.6034 197.771 19.9561 198.418 16.4218C199.064 12.8874 200.7 9.61366 203.131 6.98692C205.562 4.36018 208.687 2.49015 212.137 1.5976C215.587 0.705051 219.218 0.827251 222.602 1.94977C225.266 2.86334 227.694 4.36651 229.709 6.34927C231.719 8.32418 233.259 10.7344 234.211 13.3977C235.163 16.0611 235.502 18.9079 235.204 21.7232ZM235.204 21.7232C235.495 18.9234 235.146 16.0937 234.183 13.4516C233.22 10.8096 231.669 8.42565 229.65 6.48334C227.63 4.54102 225.196 3.09208 222.535 2.24802C219.874 1.40395 217.056 1.18727 214.299 1.61463C211.562 2.03059 208.955 3.07274 206.678 4.66138C204.423 6.26375 202.542 8.34326 201.165 10.7549C199.805 13.167 199.004 15.8585 198.822 18.6277C198.655 21.3928 199.098 24.1609 200.12 26.732L200.187 26.9026L200.102 27.055L195.459 35.0862L195.127 34.5926L204.359 33.2886H204.486L204.577 33.3739C207.043 35.7001 210.102 37.2887 213.411 37.9623C214.235 38.1329 215.071 38.2368 215.911 38.2731C216.751 38.331 217.595 38.331 218.435 38.2731C220.118 38.1407 221.775 37.7715 223.356 37.1762C224.951 36.5906 226.451 35.7692 227.807 34.7389C228.489 34.2346 229.138 33.6872 229.751 33.0997C230.349 32.4948 230.909 31.8538 231.43 31.1802C233.532 28.4416 234.838 25.1675 235.204 21.7232Z" fill="#24221E"/>
<path d="M207.849 28.4811C207.838 28.2339 207.876 27.987 207.962 27.7553C208.048 27.5235 208.18 27.3118 208.349 27.1329C208.518 26.954 208.722 26.8117 208.947 26.7146C209.173 26.6174 209.416 26.5674 209.661 26.5677C210.164 26.5677 210.646 26.7693 211.002 27.1281C211.357 27.4869 211.557 27.9736 211.557 28.4811C211.557 28.9885 211.357 29.4752 211.002 29.834C210.646 30.1928 210.164 30.3944 209.661 30.3944C209.416 30.3947 209.173 30.3447 208.947 30.2476C208.722 30.1504 208.518 30.0081 208.349 29.8292C208.18 29.6503 208.048 29.4386 207.962 29.2069C207.876 28.9751 207.838 28.7282 207.849 28.4811ZM208.616 24.0694L208.187 9.2561H211.122L210.669 24.0511L208.616 24.0694Z" fill="#871E35"/>
<path d="M214.896 28.4811C214.885 28.2339 214.923 27.987 215.009 27.7553C215.095 27.5235 215.227 27.3118 215.396 27.1329C215.566 26.954 215.769 26.8117 215.995 26.7146C216.22 26.6174 216.463 26.5674 216.708 26.5677C217.211 26.5677 217.693 26.7693 218.049 27.1281C218.404 27.4869 218.604 27.9736 218.604 28.4811C218.604 28.9885 218.404 29.4752 218.049 29.834C217.693 30.1928 217.211 30.3944 216.708 30.3944C216.463 30.3947 216.22 30.3447 215.995 30.2476C215.769 30.1504 215.566 30.0081 215.396 29.8292C215.227 29.6503 215.095 29.4386 215.009 29.2069C214.923 28.9751 214.885 28.7282 214.896 28.4811ZM215.663 24.0694L215.235 9.2561H218.169L217.741 24.0694H215.663Z" fill="#871E35"/>
<path d="M221.919 28.4811C221.908 28.2339 221.946 27.987 222.032 27.7553C222.118 27.5235 222.25 27.3118 222.419 27.1329C222.588 26.954 222.792 26.8117 223.017 26.7146C223.243 26.6174 223.486 26.5674 223.731 26.5677C224.234 26.5677 224.716 26.7693 225.071 27.1281C225.427 27.4869 225.627 27.9736 225.627 28.4811C225.627 28.9885 225.427 29.4752 225.071 29.834C224.716 30.1928 224.234 30.3944 223.731 30.3944C223.486 30.3947 223.243 30.3447 223.017 30.2476C222.792 30.1504 222.588 30.0081 222.419 29.8292C222.25 29.6503 222.118 29.4386 222.032 29.2069C221.946 28.9751 221.908 28.7282 221.919 28.4811ZM222.686 24.0694L222.257 9.2561H225.192L224.763 24.0694H222.686Z" fill="#871E35"/>
</svg>
