<svg width="24" height="24" viewBox="0 0 24 24" fill="none" xmlns="http://www.w3.org/2000/svg">
<g clip-path="url(#clip0_4001_2367)">
<path d="M12.016 24C11.3128 24 10.6208 23.7654 10.0738 23.2962L8.31021 21.788C8.13162 21.6316 7.68513 21.4752 7.45073 21.4752H5.49735C3.84536 21.4752 2.5059 20.1345 2.5059 18.4811V16.5707C2.5059 16.3361 2.34963 15.8892 2.20452 15.7216L0.686471 13.9341C-0.228824 12.8505 -0.228824 11.1523 0.686471 10.0575L2.20452 8.26999C2.34963 8.10241 2.5059 7.65553 2.5059 7.42092V5.5217C2.5059 3.86826 3.84536 2.52764 5.49735 2.52764H7.4284C7.66281 2.52764 8.09813 2.36006 8.28789 2.20365L10.0515 0.69545C11.1454 -0.231817 12.8532 -0.231817 13.9471 0.69545L15.7107 2.20365C15.8893 2.36006 16.347 2.51647 16.5814 2.51647H18.4789C20.1309 2.51647 21.4704 3.85709 21.4704 5.51053V7.40975C21.4704 7.64436 21.6378 8.08007 21.7941 8.26999L23.301 10.0351C24.2386 11.1412 24.2274 12.8505 23.301 13.9341L21.7941 15.6993C21.6378 15.8892 21.4815 16.3249 21.4815 16.5595V18.4587C21.4815 20.1122 20.1421 21.4528 18.4901 21.4528H16.5925C16.3581 21.4528 15.9228 21.6204 15.7219 21.7768L13.9583 23.285C13.4113 23.7654 12.7081 24 12.016 24ZM5.49735 4.20342C4.77181 4.20342 4.18022 4.79553 4.18022 5.5217V7.42092C4.18022 8.05772 3.89001 8.8621 3.47701 9.35366L1.95896 11.1412C1.57944 11.5992 1.57944 12.4036 1.95896 12.8505L3.46584 14.6268C3.86768 15.0848 4.16906 15.9227 4.16906 16.5595V18.4699C4.16906 19.1961 4.76065 19.7882 5.48619 19.7882H7.4284C8.05348 19.7882 8.87948 20.0898 9.37062 20.5032L11.1454 22.0226C11.603 22.4136 12.4067 22.4136 12.8644 22.0226L14.628 20.5144C15.1303 20.0898 15.9451 19.7994 16.5702 19.7994H18.4678C19.1933 19.7994 19.7849 19.2073 19.7849 18.4811V16.5819C19.7849 15.9562 20.0863 15.1407 20.4993 14.638L22.0173 12.8616C22.408 12.4036 22.408 11.5992 22.0173 11.1412L20.5104 9.376C20.0863 8.87327 19.7961 8.05772 19.7961 7.4321V5.5217C19.7961 4.79553 19.2045 4.20342 18.4789 4.20342H16.5814C15.9451 4.20342 15.1191 3.90178 14.628 3.48842L12.8532 1.96904C12.3956 1.57803 11.603 1.57803 11.1342 1.96904L9.38178 3.48842C8.87948 3.90178 8.06464 4.20342 7.4284 4.20342H5.49735Z" fill="#24221E"/>
<path d="M12.0049 17.4422C11.391 17.4422 10.8887 16.9394 10.8887 16.325C10.8887 15.7105 11.3798 15.2078 12.0049 15.2078C12.6188 15.2078 13.1211 15.7105 13.1211 16.325C13.1211 16.9394 12.63 17.4422 12.0049 17.4422Z" fill="#24221E"/>
<path d="M12.0049 13.923C11.5472 13.923 11.1677 13.5432 11.1677 13.0851V7.67798C11.1677 7.21993 11.5472 6.84009 12.0049 6.84009C12.4625 6.84009 12.842 7.21993 12.842 7.67798V13.074C12.842 13.5432 12.4737 13.923 12.0049 13.923Z" fill="#24221E"/>
</g>
<defs>
<clipPath id="clip0_4001_2367">
<rect width="24" height="24" fill="white"/>
</clipPath>
</defs>
</svg>
