<svg width="24" height="24" viewBox="0 0 24 24" fill="none" xmlns="http://www.w3.org/2000/svg">
<g clip-path="url(#clip0_4001_2371)">
<mask id="mask0_4001_2371" style="mask-type:luminance" maskUnits="userSpaceOnUse" x="0" y="0" width="24" height="24">
<path d="M24 0H0V24H24V0Z" fill="white"/>
</mask>
<g mask="url(#mask0_4001_2371)">
<path d="M19.875 7.875H16.875C16.5766 7.875 16.2905 7.99353 16.0795 8.2045C15.8685 8.41548 15.75 8.70163 15.75 9V10.5C15.75 10.5995 15.7895 10.6948 15.8598 10.7652C15.9302 10.8355 16.0255 10.875 16.125 10.875H20.625C20.7245 10.875 20.8198 10.8355 20.8902 10.7652C20.9605 10.6948 21 10.5995 21 10.5V9C21 8.70163 20.8815 8.41548 20.6705 8.2045C20.4595 7.99353 20.1734 7.875 19.875 7.875ZM20.25 10.125H16.5V9C16.5 8.90054 16.5395 8.80516 16.6098 8.73483C16.6802 8.66451 16.7755 8.625 16.875 8.625H19.875C19.9745 8.625 20.0698 8.66451 20.1402 8.73483C20.2105 8.80516 20.25 8.90054 20.25 9V10.125Z" fill="#24221E"/>
<path d="M19.875 6.375V5.625C19.875 5.22718 19.717 4.84564 19.4357 4.56434C19.1544 4.28304 18.7728 4.125 18.375 4.125C17.9772 4.125 17.5956 4.28304 17.3143 4.56434C17.033 4.84564 16.875 5.22718 16.875 5.625V6.375C16.875 6.77282 17.033 7.15436 17.3143 7.43566C17.5956 7.71696 17.9772 7.875 18.375 7.875C18.7728 7.875 19.1544 7.71696 19.4357 7.43566C19.717 7.15436 19.875 6.77282 19.875 6.375ZM19.125 6.375C19.125 6.57391 19.046 6.76468 18.9053 6.90533C18.7647 7.04598 18.5739 7.125 18.375 7.125C18.1761 7.125 17.9853 7.04598 17.8447 6.90533C17.704 6.76468 17.625 6.57391 17.625 6.375V5.625C17.625 5.42609 17.704 5.23532 17.8447 5.09467C17.9853 4.95402 18.1761 4.875 18.375 4.875C18.5739 4.875 18.7647 4.95402 18.9053 5.09467C19.046 5.23532 19.125 5.42609 19.125 5.625V6.375Z" fill="#24221E"/>
<path d="M23.625 7.875C23.625 6.48261 23.0719 5.14726 22.0873 4.16269C21.1027 3.17812 19.7674 2.625 18.375 2.625C16.9826 2.625 15.6473 3.17812 14.6627 4.16269C13.6781 5.14726 13.125 6.48261 13.125 7.875H0.75C0.650544 7.875 0.555161 7.91451 0.484835 7.98483C0.414509 8.05516 0.375 8.15054 0.375 8.25V19.125C0.375596 19.7216 0.61284 20.2935 1.03467 20.7153C1.4565 21.1372 2.02845 21.3744 2.625 21.375H19.125C19.7216 21.3744 20.2935 21.1372 20.7153 20.7153C21.1372 20.2935 21.3744 19.7216 21.375 19.125V12.1774C22.069 11.6947 22.6361 11.0513 23.0278 10.3022C23.4196 9.5531 23.6245 8.72038 23.625 7.875ZM19.125 20.625H2.625C2.22718 20.625 1.84564 20.467 1.56434 20.1857C1.28304 19.9044 1.125 19.5228 1.125 19.125V18.375H20.625V19.125C20.625 19.5228 20.467 19.9044 20.1857 20.1857C19.9044 20.467 19.5228 20.625 19.125 20.625ZM20.625 17.625H1.125V8.625H13.185C13.2998 9.43914 13.605 10.2147 14.0756 10.8889C14.5463 11.563 15.1693 12.1167 15.894 12.505C16.6188 12.8933 17.4248 13.1053 18.2468 13.1237C19.0688 13.1422 19.8836 12.9666 20.625 12.6113V17.625ZM18.375 12.375C17.485 12.375 16.615 12.1111 15.8749 11.6166C15.1349 11.1221 14.5581 10.4193 14.2175 9.59708C13.8769 8.77481 13.7878 7.87001 13.9615 6.99709C14.1351 6.12418 14.5637 5.32236 15.193 4.69302C15.8224 4.06368 16.6242 3.6351 17.4971 3.46147C18.37 3.28783 19.2748 3.37695 20.0971 3.71754C20.9193 4.05814 21.6221 4.63491 22.1166 5.37493C22.6111 6.11496 22.875 6.98498 22.875 7.875C22.8737 9.06808 22.3992 10.2119 21.5556 11.0556C20.7119 11.8992 19.5681 12.3737 18.375 12.375Z" fill="#24221E"/>
<path d="M4.5 14.25C4.40054 14.25 4.30516 14.2105 4.23484 14.1402C4.16451 14.0698 4.125 13.9745 4.125 13.875H3.375C3.37596 14.1068 3.44853 14.3327 3.58278 14.5218C3.71703 14.7108 3.90641 14.8537 4.125 14.931V15.375H4.875V14.931C5.12501 14.8429 5.33578 14.6692 5.46999 14.4407C5.6042 14.2121 5.65319 13.9434 5.60827 13.6822C5.56335 13.421 5.42744 13.1841 5.22459 13.0134C5.02174 12.8428 4.76506 12.7495 4.5 12.75C4.42583 12.75 4.35333 12.728 4.29166 12.6868C4.22999 12.6456 4.18193 12.587 4.15355 12.5185C4.12516 12.45 4.11774 12.3746 4.13221 12.3018C4.14667 12.2291 4.18239 12.1623 4.23484 12.1098C4.28728 12.0574 4.3541 12.0217 4.42684 12.0072C4.49958 11.9927 4.57498 12.0002 4.64351 12.0285C4.71203 12.0569 4.7706 12.105 4.8118 12.1667C4.85301 12.2283 4.875 12.3008 4.875 12.375H5.625C5.62404 12.1432 5.55147 11.9173 5.41722 11.7282C5.28297 11.5392 5.09359 11.3963 4.875 11.319V10.875H4.125V11.319C3.87499 11.4071 3.66422 11.5808 3.53001 11.8093C3.3958 12.0379 3.34681 12.3066 3.39173 12.5678C3.43665 12.829 3.57256 13.0659 3.77541 13.2366C3.97826 13.4072 4.23494 13.5005 4.5 13.5C4.59946 13.5 4.69484 13.5395 4.76516 13.6098C4.83549 13.6802 4.875 13.7755 4.875 13.875C4.875 13.9745 4.83549 14.0698 4.76516 14.1402C4.69484 14.2105 4.59946 14.25 4.5 14.25ZM7.5 14.25C7.40054 14.25 7.30516 14.2105 7.23483 14.1402C7.16451 14.0698 7.125 13.9745 7.125 13.875H6.375C6.37596 14.1068 6.44853 14.3327 6.58278 14.5218C6.71703 14.7108 6.90641 14.8537 7.125 14.931V15.375H7.875V14.931C8.12501 14.8429 8.33578 14.6692 8.46999 14.4407C8.6042 14.2121 8.65319 13.9434 8.60827 13.6822C8.56335 13.421 8.42744 13.1841 8.22459 13.0134C8.02174 12.8428 7.76506 12.7495 7.5 12.75C7.42583 12.75 7.35333 12.728 7.29166 12.6868C7.22999 12.6456 7.18193 12.587 7.15355 12.5185C7.12516 12.45 7.11774 12.3746 7.13221 12.3018C7.14667 12.2291 7.18239 12.1623 7.23483 12.1098C7.28728 12.0574 7.3541 12.0217 7.42684 12.0072C7.49958 11.9927 7.57498 12.0002 7.64351 12.0285C7.71203 12.0569 7.7706 12.105 7.8118 12.1667C7.85301 12.2283 7.875 12.3008 7.875 12.375H8.625C8.62404 12.1432 8.55147 11.9173 8.41722 11.7282C8.28297 11.5392 8.09359 11.3963 7.875 11.319V10.875H7.125V11.319C6.87499 11.4071 6.66422 11.5808 6.53001 11.8093C6.3958 12.0379 6.34681 12.3066 6.39173 12.5678C6.43665 12.829 6.57256 13.0659 6.77541 13.2366C6.97826 13.4072 7.23494 13.5005 7.5 13.5C7.59946 13.5 7.69484 13.5395 7.76517 13.6098C7.83549 13.6802 7.875 13.7755 7.875 13.875C7.875 13.9745 7.83549 14.0698 7.76517 14.1402C7.69484 14.2105 7.59946 14.25 7.5 14.25ZM10.5 14.25C10.4005 14.25 10.3052 14.2105 10.2348 14.1402C10.1645 14.0698 10.125 13.9745 10.125 13.875H9.375C9.37596 14.1068 9.44853 14.3327 9.58278 14.5218C9.71703 14.7108 9.90641 14.8537 10.125 14.931V15.375H10.875V14.931C11.125 14.8429 11.3358 14.6692 11.47 14.4407C11.6042 14.2121 11.6532 13.9434 11.6083 13.6822C11.5634 13.421 11.4274 13.1841 11.2246 13.0134C11.0217 12.8428 10.7651 12.7495 10.5 12.75C10.4258 12.75 10.3533 12.728 10.2917 12.6868C10.23 12.6456 10.1819 12.587 10.1535 12.5185C10.1252 12.45 10.1177 12.3746 10.1322 12.3018C10.1467 12.2291 10.1824 12.1623 10.2348 12.1098C10.2873 12.0574 10.3541 12.0217 10.4268 12.0072C10.4996 11.9927 10.575 12.0002 10.6435 12.0285C10.712 12.0569 10.7706 12.105 10.8118 12.1667C10.853 12.2283 10.875 12.3008 10.875 12.375H11.625C11.624 12.1432 11.5515 11.9173 11.4172 11.7282C11.283 11.5392 11.0936 11.3963 10.875 11.319V10.875H10.125V11.319C9.87499 11.4071 9.66422 11.5808 9.53001 11.8093C9.3958 12.0379 9.34681 12.3066 9.39173 12.5678C9.43665 12.829 9.57256 13.0659 9.77541 13.2366C9.97826 13.4072 10.2349 13.5005 10.5 13.5C10.5995 13.5 10.6948 13.5395 10.7652 13.6098C10.8355 13.6802 10.875 13.7755 10.875 13.875C10.875 13.9745 10.8355 14.0698 10.7652 14.1402C10.6948 14.2105 10.5995 14.25 10.5 14.25Z" fill="#24221E"/>
<path d="M12.75 9.375H2.25C2.15054 9.375 2.05516 9.41451 1.98484 9.48483C1.91451 9.55516 1.875 9.65054 1.875 9.75V16.5C1.875 16.5995 1.91451 16.6948 1.98484 16.7652C2.05516 16.8355 2.15054 16.875 2.25 16.875H12.75C12.8495 16.875 12.9448 16.8355 13.0152 16.7652C13.0855 16.6948 13.125 16.5995 13.125 16.5V9.75C13.125 9.65054 13.0855 9.55516 13.0152 9.48483C12.9448 9.41451 12.8495 9.375 12.75 9.375ZM12.375 16.125H2.625V10.125H12.375V16.125ZM13.875 16.125H19.875V16.875H13.875V16.125ZM13.875 14.625H16.5V15.375H13.875V14.625ZM17.25 14.625H19.875V15.375H17.25V14.625Z" fill="#24221E"/>
<mask id="mask1_4001_2371" style="mask-type:luminance" maskUnits="userSpaceOnUse" x="9" y="13" width="2" height="2">
<path d="M10.125 13.2188H9V14.3438H10.125V13.2188Z" fill="white"/>
</mask>
<g mask="url(#mask1_4001_2371)">
<path d="M9.93164 13.5879H9.79102C9.77703 13.5879 9.76362 13.5934 9.75373 13.6033C9.74384 13.6132 9.73828 13.6266 9.73828 13.6406V13.7109C9.73828 13.7156 9.74013 13.7201 9.74343 13.7234C9.74673 13.7267 9.7512 13.7285 9.75586 13.7285H9.9668C9.97146 13.7285 9.97593 13.7267 9.97923 13.7234C9.98252 13.7201 9.98438 13.7156 9.98438 13.7109V13.6406C9.98438 13.6266 9.97882 13.6132 9.96893 13.6033C9.95904 13.5934 9.94563 13.5879 9.93164 13.5879ZM9.94922 13.6934H9.77344V13.6406C9.77344 13.636 9.77529 13.6315 9.77858 13.6282C9.78188 13.6249 9.78635 13.623 9.79102 13.623H9.93164C9.9363 13.623 9.94077 13.6249 9.94407 13.6282C9.94737 13.6315 9.94922 13.636 9.94922 13.6406V13.6934Z" fill="#24221E"/>
<path d="M9.93163 13.5176V13.4824C9.93163 13.4638 9.92423 13.4459 9.91105 13.4327C9.89786 13.4195 9.87997 13.4121 9.86133 13.4121C9.84268 13.4121 9.82479 13.4195 9.81161 13.4327C9.79842 13.4459 9.79102 13.4638 9.79102 13.4824V13.5176C9.79102 13.5362 9.79842 13.5541 9.81161 13.5673C9.82479 13.5805 9.84268 13.5879 9.86133 13.5879C9.87997 13.5879 9.89786 13.5805 9.91105 13.5673C9.92423 13.5541 9.93163 13.5362 9.93163 13.5176ZM9.89647 13.5176C9.89647 13.5269 9.89278 13.5358 9.88619 13.5424C9.8796 13.549 9.87065 13.5527 9.86133 13.5527C9.852 13.5527 9.84305 13.549 9.83646 13.5424C9.82986 13.5358 9.82617 13.5269 9.82617 13.5176V13.4824C9.82617 13.4731 9.82986 13.4642 9.83646 13.4576C9.84305 13.451 9.852 13.4473 9.86133 13.4473C9.87065 13.4473 9.8796 13.451 9.88619 13.4576C9.89278 13.4642 9.89647 13.4731 9.89647 13.4824V13.5176Z" fill="#24221E"/>
<path d="M10.1074 13.5879C10.1074 13.5226 10.0815 13.46 10.0353 13.4139C9.98919 13.3677 9.9266 13.3418 9.86133 13.3418C9.79606 13.3418 9.73347 13.3677 9.68731 13.4139C9.64116 13.46 9.61523 13.5226 9.61523 13.5879H9.03516C9.03049 13.5879 9.02602 13.5897 9.02273 13.593C9.01943 13.5963 9.01758 13.6008 9.01758 13.6055V14.1152C9.01761 14.1432 9.02873 14.17 9.0485 14.1898C9.06827 14.2096 9.09508 14.2207 9.12305 14.2207H9.89648C9.92445 14.2207 9.95126 14.2096 9.97103 14.1898C9.99081 14.17 10.0019 14.1432 10.002 14.1152V13.7896C10.0345 13.7669 10.0611 13.7368 10.0794 13.7017C10.0978 13.6666 10.1074 13.6275 10.1074 13.5879ZM9.89648 14.1855H9.12305C9.1044 14.1855 9.08651 14.1781 9.07333 14.165C9.06014 14.1518 9.05273 14.1339 9.05273 14.1152V14.0801H9.9668V14.1152C9.9668 14.1339 9.95939 14.1518 9.9462 14.165C9.93302 14.1781 9.91513 14.1855 9.89648 14.1855ZM9.9668 14.0449H9.05273V13.623H9.61805C9.62343 13.6612 9.63773 13.6976 9.65979 13.7292C9.68186 13.7608 9.71106 13.7867 9.74503 13.8049C9.77901 13.8231 9.81679 13.8331 9.85532 13.8339C9.89385 13.8348 9.93204 13.8266 9.9668 13.8099V14.0449ZM9.86133 13.7988C9.81961 13.7988 9.77883 13.7865 9.74414 13.7633C9.70945 13.7401 9.68241 13.7072 9.66645 13.6686C9.65048 13.6301 9.6463 13.5877 9.65445 13.5467C9.66258 13.5058 9.68267 13.4682 9.71217 13.4387C9.74167 13.4092 9.77926 13.3891 9.82018 13.381C9.86109 13.3729 9.90351 13.377 9.94205 13.393C9.98059 13.409 10.0135 13.436 10.0367 13.4707C10.0599 13.5054 10.0723 13.5462 10.0723 13.5879C10.0722 13.6438 10.05 13.6974 10.0104 13.737C9.97087 13.7765 9.91725 13.7988 9.86133 13.7988Z" fill="#24221E"/>
<path d="M9.21094 13.8867C9.20628 13.8867 9.2018 13.8849 9.19851 13.8816C9.19521 13.8783 9.19336 13.8738 9.19336 13.8691H9.1582C9.15825 13.88 9.16165 13.8906 9.16794 13.8995C9.17424 13.9083 9.18311 13.915 9.19336 13.9186V13.9395H9.22852V13.9186C9.24023 13.9145 9.25011 13.9064 9.25641 13.8957C9.2627 13.8849 9.26499 13.8723 9.26289 13.8601C9.26078 13.8479 9.25441 13.8368 9.2449 13.8288C9.23539 13.8208 9.22336 13.8164 9.21094 13.8164C9.20746 13.8164 9.20406 13.8154 9.20117 13.8134C9.19828 13.8115 9.19603 13.8088 9.1947 13.8056C9.19337 13.8023 9.19302 13.7988 9.1937 13.7954C9.19438 13.792 9.19605 13.7889 9.19851 13.7864C9.20097 13.7839 9.2041 13.7823 9.20751 13.7816C9.21092 13.7809 9.21445 13.7813 9.21766 13.7826C9.22088 13.7839 9.22362 13.7862 9.22555 13.7891C9.22748 13.792 9.22852 13.7954 9.22852 13.7988H9.26367C9.26363 13.788 9.26023 13.7774 9.25393 13.7685C9.24764 13.7597 9.23876 13.753 9.22852 13.7493V13.7285H9.19336V13.7493C9.18164 13.7535 9.17176 13.7616 9.16547 13.7723C9.15918 13.783 9.15688 13.7956 9.15899 13.8079C9.16109 13.8201 9.16746 13.8312 9.17697 13.8392C9.18648 13.8472 9.19851 13.8516 9.21094 13.8516C9.2156 13.8516 9.22007 13.8534 9.22337 13.8567C9.22666 13.86 9.22852 13.8645 9.22852 13.8691C9.22852 13.8738 9.22666 13.8783 9.22337 13.8816C9.22007 13.8849 9.2156 13.8867 9.21094 13.8867ZM9.35156 13.8867C9.3469 13.8867 9.34243 13.8849 9.33913 13.8816C9.33584 13.8783 9.33398 13.8738 9.33398 13.8691H9.29883C9.29887 13.88 9.30227 13.8906 9.30857 13.8995C9.31486 13.9083 9.32374 13.915 9.33398 13.9186V13.9395H9.36914V13.9186C9.38086 13.9145 9.39074 13.9064 9.39703 13.8957C9.40332 13.8849 9.40562 13.8723 9.40351 13.8601C9.40141 13.8479 9.39504 13.8368 9.38553 13.8288C9.37602 13.8208 9.36399 13.8164 9.35156 13.8164C9.34809 13.8164 9.34469 13.8154 9.3418 13.8134C9.33891 13.8115 9.33665 13.8088 9.33532 13.8056C9.33399 13.8023 9.33364 13.7988 9.33432 13.7954C9.335 13.792 9.33667 13.7889 9.33913 13.7864C9.34159 13.7839 9.34472 13.7823 9.34813 13.7816C9.35154 13.7809 9.35508 13.7813 9.35829 13.7826C9.3615 13.7839 9.36425 13.7862 9.36618 13.7891C9.36811 13.792 9.36914 13.7954 9.36914 13.7988H9.4043C9.40425 13.788 9.40085 13.7774 9.39456 13.7685C9.38826 13.7597 9.37939 13.753 9.36914 13.7493V13.7285H9.33398V13.7493C9.32227 13.7535 9.31239 13.7616 9.30609 13.7723C9.2998 13.783 9.29751 13.7956 9.29961 13.8079C9.30172 13.8201 9.30809 13.8312 9.3176 13.8392C9.32711 13.8472 9.33914 13.8516 9.35156 13.8516C9.35622 13.8516 9.3607 13.8534 9.36399 13.8567C9.36729 13.86 9.36914 13.8645 9.36914 13.8691C9.36914 13.8738 9.36729 13.8783 9.36399 13.8816C9.3607 13.8849 9.35622 13.8867 9.35156 13.8867ZM9.49219 13.8867C9.48752 13.8867 9.48306 13.8849 9.47976 13.8816C9.47646 13.8783 9.47461 13.8738 9.47461 13.8691H9.43945C9.4395 13.88 9.4429 13.8906 9.44919 13.8995C9.45549 13.9083 9.46436 13.915 9.47461 13.9186V13.9395H9.50977V13.9186C9.52148 13.9145 9.53137 13.9064 9.53766 13.8957C9.54395 13.8849 9.54624 13.8723 9.54414 13.8601C9.54203 13.8479 9.53566 13.8368 9.52615 13.8288C9.51664 13.8208 9.50461 13.8164 9.49219 13.8164C9.48871 13.8164 9.48531 13.8154 9.48242 13.8134C9.47953 13.8115 9.47728 13.8088 9.47595 13.8056C9.47462 13.8023 9.47427 13.7988 9.47495 13.7954C9.47563 13.792 9.4773 13.7889 9.47976 13.7864C9.48222 13.7839 9.48535 13.7823 9.48876 13.7816C9.49217 13.7809 9.4957 13.7813 9.49891 13.7826C9.50213 13.7839 9.50487 13.7862 9.5068 13.7891C9.50873 13.792 9.50977 13.7954 9.50977 13.7988H9.54492C9.54487 13.788 9.54148 13.7774 9.53518 13.7685C9.52889 13.7597 9.52001 13.753 9.50977 13.7493V13.7285H9.47461V13.7493C9.46289 13.7535 9.45301 13.7616 9.44672 13.7723C9.44043 13.783 9.43813 13.7956 9.44024 13.8079C9.44234 13.8201 9.44871 13.8312 9.45822 13.8392C9.46773 13.8472 9.47976 13.8516 9.49219 13.8516C9.49685 13.8516 9.50132 13.8534 9.50462 13.8567C9.50791 13.86 9.50977 13.8645 9.50977 13.8691C9.50977 13.8738 9.50791 13.8783 9.50462 13.8816C9.50132 13.8849 9.49685 13.8867 9.49219 13.8867Z" fill="#24221E"/>
<path d="M9.59766 13.6582H9.10547C9.10081 13.6582 9.09634 13.6601 9.09304 13.6634C9.08974 13.6666 9.08789 13.6711 9.08789 13.6758V13.9922C9.08789 13.9969 9.08974 14.0013 9.09304 14.0046C9.09634 14.0079 9.10081 14.0098 9.10547 14.0098H9.59766C9.60232 14.0098 9.60679 14.0079 9.61009 14.0046C9.61338 14.0013 9.61523 13.9969 9.61523 13.9922V13.6758C9.61523 13.6711 9.61338 13.6666 9.61009 13.6634C9.60679 13.6601 9.60232 13.6582 9.59766 13.6582ZM9.58008 13.9746H9.12305V13.6934H9.58008V13.9746ZM9.65039 13.9746H9.93164V14.0098H9.65039V13.9746ZM9.65039 13.9043H9.77344V13.9395H9.65039V13.9043ZM9.80859 13.9043H9.93164V13.9395H9.80859V13.9043Z" fill="#24221E"/>
</g>
<mask id="mask2_4001_2371" style="mask-type:luminance" maskUnits="userSpaceOnUse" x="-1" y="3" width="2" height="2">
<path d="M0.75 3.46875H-0.1875V4.45312H0.75V3.46875Z" fill="white"/>
</mask>
<g mask="url(#mask2_4001_2371)">
<path d="M0.281878 4.41797C0.254408 4.41797 0.227374 4.4088 0.206009 4.39048L0.137118 4.33156C0.130141 4.32545 0.112701 4.31934 0.103544 4.31934H0.0272402C-0.0372912 4.31934 -0.0896135 4.26697 -0.0896135 4.20238V4.12776C-0.0896135 4.1186 -0.0957175 4.10114 -0.101386 4.0946L-0.160685 4.02477C-0.196438 3.98244 -0.196438 3.91611 -0.160685 3.87334L-0.101386 3.80352C-0.0957175 3.79697 -0.0896135 3.77951 -0.0896135 3.77035V3.69616C-0.0896135 3.63157 -0.0372912 3.5792 0.0272402 3.5792H0.102672C0.111828 3.5792 0.128833 3.57266 0.136245 3.56655L0.205137 3.50763C0.247867 3.47141 0.314578 3.47141 0.357309 3.50763L0.426202 3.56655C0.433177 3.57266 0.451055 3.57877 0.460209 3.57877H0.534333C0.598866 3.57877 0.651188 3.63114 0.651188 3.69572V3.76991C0.651188 3.77908 0.657727 3.7961 0.66383 3.80352L0.722695 3.87247C0.759319 3.91567 0.758883 3.98244 0.722695 4.02477L0.66383 4.09372C0.657727 4.10114 0.651623 4.11816 0.651623 4.12732V4.20151C0.651623 4.2661 0.599302 4.31847 0.534769 4.31847H0.460645C0.451491 4.31847 0.434484 4.32501 0.426637 4.33113L0.357745 4.39004C0.33638 4.4088 0.308911 4.41797 0.281878 4.41797ZM0.0272402 3.64466C-0.00110132 3.64466 -0.0242102 3.66779 -0.0242102 3.69616V3.77035C-0.0242102 3.79522 -0.035547 3.82664 -0.05168 3.84585L-0.110978 3.91567C-0.125803 3.93356 -0.125803 3.96498 -0.110978 3.98244L-0.0521158 4.05183C-0.0364188 4.06972 -0.0246461 4.10245 -0.0246461 4.12732V4.20195C-0.0246461 4.23032 -0.00153727 4.25345 0.0268043 4.25345H0.102672C0.127089 4.25345 0.159355 4.26523 0.17854 4.28137L0.247867 4.34073C0.265744 4.356 0.297136 4.356 0.315014 4.34073L0.383906 4.28181C0.403528 4.26523 0.435356 4.25388 0.459773 4.25388H0.533897C0.562238 4.25388 0.585347 4.23075 0.585347 4.20238V4.1282C0.585347 4.10376 0.597122 4.0719 0.613252 4.05226L0.672553 3.98287C0.687811 3.96498 0.687811 3.93356 0.672553 3.91567L0.613687 3.84672C0.597122 3.82708 0.585783 3.79522 0.585783 3.77078V3.69616C0.585783 3.66779 0.562673 3.64466 0.534333 3.64466H0.460209C0.435356 3.64466 0.403092 3.63288 0.383906 3.61674L0.314578 3.55738C0.2967 3.54211 0.265744 3.54211 0.247431 3.55738L0.178976 3.61674C0.159355 3.63288 0.127525 3.64466 0.102672 3.64466H0.0272402Z" fill="#24221E"/>
<path d="M0.281396 4.16181C0.257414 4.16181 0.237793 4.14216 0.237793 4.11816C0.237793 4.09416 0.256978 4.07452 0.281396 4.07452C0.305377 4.07452 0.324999 4.09416 0.324999 4.11816C0.324999 4.14216 0.305813 4.16181 0.281396 4.16181Z" fill="#24221E"/>
<path d="M0.281481 4.02436C0.263604 4.02436 0.248779 4.00952 0.248779 3.99163V3.78041C0.248779 3.76252 0.263604 3.74768 0.281481 3.74768C0.299359 3.74768 0.314181 3.76252 0.314181 3.78041V3.99119C0.314181 4.00952 0.299795 4.02436 0.281481 4.02436Z" fill="#24221E"/>
</g>
</g>
</g>
<defs>
<clipPath id="clip0_4001_2371">
<rect width="24" height="24" fill="white"/>
</clipPath>
</defs>
</svg>
