<svg width="24" height="24" viewBox="0 0 24 24" fill="none" xmlns="http://www.w3.org/2000/svg">
<path d="M12 2.16003C9.22568 2.19235 6.57448 3.26473 4.6126 5.14813C2.65072 7.03153 1.53366 9.57669 1.5 12.24C1.53366 14.9033 2.65072 17.4485 4.6126 19.3319C6.57448 21.2153 9.22568 22.2877 12 22.32C14.7743 22.2877 17.4255 21.2153 19.3874 19.3319C21.3493 17.4485 22.4663 14.9033 22.5 12.24C22.4663 9.57669 21.3493 7.03153 19.3874 5.14813C17.4255 3.26473 14.7743 2.19235 12 2.16003ZM18 12.96H12.75V18H11.25V12.96H6V11.52H11.25V6.48003H12.75V11.52H18V12.96Z" fill="#24221E"/>
</svg>
