<svg width="350" height="304" viewBox="0 0 350 304" fill="none" xmlns="http://www.w3.org/2000/svg">
<path d="M90.0693 216.15C112.161 228.988 141.869 231.06 166.593 224.816C179.011 221.673 188.237 215.114 198.94 208.87C213.934 200.113 225.148 201.037 241.941 200.043C290.822 197.159 304.801 150.133 299.544 117.562C293.16 77.956 256.984 46.729 213.696 43.418C184.555 41.1919 157.633 45.259 134.82 57.712C117.012 67.435 114.989 82.772 112.084 100.538C109.865 114.097 108.451 129.238 100.107 140.97C92.4703 151.701 81.3753 145.506 71.6593 152.87C46.9003 171.546 71.4633 205.335 90.0693 216.15Z" fill="#E6E6E6"/>
<path d="M175 273.067C249.958 273.067 310.723 269.519 310.723 265.143C310.723 260.767 249.958 257.219 175 257.219C100.043 257.219 39.2773 260.767 39.2773 265.143C39.2773 269.519 100.043 273.067 175 273.067Z" fill="#F5F5F5"/>
<path d="M116.571 53.5329L116.13 52.9869C119.206 50.492 122.407 48.1556 125.72 45.9869L126.105 46.5749C122.81 48.7296 119.628 51.052 116.571 53.5329Z" fill="#24221E"/>
<path d="M111.405 57.95L110.929 57.432C111.867 56.585 112.833 55.7379 113.792 54.9189L114.247 55.4579C113.288 56.27 112.336 57.1099 111.405 57.95Z" fill="#24221E"/>
<path d="M188.932 143.379C222.443 114.022 232.842 71.0836 212.159 47.4741C191.476 23.8645 147.543 28.5241 114.032 57.8815C80.5206 87.2389 70.1215 130.177 90.8047 153.787C111.488 177.396 155.421 172.737 188.932 143.379Z" fill="#24221E"/>
<path d="M183.969 137.714C213.04 112.246 222.061 74.9981 204.119 54.5175C186.177 34.0369 148.066 38.0795 118.995 63.5469C89.9243 89.0143 80.9027 126.263 98.8448 146.743C116.787 167.224 154.898 163.181 183.969 137.714Z" fill="white"/>
<path d="M166.005 46.4978C135.702 48.9548 104.636 75.1978 96.6143 105.06L206.353 96.1768C214.375 66.2868 196.308 44.0478 166.005 46.4978Z" fill="#E3AC1E"/>
<path opacity="0.7" d="M96.6002 105.06L151.473 100.615L122.955 65.4749C110.397 76.0869 100.625 90.1149 96.6002 105.06Z" fill="white"/>
<path opacity="0.4" d="M166.005 46.4979C150.857 47.7299 135.513 54.8979 122.955 65.4889L151.487 100.615L166.005 46.4979Z" fill="white"/>
<path opacity="0.1" d="M166.005 46.4979L151.487 100.615L200.55 59.2099C193.249 50.2219 181.16 45.2729 166.005 46.4979Z" fill="white"/>
<path d="M164.734 115.758C176.596 105.366 180.278 90.1698 172.959 81.8153C165.64 73.4608 150.091 75.1119 138.23 85.5032C126.368 95.8944 122.686 111.091 130.005 119.445C137.324 127.8 152.873 126.149 164.734 115.758Z" fill="white"/>
<path d="M159.217 109.46C166.138 103.397 168.285 94.5288 164.013 89.6522C159.741 84.7756 150.667 85.7374 143.746 91.8004C136.826 97.8635 134.678 106.732 138.951 111.608C143.223 116.485 152.296 115.523 159.217 109.46Z" fill="#24221E"/>
<path d="M192.556 71.6699C179.501 76.5997 167.123 83.1619 155.715 91.1999L160.874 100.44C172.539 92.1412 183.175 82.4833 192.556 71.6699Z" fill="#24221E"/>
<path d="M102.9 125.717C102.737 125.725 102.575 125.696 102.425 125.631C102.276 125.566 102.143 125.467 102.038 125.342C101.933 125.218 101.858 125.07 101.82 124.912C101.781 124.753 101.779 124.588 101.815 124.429C101.897 124.035 102.1 123.677 102.397 123.406C102.693 123.134 103.068 122.963 103.467 122.917L163.8 118.136C163.971 118.11 164.145 118.126 164.308 118.183C164.471 118.239 164.617 118.335 164.734 118.461C164.852 118.588 164.936 118.741 164.981 118.907C165.026 119.074 165.029 119.249 164.99 119.417C164.911 119.81 164.709 120.167 164.413 120.438C164.118 120.708 163.744 120.878 163.345 120.922L103.061 125.71L102.9 125.717Z" fill="#871E35"/>
<path d="M155.085 131.457C154.922 131.467 154.759 131.438 154.608 131.374C154.458 131.309 154.325 131.21 154.219 131.085C154.114 130.96 154.039 130.812 154.001 130.653C153.963 130.494 153.963 130.328 154 130.169C154.08 129.775 154.283 129.417 154.58 129.146C154.877 128.875 155.253 128.707 155.652 128.664L175.252 127.103C175.423 127.076 175.598 127.091 175.762 127.147C175.926 127.203 176.073 127.298 176.192 127.425C176.31 127.551 176.395 127.705 176.44 127.872C176.485 128.039 176.488 128.215 176.449 128.384C176.369 128.778 176.166 129.137 175.869 129.408C175.572 129.68 175.197 129.851 174.797 129.896L155.197 131.45L155.085 131.457Z" fill="#871E35"/>
<path d="M55.4053 156.531C55.2424 156.539 55.0798 156.51 54.9302 156.445C54.7806 156.38 54.6481 156.281 54.543 156.156C54.438 156.032 54.3632 155.884 54.3245 155.726C54.2859 155.567 54.2844 155.402 54.3203 155.243C54.4034 154.846 54.6112 154.486 54.9135 154.215C55.2157 153.944 55.5964 153.777 56.0003 153.738L75.6003 152.177C75.7709 152.151 75.9452 152.168 76.1082 152.224C76.2711 152.281 76.4178 152.377 76.5356 152.503C76.6534 152.629 76.7388 152.782 76.7844 152.948C76.83 153.114 76.8344 153.289 76.7973 153.458C76.7174 153.851 76.5153 154.209 76.2199 154.481C75.9245 154.752 75.5508 154.923 75.1523 154.97L55.5523 156.524L55.4053 156.531Z" fill="#871E35"/>
<path d="M72.8632 145.072C72.7005 145.081 72.538 145.051 72.3886 144.986C72.2392 144.921 72.107 144.822 72.0024 144.697C71.8978 144.572 71.8237 144.425 71.786 144.266C71.7483 144.108 71.7481 143.943 71.7852 143.784C71.8655 143.392 72.0678 143.035 72.3633 142.764C72.6588 142.494 73.0323 142.324 73.4302 142.279L132.23 137.61C132.401 137.584 132.575 137.601 132.738 137.657C132.901 137.714 133.048 137.81 133.166 137.936C133.283 138.062 133.369 138.215 133.414 138.381C133.46 138.547 133.464 138.722 133.427 138.891C133.346 139.285 133.143 139.643 132.846 139.914C132.549 140.186 132.175 140.357 131.775 140.403L72.9752 145.065L72.8632 145.072Z" fill="#871E35"/>
<path d="M199.073 207.932L201.565 212.965L213.892 208.534L211.4 203.501L199.073 207.932Z" fill="#FFBE9D"/>
<path d="M139.139 249.323L142.884 253.516L152.404 242.701L147.791 239.495L139.139 249.323Z" fill="#FFBE9D"/>
<path d="M143.738 253.075L141.19 246.712C141.15 246.61 141.075 246.526 140.979 246.474C140.883 246.421 140.772 246.404 140.665 246.425L135.688 247.475C135.565 247.502 135.45 247.556 135.351 247.632C135.251 247.709 135.17 247.806 135.112 247.918C135.055 248.03 135.023 248.153 135.018 248.278C135.014 248.404 135.037 248.528 135.086 248.644C135.94 250.674 136.654 252.144 137.683 254.692C138.32 256.281 140.07 261.132 140.952 263.323C141.834 265.514 144.067 264.842 143.906 263.855C143.157 259.452 143.136 255.889 143.759 254.09C143.879 253.761 143.872 253.399 143.738 253.075Z" fill="#24221E"/>
<path d="M202.132 212.643L199.409 207.141C199.359 207.042 199.277 206.963 199.177 206.916C199.077 206.87 198.964 206.857 198.856 206.882L193.886 208.107C193.765 208.134 193.651 208.19 193.555 208.268C193.458 208.346 193.381 208.446 193.329 208.559C193.277 208.672 193.251 208.795 193.254 208.919C193.258 209.044 193.289 209.166 193.347 209.276C194.362 211.243 195.895 214.05 197.134 216.542C198.576 219.461 198.772 219.552 200.466 222.968C201.488 225.033 203.861 224.578 203.623 223.619C202.531 219.251 201.922 218.495 202.342 214.05C202.404 213.57 202.331 213.083 202.132 212.643Z" fill="#24221E"/>
<path d="M250.6 117.443C250.341 119.263 250.061 121.223 249.844 123.12C249.627 125.017 249.41 126.949 249.249 128.86C248.878 132.595 248.766 136.351 248.913 140.102C248.913 140.557 248.955 141.012 249.011 141.439L249.137 142.685C249.135 143.054 249.25 143.415 249.465 143.715C249.68 144.015 249.984 144.24 250.334 144.358C250.968 144.649 251.64 144.851 252.329 144.96C254.053 145.216 255.799 145.281 257.537 145.156C258.454 145.093 259.392 145.023 260.337 144.911C261.282 144.799 262.241 144.652 263.137 144.519L264.495 148.516C263.527 148.971 262.537 149.375 261.527 149.727C260.53 150.098 259.513 150.416 258.482 150.679C257.425 150.959 256.352 151.176 255.269 151.33C254.125 151.505 252.968 151.58 251.811 151.554C250.512 151.538 249.221 151.343 247.975 150.973C246.457 150.512 245.076 149.683 243.957 148.558C242.792 147.338 241.987 145.818 241.633 144.169C241.584 143.952 241.563 143.833 241.542 143.693L241.472 143.287L241.325 142.461C241.22 141.915 241.15 141.376 241.087 140.837C240.632 136.653 240.543 132.437 240.821 128.237C240.954 126.179 241.101 124.135 241.353 122.105C241.605 120.075 241.85 118.08 242.242 115.973L250.6 117.443Z" fill="#FFBE9D"/>
<path d="M241.633 112.375C237.951 116.288 239.435 126.165 239.435 126.165L249.781 127.775C249.781 127.775 252.182 122.175 251.279 116.4C250.173 109.386 245.658 108.07 241.633 112.375Z" fill="#871E35"/>
<path opacity="0.2" d="M245 116.708C243.292 114.51 241.5 113.726 240.548 113.908C238.259 118.395 239.421 126.137 239.421 126.137L246.75 127.327C247.59 125.052 247.695 120.145 245 116.708Z" fill="#24221E"/>
<path d="M261.758 145.128L267.757 141.194L269.087 147.284C269.087 147.284 265.356 151.064 262.248 148.397L261.758 145.128Z" fill="#FFBE9D"/>
<path d="M271.446 139.878L272.139 145.142L269.087 147.284L267.75 141.194L271.446 139.878Z" fill="#FFBE9D"/>
<path opacity="0.2" d="M213.885 208.541L207.536 210.823L205.044 205.783L211.393 203.501L213.885 208.541Z" fill="#24221E"/>
<path opacity="0.2" d="M147.791 239.495L152.404 242.701L147.938 247.769L143.325 244.556L147.791 239.495Z" fill="#24221E"/>
<path d="M220.318 98.8719C216.062 120.649 204.729 140.298 203.147 144.638C207.207 146.339 222.53 152.723 230.881 156.202C246.456 133.025 248.843 116.253 249.2 112.193C249.225 111.903 249.174 111.611 249.051 111.347C248.928 111.083 248.738 110.856 248.5 110.688C247.835 110.205 246.771 109.449 245.476 108.588C244.776 108.14 244.027 107.671 243.222 107.188C242.781 106.929 242.326 106.677 241.864 106.432C238.029 104.574 234.091 102.938 230.069 101.532C229.313 101.259 228.536 100.993 227.773 100.755C227.01 100.517 226.373 100.328 225.708 100.146C222.726 99.3479 220.318 98.8719 220.318 98.8719Z" fill="#871E35"/>
<path d="M236.992 129.924L238.525 130.316C237.514 131.294 236.282 132.014 234.934 132.416C233.394 132.877 231.755 132.901 230.202 132.486C228.827 132.205 227.569 131.517 226.59 130.512C226.178 130.047 225.864 129.504 225.669 128.914C225.474 128.324 225.402 127.701 225.456 127.082C225.558 125.611 225.973 124.179 226.674 122.882C227.488 121.297 228.583 119.873 229.908 118.682C231.101 117.563 232.54 116.738 234.108 116.274C235.519 115.87 237.011 115.845 238.434 116.204C239.518 116.437 240.499 117.011 241.234 117.842C241.913 118.663 242.258 119.711 242.2 120.775C242.147 122 241.814 123.198 241.227 124.275C240.487 125.711 239.414 126.95 238.098 127.887C236.397 129.112 234.808 129.532 233.338 129.161C233.184 129.139 233.035 129.086 232.902 129.005C232.768 128.925 232.652 128.818 232.561 128.692C232.453 128.43 232.453 128.135 232.561 127.873C231.835 128.338 230.958 128.506 230.111 128.342C229.747 128.269 229.412 128.091 229.148 127.83C228.885 127.568 228.703 127.235 228.627 126.872C228.463 125.915 228.654 124.932 229.166 124.107C229.839 122.787 230.795 121.633 231.966 120.726C233.413 119.592 234.736 119.174 235.935 119.473C236.314 119.536 236.656 119.737 236.896 120.036C237.136 120.336 237.258 120.713 237.237 121.097L237.895 120.208L239.792 120.691L235.592 126.466C235.417 126.689 235.256 126.923 235.109 127.166C235.048 127.27 235.019 127.389 235.025 127.509C235.032 127.546 235.05 127.58 235.076 127.608C235.102 127.635 235.135 127.654 235.172 127.663C235.57 127.688 235.967 127.596 236.313 127.397C237.093 127.063 237.805 126.589 238.413 125.997C239.063 125.392 239.607 124.682 240.023 123.897C240.359 123.33 240.578 122.702 240.666 122.048C240.754 121.395 240.709 120.731 240.534 120.096C240.156 118.948 239.204 118.183 237.678 117.8C236.435 117.471 235.123 117.505 233.898 117.898C232.618 118.324 231.456 119.043 230.503 119.998C229.492 120.973 228.646 122.105 227.997 123.351C227.422 124.406 227.112 125.586 227.094 126.788C227.079 127.281 227.164 127.773 227.345 128.233C227.525 128.692 227.797 129.11 228.144 129.462C228.931 130.191 229.897 130.699 230.944 130.932C232.003 131.216 233.108 131.277 234.192 131.114C235.202 130.931 236.159 130.524 236.992 129.924ZM231 124.499C230.687 124.996 230.533 125.578 230.559 126.165C230.577 126.342 230.65 126.509 230.768 126.642C230.886 126.775 231.043 126.868 231.217 126.907C231.511 126.976 231.819 126.961 232.106 126.865C232.394 126.771 232.668 126.637 232.918 126.466C233.457 126.091 233.941 125.64 234.353 125.129C234.828 124.587 235.239 123.993 235.578 123.358C235.865 122.893 235.995 122.348 235.949 121.804C235.927 121.62 235.848 121.448 235.722 121.312C235.596 121.176 235.431 121.084 235.249 121.048C234.753 120.957 234.242 121.054 233.814 121.321C233.192 121.679 232.645 122.155 232.204 122.721C231.742 123.27 231.338 123.866 231 124.499Z" fill="white"/>
<path d="M236.803 88.8899C235.97 92.9919 233.814 100.258 230.104 101.679C231.308 104.591 233.016 108.084 237.461 110.121C241.906 112.158 242.403 108.721 241.892 106.621C238.084 103.821 239.505 100.755 241.465 98.1159L236.803 88.8899Z" fill="#FFBE9D"/>
<path opacity="0.2" d="M238.7 92.6418L241.458 98.0809C240.99 98.6911 240.577 99.3424 240.226 100.027C238.707 99.1169 237.223 96.4148 237.755 94.6508C237.946 93.9296 238.266 93.249 238.7 92.6418Z" fill="#24221E"/>
<path d="M247.996 89.0439C252.385 89.3659 256.27 78.4179 249.865 77.1439C245.546 76.2829 245.588 78.8659 245.133 81.6939C244.678 84.5219 245.217 88.8409 247.996 89.0439Z" fill="#24221E"/>
<path d="M237.3 83.4999C236.173 88.9599 235.235 92.0959 237.195 95.5959C240.149 100.853 247.443 100.195 250.187 95.1829C252.651 90.6679 254.086 82.4989 249.41 78.9289C248.383 78.1378 247.17 77.6224 245.887 77.4316C244.604 77.2409 243.294 77.3812 242.081 77.8391C240.868 78.2971 239.792 79.0575 238.955 80.0482C238.118 81.039 237.549 82.2271 237.3 83.4999Z" fill="#FFBE9D"/>
<path d="M236.369 87.4059C240.758 87.7279 243.698 77.7179 237.293 76.4369C232.974 75.5759 232.61 78.1029 232.68 80.8049C232.75 83.6749 233.583 87.1749 236.369 87.4059Z" fill="#24221E"/>
<path d="M239.911 79.7479C242.872 81.1829 257.145 84.2559 256.326 78.1169C255.507 71.9779 247.884 69.1289 247.884 69.1289C247.884 69.1289 252.322 73.9939 248.661 72.8249C245 71.6559 243.95 70.8019 239.561 70.0249C239.561 70.0249 243.873 73.6019 238.861 72.5939C235.954 71.967 232.917 72.4514 230.349 73.9519C231.622 74.8082 232.639 75.9947 233.29 77.3843C233.941 78.7739 234.202 80.3144 234.045 81.8409C233.702 87.2379 239.911 79.7479 239.911 79.7479Z" fill="#24221E"/>
<path d="M233.8 87.665C233.993 88.9352 234.676 90.0789 235.704 90.85C237.048 91.837 238.273 90.703 238.364 89.065C238.441 87.5879 237.839 85.2919 236.264 84.9629C234.689 84.6339 233.59 86.0829 233.8 87.665Z" fill="#FFBE9D"/>
<path d="M212.744 148.642L206.906 167.444L236.957 186.344C231.77 194.996 205.415 203.606 205.415 203.606L209.615 212.132C209.615 212.132 246.316 209.332 253.757 193.106C260.918 177.524 230.867 156.202 230.867 156.202L212.744 148.642Z" fill="#24221E"/>
<path opacity="0.2" d="M216.643 173.569L211.4 170.286L217.854 160.906C217.854 160.906 218.036 168.424 216.643 173.569Z" fill="#24221E"/>
<path opacity="0.2" d="M216.643 173.569L211.4 170.286L217.854 160.906C217.854 160.906 218.036 168.424 216.643 173.569Z" fill="#24221E"/>
<path d="M224.371 153.493C224.371 153.493 200.137 193.799 190.134 206.875C179.179 221.197 150.815 248.175 150.815 248.175L142.366 242.295C142.366 242.295 166.866 215.289 176.099 200.344C186.634 183.32 203.147 144.624 203.147 144.624L224.371 153.493Z" fill="#24221E"/>
<path d="M151.697 249.071L141.75 242.155L143.815 239.18L155.071 246.719L151.697 249.071Z" fill="#871E35"/>
<path d="M209.965 213.301L204.932 203.144L208.215 201.52L214.011 212.79L209.965 213.301Z" fill="#871E35"/>
<path d="M245.049 87.2168C244.93 87.6508 245.049 88.0708 245.35 88.1478C245.651 88.2248 245.966 87.9378 246.085 87.4968C246.204 87.0558 246.085 86.6428 245.777 86.5658C245.469 86.4888 245.168 86.7828 245.049 87.2168Z" fill="#24221E"/>
<path d="M249.991 88.5748C249.872 89.0158 249.991 89.4289 250.292 89.5059C250.593 89.5829 250.908 89.2958 251.027 88.8548C251.146 88.4138 251.027 88.0008 250.726 87.9238C250.425 87.8468 250.11 88.1268 249.991 88.5748Z" fill="#24221E"/>
<path d="M248.36 88.3508C248.518 89.8304 248.879 91.2812 249.431 92.6628C249.073 92.7942 248.692 92.846 248.312 92.8146C247.932 92.7832 247.564 92.6693 247.233 92.4808L248.36 88.3508Z" fill="#E3AC1E"/>
<path d="M245.077 93.1529C244.603 92.9635 244.172 92.6796 243.811 92.3186C243.45 91.9576 243.166 91.527 242.977 91.0529C242.968 91.0186 242.973 90.9821 242.989 90.951C243.006 90.9198 243.034 90.8962 243.068 90.8849C243.101 90.8756 243.137 90.879 243.168 90.8945C243.199 90.9101 243.223 90.9366 243.236 90.9689C243.451 91.4867 243.785 91.9467 244.21 92.3115C244.636 92.6763 245.141 92.9358 245.686 93.0689C245.704 93.0721 245.72 93.0789 245.735 93.089C245.75 93.0991 245.762 93.1121 245.771 93.1274C245.78 93.1426 245.786 93.1596 245.789 93.1773C245.791 93.1949 245.789 93.2129 245.784 93.2299C245.779 93.2471 245.771 93.2631 245.76 93.277C245.749 93.2909 245.735 93.3025 245.719 93.311C245.704 93.3195 245.686 93.3247 245.669 93.3264C245.651 93.3281 245.633 93.3262 245.616 93.3209C245.433 93.2779 245.252 93.2217 245.077 93.1529Z" fill="#24221E"/>
<path d="M243.957 85.2079C243.916 85.1879 243.88 85.1593 243.852 85.1239C243.83 85.0966 243.814 85.0652 243.805 85.0315C243.795 84.9978 243.793 84.9626 243.797 84.9279C243.802 84.8932 243.813 84.8599 243.831 84.8298C243.849 84.7997 243.873 84.7735 243.901 84.7529C244.229 84.4863 244.617 84.3021 245.031 84.2157C245.445 84.1292 245.873 84.143 246.281 84.2559C246.347 84.2811 246.401 84.3309 246.431 84.3949C246.461 84.4589 246.465 84.532 246.442 84.5989C246.418 84.6644 246.37 84.7179 246.307 84.748C246.244 84.7781 246.172 84.7824 246.106 84.7599C245.782 84.6733 245.442 84.6657 245.114 84.7375C244.787 84.8094 244.481 84.9587 244.223 85.1729C244.185 85.2005 244.141 85.2182 244.094 85.2243C244.048 85.2304 244.001 85.2248 243.957 85.2079Z" fill="#24221E"/>
<path d="M252.581 87.4409C252.541 87.4238 252.506 87.3969 252.479 87.3627C252.452 87.3284 252.434 87.2879 252.427 87.2449C252.375 86.9143 252.246 86.6007 252.048 86.3304C251.851 86.0601 251.592 85.8409 251.293 85.6909C251.258 85.6796 251.226 85.6611 251.199 85.6367C251.171 85.6124 251.149 85.5826 251.134 85.5493C251.118 85.516 251.11 85.4798 251.109 85.4432C251.109 85.4065 251.116 85.3701 251.13 85.3362C251.144 85.3023 251.165 85.2717 251.191 85.2463C251.217 85.2208 251.249 85.2012 251.283 85.1885C251.318 85.1758 251.354 85.1703 251.391 85.1725C251.428 85.1746 251.463 85.1843 251.496 85.2009C251.876 85.3853 252.206 85.6583 252.458 85.997C252.71 86.3357 252.877 86.7301 252.945 87.1469C252.952 87.181 252.952 87.2161 252.945 87.2502C252.939 87.2844 252.925 87.3168 252.905 87.3455C252.886 87.3743 252.861 87.3988 252.831 87.4176C252.802 87.4364 252.769 87.4491 252.735 87.4549C252.684 87.4681 252.629 87.4631 252.581 87.4409Z" fill="#24221E"/>
<path d="M143.535 255.224C143.358 254.757 143.236 254.27 143.171 253.775C143.167 253.748 143.17 253.72 143.182 253.695C143.193 253.671 143.211 253.649 143.234 253.635C143.254 253.62 143.279 253.612 143.304 253.612C143.329 253.612 143.354 253.62 143.374 253.635C143.57 253.768 145.257 254.993 145.201 255.7C145.193 255.779 145.165 255.854 145.12 255.919C145.075 255.984 145.013 256.036 144.942 256.071C144.827 256.134 144.698 256.167 144.568 256.167C144.437 256.167 144.308 256.134 144.193 256.071C143.884 255.871 143.653 255.572 143.535 255.224ZM143.5 254.055C143.675 255.021 143.983 255.686 144.333 255.868C144.413 255.907 144.501 255.924 144.59 255.918C144.678 255.912 144.764 255.883 144.837 255.833C144.935 255.791 144.949 255.735 144.949 255.693C144.97 255.329 144.144 254.566 143.5 254.055Z" fill="#871E35"/>
<path d="M143.178 253.775C143.171 253.757 143.168 253.739 143.169 253.72C143.17 253.701 143.174 253.683 143.182 253.666C143.19 253.649 143.201 253.634 143.214 253.621C143.228 253.609 143.244 253.599 143.262 253.593C143.325 253.593 144.851 253.033 145.586 253.418C145.676 253.463 145.755 253.527 145.818 253.606C145.88 253.684 145.926 253.775 145.95 253.873C145.988 253.968 145.992 254.072 145.963 254.17C145.934 254.268 145.872 254.353 145.789 254.412C145.264 254.776 143.689 254.237 143.213 253.831C143.197 253.815 143.186 253.796 143.178 253.775ZM145.677 253.894C145.634 253.794 145.557 253.712 145.46 253.663C144.846 253.505 144.198 253.541 143.605 253.768C144.221 254.125 145.334 254.405 145.649 254.188C145.649 254.188 145.74 254.125 145.698 253.957L145.677 253.894Z" fill="#871E35"/>
<path d="M201.684 213.483C201.68 213.459 201.683 213.434 201.693 213.412C201.703 213.389 201.719 213.37 201.74 213.357C201.763 213.342 201.789 213.334 201.817 213.334C201.844 213.334 201.871 213.342 201.894 213.357C202.125 213.532 204.148 215.044 204.113 215.828C204.11 215.9 204.088 215.97 204.05 216.031C204.012 216.093 203.959 216.143 203.896 216.178C203.795 216.249 203.677 216.293 203.554 216.304C203.431 216.315 203.308 216.293 203.196 216.241C202.433 215.933 201.915 214.393 201.677 213.504L201.684 213.483ZM203.847 215.758C203.791 215.317 202.825 214.428 202.048 213.812C202.419 215.016 202.874 215.821 203.301 215.996C203.374 216.027 203.454 216.039 203.534 216.032C203.613 216.025 203.689 215.998 203.756 215.954C203.783 215.943 203.807 215.923 203.823 215.898C203.839 215.873 203.848 215.844 203.847 215.814V215.758Z" fill="#871E35"/>
<path d="M220.535 108.399L218.323 106.922C217.56 106.425 216.783 105.942 216.006 105.459C214.445 104.5 212.863 103.59 211.267 102.715C209.671 101.84 208.054 101.042 206.423 100.328C205.611 99.9569 204.792 99.6279 203.973 99.3129L202.748 98.8789L202.44 98.7739L202.286 98.7179C202.286 98.7179 202.237 98.7179 202.174 98.6689C201.586 98.619 200.995 98.6544 200.417 98.7739C199.612 98.9217 198.817 99.1204 198.037 99.3689C196.318 99.9162 194.629 100.552 192.976 101.273C189.581 102.736 186.123 104.402 182.763 106.103L180.39 102.603C183.427 100.017 186.664 97.6766 190.071 95.6029C191.835 94.5288 193.666 93.5679 195.552 92.7259C196.575 92.2825 197.625 91.9038 198.695 91.5919C199.982 91.1969 201.325 91.0103 202.671 91.0389C203.113 91.0617 203.553 91.1155 203.987 91.1999L204.316 91.2769L204.512 91.3259L204.897 91.4239L206.437 91.8229C207.445 92.1239 208.46 92.4249 209.426 92.7959C211.367 93.4892 213.268 94.2931 215.117 95.2039C216.958 96.0859 218.743 97.0659 220.486 98.1019C221.347 98.6339 222.208 99.1729 223.055 99.7329C223.902 100.293 224.714 100.853 225.624 101.532L220.535 108.399Z" fill="#FFBE9D"/>
<path d="M228.9 102.456C227.661 99.3899 215.95 95.1969 215.95 95.1969L212.163 105.081C212.163 105.081 216.258 107.79 219.653 109.82C226.1 113.705 231.322 108.49 228.9 102.456Z" fill="#871E35"/>
<path d="M183.89 104.626L181.517 109.771L177.898 105.081C177.898 105.081 180.628 100.489 182.574 102.281L183.89 104.626Z" fill="#FFBE9D"/>
<path d="M176.512 111.388L174.678 107.272L177.898 105.081L181.517 109.771L176.512 111.388Z" fill="#FFBE9D"/>
</svg>
