<svg width="24" height="24" viewBox="0 0 24 24" fill="none" xmlns="http://www.w3.org/2000/svg">
<mask id="mask0_4001_2399" style="mask-type:luminance" maskUnits="userSpaceOnUse" x="0" y="0" width="24" height="24">
<path d="M24 0.480042H0V23.52H24V0.480042Z" fill="white"/>
</mask>
<g mask="url(#mask0_4001_2399)">
<path d="M12.67 2.60841L21.17 7.16841C21.4195 7.288 21.6294 7.472 21.776 7.69974C21.9226 7.92749 22.0002 8.18997 22 8.45769V9.84012C22 10.5025 21.44 11.0401 20.75 11.0401H20V18.7201H21C21.2652 18.7201 21.5196 18.8212 21.7071 19.0013C21.8946 19.1813 22 19.4255 22 19.6801C22 19.9347 21.8946 20.1788 21.7071 20.3589C21.5196 20.5389 21.2652 20.6401 21 20.6401H3C2.73478 20.6401 2.48043 20.5389 2.29289 20.3589C2.10536 20.1788 2 19.9347 2 19.6801C2 19.4255 2.10536 19.1813 2.29289 19.0013C2.48043 18.8212 2.73478 18.7201 3 18.7201H4V11.0401H3.25C2.56 11.0401 2 10.5025 2 9.84012V8.45769C2 7.95657 2.27 7.49577 2.706 7.23465L11.329 2.60841C11.5373 2.50838 11.7671 2.4563 12 2.4563C12.2329 2.4563 12.4617 2.50838 12.67 2.60841ZM18 11.0401H6V18.7201H9V12.9601H11V18.7201H13V12.9601H15V18.7201H18V11.0401ZM12 4.43337L4 8.75337V9.12009H20V8.75337L12 4.43337ZM12 6.24009C12.2652 6.24009 12.5196 6.34124 12.7071 6.52127C12.8946 6.7013 13 6.94549 13 7.20009C13 7.4547 12.8946 7.69888 12.7071 7.87892C12.5196 8.05895 12.2652 8.16009 12 8.16009C11.7348 8.16009 11.4804 8.05895 11.2929 7.87892C11.1054 7.69888 11 7.4547 11 7.20009C11 6.94549 11.1054 6.7013 11.2929 6.52127C11.4804 6.34124 11.7348 6.24009 12 6.24009Z" fill="#24221E"/>
</g>
</svg>
