<svg width="24" height="24" viewBox="0 0 24 24" fill="none" xmlns="http://www.w3.org/2000/svg">
<path d="M17.4048 22.0801C16.32 22.0801 15.1776 21.8209 13.9968 21.3217C12.8448 20.8321 11.6832 20.1601 10.5504 19.3441C9.42718 18.5185 8.34238 17.5969 7.31518 16.5889C6.29758 15.5617 5.37598 14.4769 4.55998 13.3633C3.73438 12.2113 3.07198 11.0593 2.60158 9.94571C2.10238 8.75532 1.85278 7.60332 1.85278 6.51852C1.85278 5.76972 1.98718 5.05932 2.24638 4.39692C2.51518 3.71532 2.94718 3.08172 3.53278 2.53452C4.27198 1.80492 5.11678 1.44012 6.01918 1.44012C6.39358 1.44012 6.77758 1.52652 7.10398 1.68012C7.47838 1.85292 7.79518 2.11212 8.02558 2.45772L10.2528 5.59692C10.4544 5.87532 10.608 6.14412 10.7136 6.41292C10.8384 6.70092 10.9056 6.98892 10.9056 7.26732C10.9056 7.63212 10.8 7.98733 10.5984 8.32333C10.4544 8.58253 10.2336 8.86093 9.95515 9.13933L9.30238 9.82092C9.31198 9.84972 9.32158 9.86891 9.33118 9.88811C9.44638 10.0897 9.67675 10.4353 10.1184 10.9537C10.5888 11.4913 11.0304 11.9809 11.472 12.4321C12.0384 12.9889 12.5088 13.4305 12.9504 13.7953C13.4976 14.2561 13.8528 14.4865 14.064 14.5921L14.0448 14.6401L14.7456 13.9489C15.0432 13.6513 15.3312 13.4305 15.6096 13.2865C16.1376 12.9601 16.8096 12.9025 17.4816 13.1809C17.7312 13.2865 18 13.4305 18.288 13.6321L21.4752 15.8977C21.8304 16.1377 22.0896 16.4449 22.2432 16.8097C22.3872 17.1745 22.4544 17.5105 22.4544 17.8465C22.4544 18.3073 22.3488 18.7681 22.1472 19.2001C21.9456 19.6321 21.696 20.0065 21.3792 20.3521C20.832 20.9569 20.2368 21.3889 19.5456 21.6673C18.8832 21.9361 18.1632 22.0801 17.4048 22.0801ZM6.01918 2.88012C5.49118 2.88012 5.00158 3.11052 4.53118 3.57132C4.08958 3.98412 3.78238 4.43532 3.59038 4.92492C3.38878 5.42412 3.29278 5.95212 3.29278 6.51852C3.29278 7.41132 3.50398 8.38092 3.92638 9.37932C4.35838 10.3969 4.96318 11.4529 5.73118 12.5089C6.49918 13.5649 7.37278 14.5921 8.33278 15.5617C9.29278 16.5121 10.3296 17.3953 11.3952 18.1729C12.432 18.9313 13.4976 19.5457 14.5536 19.9873C16.1952 20.6881 17.7312 20.8513 18.9984 20.3233C19.488 20.1217 19.92 19.8145 20.3136 19.3729C20.5344 19.1329 20.7072 18.8737 20.8512 18.5665C20.9664 18.3265 21.024 18.0769 21.024 17.8273C21.024 17.6737 20.9952 17.5201 20.9184 17.3473C20.8896 17.2897 20.832 17.1841 20.6496 17.0593L17.4624 14.7937C17.2704 14.6593 17.0976 14.5633 16.9344 14.4961C16.7232 14.4097 16.6368 14.3233 16.3104 14.5249C16.1184 14.6209 15.9456 14.7649 15.7536 14.9569L15.024 15.6769C14.6496 16.0417 14.0736 16.1281 13.632 15.9649L13.3728 15.8497C12.9792 15.6385 12.5184 15.3121 12.0096 14.8801C11.5488 14.4865 11.0496 14.0257 10.4448 13.4305C9.97435 12.9505 9.50398 12.4417 9.01438 11.8753C8.56318 11.3473 8.23678 10.8961 8.03518 10.5217L7.91998 10.2337C7.86238 10.0129 7.84318 9.88811 7.84318 9.75371C7.84318 9.40812 7.96798 9.10092 8.20798 8.86092L8.92798 8.11212C9.11998 7.92012 9.26398 7.73772 9.35998 7.57452C9.43678 7.44972 9.46558 7.34412 9.46558 7.24812C9.46558 7.17132 9.43678 7.05612 9.38878 6.94092C9.32158 6.78732 9.21598 6.61452 9.08158 6.43212L6.85438 3.28332C6.75838 3.14892 6.64318 3.05292 6.49918 2.98572C6.34558 2.91852 6.18238 2.88012 6.01918 2.88012ZM14.0448 14.6497L13.8912 15.3025L14.1504 14.6305C14.1024 14.6209 14.064 14.6305 14.0448 14.6497Z" fill="#24221E"/>
<path d="M19.8527 9.40811C19.4591 9.40811 19.1327 9.08171 19.1327 8.68811V4.80011H15.2447C14.8511 4.80011 14.5247 4.47371 14.5247 4.08011C14.5247 3.68651 14.8511 3.36011 15.2447 3.36011H19.8527C20.2463 3.36011 20.5727 3.68651 20.5727 4.08011V8.68811C20.5727 9.08171 20.2463 9.40811 19.8527 9.40811Z" fill="#24221E"/>
</svg>
