<svg width="24" height="24" viewBox="0 0 24 24" fill="none" xmlns="http://www.w3.org/2000/svg">
<path d="M14.2679 4.32007H10.4279C6.80783 4.32007 4.99727 4.32007 3.87311 5.44519C3.06287 6.25447 2.83631 7.41991 2.77295 9.36007H21.9231C21.8597 7.41991 21.6331 6.25447 20.8228 5.44519C19.6987 4.32007 17.8881 4.32007 14.2679 4.32007Z" fill="#24221E"/>
<path fill-rule="evenodd" clip-rule="evenodd" d="M14.268 19.6801H10.428C6.80789 19.6801 4.99733 19.6801 3.87317 18.555C2.74805 17.4308 2.74805 15.6203 2.74805 12.0001C2.74805 11.5758 2.74805 11.1764 2.74997 10.8001H21.9461C21.948 11.1764 21.948 11.5758 21.948 12.0001C21.948 15.6203 21.948 17.4308 20.8229 18.555C19.6987 19.6801 17.8882 19.6801 14.268 19.6801ZM16.2312 12.2401C16.6469 12.2401 17.028 12.2401 17.3371 12.2814C17.6789 12.3275 18.0389 12.435 18.3355 12.7326C18.6331 13.0292 18.7406 13.3892 18.7867 13.731C18.828 14.0411 18.828 14.4222 18.828 14.8369V14.9233C18.828 15.339 18.828 15.7201 18.7867 16.0292C18.7406 16.371 18.6331 16.731 18.3355 17.0276C18.0389 17.3252 17.6789 17.4327 17.3371 17.4788C17.027 17.5201 16.6459 17.5201 16.2312 17.5201H16.1448C15.7291 17.5201 15.348 17.5201 15.0389 17.4788C14.6971 17.4327 14.3371 17.3252 14.0405 17.0276C13.7429 16.731 13.6354 16.371 13.5893 16.0292C13.548 15.7191 13.548 15.338 13.548 14.9233V14.8369C13.548 14.4212 13.548 14.0401 13.5893 13.731C13.6354 13.3892 13.7429 13.0292 14.0405 12.7326C14.3371 12.435 14.6971 12.3275 15.0389 12.2814C15.349 12.2401 15.7301 12.2401 16.1448 12.2401H16.2312ZM5.86805 13.4401C5.86805 13.2491 5.94391 13.066 6.07893 12.9309C6.21395 12.7959 6.39709 12.7201 6.58805 12.7201H8.50805C8.699 12.7201 8.88214 12.7959 9.01716 12.9309C9.15219 13.066 9.22805 13.2491 9.22805 13.4401C9.22805 13.6311 9.15219 13.8141 9.01716 13.9492C8.88214 14.0842 8.699 14.1601 8.50805 14.1601H6.58805C6.39709 14.1601 6.21395 14.0842 6.07893 13.9492C5.94391 13.8141 5.86805 13.6311 5.86805 13.4401ZM5.86805 16.3201C5.86805 16.1291 5.94391 15.946 6.07893 15.8109C6.21395 15.6759 6.39709 15.6001 6.58805 15.6001H10.428C10.619 15.6001 10.8021 15.6759 10.9372 15.8109C11.0722 15.946 11.148 16.1291 11.148 16.3201C11.148 16.5111 11.0722 16.6941 10.9372 16.8292C10.8021 16.9642 10.619 17.0401 10.428 17.0401H6.58805C6.39709 17.0401 6.21395 16.9642 6.07893 16.8292C5.94391 16.6941 5.86805 16.5111 5.86805 16.3201Z" fill="#24221E"/>
<path d="M15.0581 13.7502L15.061 13.7492C15.1157 13.7284 15.1728 13.7149 15.2309 13.7089C15.4325 13.682 15.7148 13.6801 16.188 13.6801C16.6613 13.6801 16.9436 13.682 17.1452 13.7089C17.2033 13.7149 17.2605 13.7284 17.3151 13.7492L17.318 13.7502L17.3189 13.7531C17.3397 13.8077 17.3533 13.8648 17.3592 13.923C17.3861 14.1246 17.388 14.4068 17.388 14.8801C17.388 15.3534 17.3861 15.6356 17.3592 15.8372C17.3533 15.8953 17.3397 15.9524 17.3189 16.0072L17.318 16.01L17.3151 16.011C17.2605 16.0317 17.2033 16.0453 17.1452 16.0513C16.9436 16.0782 16.6613 16.0801 16.188 16.0801C15.7148 16.0801 15.4325 16.0782 15.2309 16.0513C15.1728 16.0453 15.1157 16.0317 15.061 16.011L15.0581 16.01L15.0572 16.0072C15.0364 15.9524 15.0229 15.8953 15.0168 15.8372C14.99 15.6356 14.988 15.3534 14.988 14.8801C14.988 14.4068 14.99 14.1246 15.0168 13.923C15.0229 13.8648 15.0364 13.8077 15.0572 13.7531L15.0581 13.7502Z" fill="#24221E"/>
</svg>
