<svg width="24" height="24" viewBox="0 0 24 24" fill="none" xmlns="http://www.w3.org/2000/svg">
<g clip-path="url(#clip0_4001_2415)">
<mask id="mask0_4001_2415" style="mask-type:luminance" maskUnits="userSpaceOnUse" x="0" y="0" width="24" height="24">
<path d="M24 0H0V24H24V0Z" fill="white"/>
</mask>
<g mask="url(#mask0_4001_2415)">
<path d="M2.5563 16.7096L3.9963 18.1496V22C3.99693 22.5303 4.20785 23.0386 4.58278 23.4135C4.95772 23.7885 5.46606 23.9994 5.9963 24H21.9999C22.5301 23.9994 23.0385 23.7885 23.4134 23.4135C23.7883 23.0386 23.9993 22.5303 23.9999 22V12C23.9984 11.4952 23.8056 11.0097 23.4605 10.6412C23.1154 10.2727 22.6436 10.0486 22.1399 10.014C22.3416 9.63679 22.4173 9.20491 22.3559 8.78157C22.2945 8.35823 22.0992 7.96564 21.7987 7.66123L16.7051 2.56443L16.7027 2.56003H16.6991L14.7267 0.585229C14.3517 0.21102 13.8436 0.000854492 13.3139 0.000854492C12.7842 0.000854492 12.2761 0.21102 11.9011 0.585229L0.584296 11.9064C0.211222 12.2834 0.00195313 12.7923 0.00195312 13.3226C0.00195312 13.853 0.211222 14.3619 0.584296 14.7388L2.5563 16.7096ZM14.7239 1.71363L15.8539 2.84443L8.7023 10H6.4399L14.7239 1.71363ZM3.9999 14.7024L2.8399 15.8624L1.7095 14.732L3.9999 12.44V14.7024ZM3.4055 16.428L3.9999 15.8336V17.0224L3.4055 16.428ZM23.1999 12V22C23.1999 22.3183 23.0735 22.6235 22.8484 22.8486C22.6234 23.0736 22.3182 23.2 21.9999 23.2H5.9999C5.68164 23.2 5.37641 23.0736 5.15137 22.8486C4.92632 22.6235 4.7999 22.3183 4.7999 22V12C4.7999 11.6818 4.92632 11.3765 5.15137 11.1515C5.37641 10.9265 5.68164 10.8 5.9999 10.8H21.9999C22.3182 10.8 22.6234 10.9265 22.8484 11.1515C23.0735 11.3765 23.1999 11.6818 23.1999 12ZM21.2331 9.92523L21.1599 10H9.8331L16.4195 3.41043L21.2319 8.22563C21.4563 8.45145 21.5824 8.75682 21.5826 9.07518C21.5828 9.39355 21.4572 9.6991 21.2331 9.92523ZM1.1507 12.4708L12.4667 1.15083C12.6946 0.933034 12.9976 0.811294 13.3128 0.810847C13.6281 0.810401 13.9314 0.931281 14.1599 1.14843L5.0703 10.24C4.71669 10.4274 4.42743 10.7165 4.2399 11.07L1.1447 14.1656C0.923645 13.9386 0.800452 13.6339 0.801574 13.317C0.802696 13.0001 0.928043 12.6963 1.1507 12.4708Z" fill="#24221E"/>
<path d="M6.39985 15.2H8.79985C9.01203 15.2 9.21551 15.1157 9.36554 14.9657C9.51557 14.8157 9.59985 14.6122 9.59985 14.4V12.8C9.59985 12.5878 9.51557 12.3843 9.36554 12.2343C9.21551 12.0843 9.01203 12 8.79985 12H6.39985C6.18768 12 5.9842 12.0843 5.83417 12.2343C5.68414 12.3843 5.59985 12.5878 5.59985 12.8V14.4C5.59985 14.6122 5.68414 14.8157 5.83417 14.9657C5.9842 15.1157 6.18768 15.2 6.39985 15.2ZM6.39985 12.8H8.79985V14.4H6.39985V12.8ZM5.99985 17.6C6.10594 17.6 6.20768 17.5579 6.2827 17.4828C6.35771 17.4078 6.39985 17.3061 6.39985 17.2V16.4C6.39985 16.2939 6.35771 16.1922 6.2827 16.1172C6.20768 16.0421 6.10594 16 5.99985 16C5.89377 16 5.79203 16.0421 5.71701 16.1172C5.642 16.1922 5.59985 16.2939 5.59985 16.4V17.2C5.59985 17.3061 5.642 17.4078 5.71701 17.4828C5.79203 17.5579 5.89377 17.6 5.99985 17.6ZM7.59985 16C7.49377 16 7.39203 16.0421 7.31701 16.1172C7.242 16.1922 7.19985 16.2939 7.19985 16.4V17.2C7.19985 17.3061 7.242 17.4078 7.31701 17.4828C7.39203 17.5579 7.49377 17.6 7.59985 17.6C7.70594 17.6 7.80768 17.5579 7.8827 17.4828C7.95771 17.4078 7.99985 17.3061 7.99985 17.2V16.4C7.99985 16.2939 7.95771 16.1922 7.8827 16.1172C7.80768 16.0421 7.70594 16 7.59985 16ZM8.79985 16.4V17.2C8.79985 17.3061 8.842 17.4078 8.91701 17.4828C8.99203 17.5579 9.09377 17.6 9.19985 17.6C9.30594 17.6 9.40768 17.5579 9.4827 17.4828C9.55771 17.4078 9.59985 17.3061 9.59985 17.2V16.4C9.59985 16.2939 9.55771 16.1922 9.4827 16.1172C9.40768 16.0421 9.30594 16 9.19985 16C9.09377 16 8.99203 16.0421 8.91701 16.1172C8.842 16.1922 8.79985 16.2939 8.79985 16.4ZM10.7999 16C10.6938 16 10.592 16.0421 10.517 16.1172C10.442 16.1922 10.3999 16.2939 10.3999 16.4V17.2C10.3999 17.3061 10.442 17.4078 10.517 17.4828C10.592 17.5579 10.6938 17.6 10.7999 17.6C10.9059 17.6 11.0077 17.5579 11.0827 17.4828C11.1577 17.4078 11.1999 17.3061 11.1999 17.2V16.4C11.1999 16.2939 11.1577 16.1922 11.0827 16.1172C11.0077 16.0421 10.9059 16 10.7999 16ZM12.3999 17.6C12.5059 17.6 12.6077 17.5579 12.6827 17.4828C12.7577 17.4078 12.7999 17.3061 12.7999 17.2V16.4C12.7999 16.2939 12.7577 16.1922 12.6827 16.1172C12.6077 16.0421 12.5059 16 12.3999 16C12.2938 16 12.192 16.0421 12.117 16.1172C12.042 16.1922 11.9999 16.2939 11.9999 16.4V17.2C11.9999 17.3061 12.042 17.4078 12.117 17.4828C12.192 17.5579 12.2938 17.6 12.3999 17.6ZM15.5999 16C15.4938 16 15.392 16.0421 15.317 16.1172C15.242 16.1922 15.1999 16.2939 15.1999 16.4V17.2C15.1999 17.3061 15.242 17.4078 15.317 17.4828C15.392 17.5579 15.4938 17.6 15.5999 17.6C15.7059 17.6 15.8077 17.5579 15.8827 17.4828C15.9577 17.4078 15.9999 17.3061 15.9999 17.2V16.4C15.9999 16.2939 15.9577 16.1922 15.8827 16.1172C15.8077 16.0421 15.7059 16 15.5999 16ZM17.1999 16C17.0938 16 16.992 16.0421 16.917 16.1172C16.842 16.1922 16.7999 16.2939 16.7999 16.4V17.2C16.7999 17.3061 16.842 17.4078 16.917 17.4828C16.992 17.5579 17.0938 17.6 17.1999 17.6C17.3059 17.6 17.4077 17.5579 17.4827 17.4828C17.5577 17.4078 17.5999 17.3061 17.5999 17.2V16.4C17.5999 16.2939 17.5577 16.1922 17.4827 16.1172C17.4077 16.0421 17.3059 16 17.1999 16ZM18.7999 16C18.6938 16 18.592 16.0421 18.517 16.1172C18.442 16.1922 18.3999 16.2939 18.3999 16.4V17.2C18.3999 17.3061 18.442 17.4078 18.517 17.4828C18.592 17.5579 18.6938 17.6 18.7999 17.6C18.9059 17.6 19.0077 17.5579 19.0827 17.4828C19.1577 17.4078 19.1999 17.3061 19.1999 17.2V16.4C19.1999 16.2939 19.1577 16.1922 19.0827 16.1172C19.0077 16.0421 18.9059 16 18.7999 16ZM20.3999 16C20.2938 16 20.192 16.0421 20.117 16.1172C20.042 16.1922 19.9999 16.2939 19.9999 16.4V17.2C19.9999 17.3061 20.042 17.4078 20.117 17.4828C20.192 17.5579 20.2938 17.6 20.3999 17.6C20.5059 17.6 20.6077 17.5579 20.6827 17.4828C20.7577 17.4078 20.7999 17.3061 20.7999 17.2V16.4C20.7999 16.2939 20.7577 16.1922 20.6827 16.1172C20.6077 16.0421 20.5059 16 20.3999 16ZM7.59985 18.4H5.99985C5.89377 18.4 5.79203 18.4421 5.71701 18.5172C5.642 18.5922 5.59985 18.6939 5.59985 18.8C5.59985 18.9061 5.642 19.0078 5.71701 19.0828C5.79203 19.1579 5.89377 19.2 5.99985 19.2H7.59985C7.70594 19.2 7.80768 19.1579 7.8827 19.0828C7.95771 19.0078 7.99985 18.9061 7.99985 18.8C7.99985 18.6939 7.95771 18.5922 7.8827 18.5172C7.80768 18.4421 7.70594 18.4 7.59985 18.4ZM10.7999 18.4H9.19985C9.09377 18.4 8.99203 18.4421 8.91701 18.5172C8.842 18.5922 8.79985 18.6939 8.79985 18.8C8.79985 18.9061 8.842 19.0078 8.91701 19.0828C8.99203 19.1579 9.09377 19.2 9.19985 19.2H10.7999C10.9059 19.2 11.0077 19.1579 11.0827 19.0828C11.1577 19.0078 11.1999 18.9061 11.1999 18.8C11.1999 18.6939 11.1577 18.5922 11.0827 18.5172C11.0077 18.4421 10.9059 18.4 10.7999 18.4ZM7.59985 20H5.99985C5.89377 20 5.79203 20.0421 5.71701 20.1172C5.642 20.1922 5.59985 20.2939 5.59985 20.4C5.59985 20.5061 5.642 20.6078 5.71701 20.6828C5.79203 20.7579 5.89377 20.8 5.99985 20.8H7.59985C7.70594 20.8 7.80768 20.7579 7.8827 20.6828C7.95771 20.6078 7.99985 20.5061 7.99985 20.4C7.99985 20.2939 7.95771 20.1922 7.8827 20.1172C7.80768 20.0421 7.70594 20 7.59985 20ZM10.7999 20H9.19985C9.09377 20 8.99203 20.0421 8.91701 20.1172C8.842 20.1922 8.79985 20.2939 8.79985 20.4C8.79985 20.5061 8.842 20.6078 8.91701 20.6828C8.99203 20.7579 9.09377 20.8 9.19985 20.8H10.7999C10.9059 20.8 11.0077 20.7579 11.0827 20.6828C11.1577 20.6078 11.1999 20.5061 11.1999 20.4C11.1999 20.2939 11.1577 20.1922 11.0827 20.1172C11.0077 20.0421 10.9059 20 10.7999 20ZM13.9999 18.4H12.3999C12.2938 18.4 12.192 18.4421 12.117 18.5172C12.042 18.5922 11.9999 18.6939 11.9999 18.8C11.9999 18.9061 12.042 19.0078 12.117 19.0828C12.192 19.1579 12.2938 19.2 12.3999 19.2H13.9999C14.1059 19.2 14.2077 19.1579 14.2827 19.0828C14.3577 19.0078 14.3999 18.9061 14.3999 18.8C14.3999 18.6939 14.3577 18.5922 14.2827 18.5172C14.2077 18.4421 14.1059 18.4 13.9999 18.4Z" fill="#24221E"/>
</g>
</g>
<defs>
<clipPath id="clip0_4001_2415">
<rect width="24" height="24" fill="white"/>
</clipPath>
</defs>
</svg>
