<svg width="24" height="24" viewBox="0 0 24 24" fill="none" xmlns="http://www.w3.org/2000/svg">
<path d="M2 12.0001C2 8.37991 2 6.56935 3.172 5.44519C4.343 4.32007 6.229 4.32007 10 4.32007H14C17.771 4.32007 19.657 4.32007 20.828 5.44519C22 6.56935 22 8.37991 22 12.0001C22 15.6203 22 17.4308 20.828 18.555C19.657 19.6801 17.771 19.6801 14 19.6801H10C6.229 19.6801 4.343 19.6801 3.172 18.555C2 17.4308 2 15.6203 2 12.0001Z" stroke="#24221E" stroke-width="1.5"/>
<path d="M10 15.8401H6M14 15.8401H12.5M2 10.0801H22" stroke="#24221E" stroke-width="1.5" stroke-linecap="round"/>
</svg>
