<svg width="24" height="24" viewBox="0 0 24 24" fill="none" xmlns="http://www.w3.org/2000/svg">
<path d="M15.7847 12.24C15.7847 14.1408 14.2487 15.6768 12.3479 15.6768C10.4471 15.6768 8.91113 14.1408 8.91113 12.24C8.91113 10.3392 10.4471 8.80322 12.3479 8.80322C14.2487 8.80322 15.7847 10.3392 15.7847 12.24Z" stroke="#24221E" stroke-width="1.5" stroke-linecap="round" stroke-linejoin="round"/>
<path d="M12.3482 20.1792C15.737 20.1792 18.8954 18.1824 21.0938 14.7264C21.9578 13.3728 21.9578 11.0976 21.0938 9.74403C18.8954 6.28806 15.737 4.29126 12.3482 4.29126C8.95939 4.29126 5.80099 6.28806 3.60259 9.74403C2.73859 11.0976 2.73859 13.3728 3.60259 14.7264C5.80099 18.1824 8.95939 20.1792 12.3482 20.1792Z" stroke="#24221E" stroke-width="1.5" stroke-linecap="round" stroke-linejoin="round"/>
</svg>
