<svg width="24" height="24" viewBox="0 0 24 24" fill="none" xmlns="http://www.w3.org/2000/svg">
<path fill-rule="evenodd" clip-rule="evenodd" d="M12.7204 2.2582C12.4723 2.24791 12.2238 2.24791 11.9755 2.25821C11.8773 2.2428 11.7777 2.24895 11.6831 2.27511C11.0579 2.32149 10.4359 2.43337 9.82636 2.61098C8.04614 3.12975 6.45323 4.18603 5.24855 5.64659C4.04385 7.10716 3.28133 8.90661 3.05714 10.818C2.83294 12.7294 3.15711 14.6672 3.98877 16.3869C4.82044 18.1067 6.12233 19.5314 7.73029 20.4814C8.94889 21.2013 10.3018 21.6242 11.6882 21.7263C11.7797 21.7508 11.8756 21.7567 11.9703 21.7426C12.3204 21.7573 12.6722 21.7516 13.024 21.7251C13.4206 21.6951 13.7189 21.336 13.6902 20.9228C13.6615 20.5097 13.3166 20.1991 12.9201 20.229C12.7042 20.2452 12.4885 20.2523 12.2734 20.2502C11.4777 18.8438 10.8932 17.3262 10.5344 15.75H12.828C13.2257 15.75 13.548 15.4142 13.548 15C13.548 14.5858 13.2257 14.25 12.828 14.25H10.2635C10.1638 13.5072 10.1133 12.7555 10.1133 12C10.1133 11.2445 10.1638 10.4928 10.2635 9.74998H14.4325C14.533 10.4984 14.5836 11.2559 14.5829 12.0172C14.5824 12.4314 14.9045 12.7676 15.3021 12.768C15.6997 12.7684 16.0224 12.433 16.0229 12.0188C16.0236 11.2576 15.9774 10.4998 15.8854 9.74998H19.9677C20.1093 10.2701 20.202 10.806 20.2434 11.3501C20.2747 11.7631 20.6215 12.0713 21.0179 12.0387C21.4143 12.006 21.7103 11.6448 21.6789 11.2319C21.5332 9.31223 20.845 7.48055 19.7012 5.96779C18.5575 4.45503 17.0093 3.32895 15.2519 2.73155C14.5223 2.48355 13.7702 2.33127 13.0127 2.2751C12.9181 2.24895 12.8186 2.24281 12.7204 2.2582ZM12.2728 3.75086C12.3229 3.75036 12.373 3.75036 12.4232 3.75086C13.2185 5.15698 13.8029 6.67424 14.1617 8.24998H10.5344C10.8931 6.67422 11.4775 5.15696 12.2728 3.75086ZM10.5144 3.97463C10.4141 3.99952 10.3139 4.02648 10.2143 4.05552C8.70798 4.49448 7.36013 5.38825 6.34078 6.62412C5.9289 7.12348 5.5781 7.66966 5.29375 8.24998H9.05789C9.36525 6.76877 9.8541 5.33161 10.5144 3.97463ZM8.81071 9.74998H4.72841C4.6174 10.1578 4.53628 10.5756 4.4865 11C4.35813 12.0945 4.44224 13.1992 4.72814 14.25H8.81071C8.71949 13.5064 8.67327 12.7549 8.67327 12C8.67327 11.2451 8.71949 10.4937 8.81071 9.74998ZM9.05789 15.75H5.29327C5.9977 17.1882 7.09197 18.3798 8.44072 19.1766C9.09376 19.5624 9.79247 19.8474 10.515 20.0265C9.85439 18.6692 9.36534 17.2316 9.05789 15.75ZM15.6382 8.24998C15.3308 6.76877 14.8419 5.3316 14.1815 3.97459C14.3912 4.02655 14.5992 4.08754 14.8051 4.15754C16.2921 4.66303 17.6022 5.61587 18.5699 6.8959C18.8907 7.32 19.169 7.77373 19.4024 8.24998H15.6382ZM19.068 14.2494C18.3559 14.2494 17.6599 14.4693 17.0678 14.8814C16.4757 15.2935 16.0143 15.8793 15.7419 16.5646C15.4694 17.2499 15.3982 18.0039 15.5372 18.7314C15.6762 19.4588 16.0192 20.127 16.5227 20.6514C16.9484 21.0954 17.6481 21.7398 18.6057 22.575C18.8743 22.8093 19.2657 22.8082 19.5331 22.5724C20.5404 21.6842 21.2409 21.0391 21.6131 20.6514C22.1167 20.127 22.4597 19.4588 22.5987 18.7314C22.7377 18.0039 22.6665 17.2499 22.394 16.5646C22.1216 15.8793 21.6602 15.2935 21.0681 14.8814C20.4761 14.4693 19.78 14.2494 19.068 14.2494ZM20.6923 19.4825C20.9415 19.1864 21.1123 18.8265 21.1864 18.4386C21.2698 18.0021 21.227 17.5497 21.0636 17.1385C20.9001 16.7273 20.6233 16.3759 20.2681 16.1286C19.9128 15.8813 19.4952 15.7494 19.068 15.7494C18.6882 15.7494 18.3161 15.8536 17.9887 16.0504C17.9477 16.075 17.9073 16.1011 17.8679 16.1286C17.5126 16.3759 17.2357 16.7273 17.0723 17.1385C16.9089 17.5497 16.8661 18.0021 16.9495 18.4386C17.0329 18.875 17.2387 19.276 17.5408 19.5906C17.8532 19.9165 18.3588 20.3905 19.0659 21.017C19.8178 20.3463 20.3233 19.8737 20.595 19.5907C20.6286 19.5557 20.6611 19.5195 20.6923 19.4825ZM18.9426 17.2613C18.6047 17.3231 18.348 17.6303 18.348 18V18.01C18.348 18.4242 18.6703 18.76 19.068 18.76C19.3759 18.76 19.6386 18.5587 19.7415 18.2755L18.9426 17.2613ZM18.9426 17.2613L19.7415 18.2755C19.7716 18.1929 19.788 18.1035 19.788 18.01V18C19.788 17.5858 19.4656 17.25 19.068 17.25C19.0252 17.25 18.9833 17.2539 18.9426 17.2613Z" fill="#24221E"/>
</svg>
