<svg width="24" height="24" viewBox="0 0 24 24" fill="none" xmlns="http://www.w3.org/2000/svg">
<g clip-path="url(#clip0_4001_2430)">
<mask id="mask0_4001_2430" style="mask-type:luminance" maskUnits="userSpaceOnUse" x="0" y="0" width="24" height="24">
<path d="M24 0H0V24H24V0Z" fill="white"/>
</mask>
<g mask="url(#mask0_4001_2430)">
<mask id="mask1_4001_2430" style="mask-type:luminance" maskUnits="userSpaceOnUse" x="0" y="0" width="24" height="24">
<path d="M24 0.857178H0V23.7143H24V0.857178Z" fill="white"/>
</mask>
<g mask="url(#mask1_4001_2430)">
<path d="M6.8076 0.857178C7.03038 0.857178 7.24404 0.941462 7.40156 1.09149C7.5591 1.24152 7.6476 1.44501 7.6476 1.65718V3.15318H16.668V1.66746C16.668 1.45529 16.7564 1.25181 16.914 1.10178C17.0716 0.951748 17.2852 0.867463 17.508 0.867463C17.7308 0.867463 17.9444 0.951748 18.102 1.10178C18.2594 1.25181 18.348 1.45529 18.348 1.66746V3.15318H21.6C22.2364 3.15318 22.8466 3.39384 23.2967 3.82224C23.7467 4.25065 23.9996 4.83174 24 5.43775V21.4297C23.9996 22.0358 23.7467 22.6168 23.2967 23.0453C22.8466 23.4737 22.2364 23.7143 21.6 23.7143H2.4C1.76369 23.7143 1.15342 23.4737 0.703368 23.0453C0.253315 22.6168 0.000318156 22.0358 0 21.4297V5.43775C0.000318156 4.83174 0.253315 4.25065 0.703368 3.82224C1.15342 3.39384 1.76369 3.15318 2.4 3.15318H5.9676V1.65603C5.96792 1.44406 6.05656 1.24087 6.21406 1.09109C6.37156 0.941306 6.58502 0.857177 6.8076 0.857178ZM1.68 9.70518V21.4297C1.68 21.5198 1.69862 21.6089 1.7348 21.6921C1.771 21.7753 1.82402 21.851 1.89089 21.9146C1.95774 21.9783 2.03711 22.0288 2.12447 22.0633C2.21183 22.0977 2.30545 22.1154 2.4 22.1154H21.6C21.6946 22.1154 21.7882 22.0977 21.8755 22.0633C21.9629 22.0288 22.0422 21.9783 22.1092 21.9146C22.176 21.851 22.229 21.7753 22.2652 21.6921C22.3014 21.6089 22.32 21.5198 22.32 21.4297V9.72118L1.68 9.70518ZM8.0004 17.5646V19.4686H6V17.5646H8.0004ZM12.9996 17.5646V19.4686H11.0004V17.5646H12.9996ZM18 17.5646V19.4686H15.9996V17.5646H18ZM8.0004 13.0194V14.9234H6V13.0194H8.0004ZM12.9996 13.0194V14.9234H11.0004V13.0194H12.9996ZM18 13.0194V14.9234H15.9996V13.0194H18ZM5.9676 4.75203H2.4C2.30545 4.75203 2.21183 4.76977 2.12447 4.80423C2.03711 4.8387 1.95774 4.8892 1.89089 4.95288C1.82402 5.01655 1.771 5.09215 1.7348 5.17534C1.69862 5.25854 1.68 5.3477 1.68 5.43775V8.10632L22.32 8.12232V5.43775C22.32 5.3477 22.3014 5.25854 22.2652 5.17534C22.229 5.09215 22.176 5.01655 22.1092 4.95288C22.0422 4.8892 21.9629 4.8387 21.8755 4.80423C21.7882 4.76977 21.6946 4.75203 21.6 4.75203H18.348V5.81375C18.348 6.02592 18.2594 6.2294 18.102 6.37944C17.9444 6.52946 17.7308 6.61375 17.508 6.61375C17.2852 6.61375 17.0716 6.52946 16.914 6.37944C16.7564 6.2294 16.668 6.02592 16.668 5.81375V4.75203H7.6476V5.80346C7.6476 6.01563 7.5591 6.21912 7.40156 6.36915C7.24404 6.51918 7.03038 6.60346 6.8076 6.60346C6.58482 6.60346 6.37116 6.51918 6.21364 6.36915C6.0561 6.21912 5.9676 6.01563 5.9676 5.80346V4.75203Z" fill="#24221E"/>
</g>
</g>
</g>
<defs>
<clipPath id="clip0_4001_2430">
<rect width="24" height="24" fill="white"/>
</clipPath>
</defs>
</svg>
