<svg width="24" height="24" viewBox="0 0 24 24" fill="none" xmlns="http://www.w3.org/2000/svg">
<path d="M7.3728 17.013L11.6093 16.998L20.856 7.45796C21.2189 7.07996 21.4185 6.57796 21.4185 6.04396C21.4185 5.50996 21.2189 5.00796 20.856 4.62996L19.3334 3.04396C18.6077 2.28796 17.3414 2.29196 16.6214 3.04096L7.3728 12.583V17.013ZM17.976 4.45796L19.5014 6.04096L17.9683 7.62296L16.4457 6.03796L17.976 4.45796ZM9.2928 13.417L15.0816 7.44396L16.6041 9.02996L10.8163 15.001L9.2928 15.006V13.417Z" fill="#24221E"/>
<path d="M5.45272 21H18.8927C19.9516 21 20.8127 20.103 20.8127 19V10.332L18.8927 12.332V19H8.4844C8.45944 19 8.43352 19.01 8.40856 19.01C8.37688 19.01 8.34519 19.001 8.31255 19H5.45272V5H12.0258L13.9458 3H5.45272C4.39384 3 3.53271 3.897 3.53271 5V19C3.53271 20.103 4.39384 21 5.45272 21Z" fill="#24221E"/>
</svg>
