<svg width="24" height="24" viewBox="0 0 24 24" fill="none" xmlns="http://www.w3.org/2000/svg">
<g clip-path="url(#clip0_2047_3005)">
<path d="M12 24C18.6274 24 24 18.6274 24 12C24 5.37258 18.6274 0 12 0C5.37258 0 0 5.37258 0 12C0 18.6274 5.37258 24 12 24Z" fill="#F0F0F0"/>
<path d="M11.9999 0C6.84037 0 2.44185 3.2565 0.746338 7.82611H23.2536C21.558 3.2565 17.1595 0 11.9999 0V0Z" fill="#D80027"/>
<path d="M11.9999 24C17.1595 24 21.558 20.7435 23.2536 16.1739H0.746338C2.44185 20.7435 6.84037 24 11.9999 24Z" fill="black"/>
<path d="M16.1738 10.6956H13.0434C13.0434 10.1194 12.5761 9.65216 11.9999 9.65216C11.4236 9.65216 10.9564 10.1194 10.9564 10.6956H7.82593C7.82593 11.272 8.32791 11.7391 8.90419 11.7391H8.86941C8.86941 12.3155 9.33657 12.7826 9.9129 12.7826C9.9129 13.3589 10.3801 13.8261 10.9564 13.8261H13.0434C13.6197 13.8261 14.0868 13.3589 14.0868 12.7826C14.6632 12.7826 15.1303 12.3155 15.1303 11.7391H15.0956C15.6719 11.7391 16.1738 11.272 16.1738 10.6956V10.6956Z" fill="#FF9811"/>
</g>
<defs>
<clipPath id="clip0_2047_3005">
<rect width="24" height="24" fill="white"/>
</clipPath>
</defs>
</svg>
