<svg width="24" height="24" viewBox="0 0 24 24" fill="none" xmlns="http://www.w3.org/2000/svg">
<path fill-rule="evenodd" clip-rule="evenodd" d="M1.00347 3.31114C1.16576 3.14885 1.38587 3.05768 1.61538 3.05768H22.3846C22.6141 3.05768 22.8342 3.14885 22.9965 3.31114C23.1588 3.47343 23.25 3.69355 23.25 3.92306V17.7692C23.25 18.6108 22.9157 19.4179 22.3206 20.0129C21.7256 20.608 20.9185 20.9423 20.0769 20.9423H3.92308C3.08152 20.9423 2.27444 20.608 1.67937 20.0129C1.08431 19.4179 0.75 18.6108 0.75 17.7692V3.92306C0.75 3.69355 0.841174 3.47343 1.00347 3.31114ZM3.54155 4.78845L12.0001 13.247L20.4586 4.78845H3.54155ZM21.5192 5.84917V17.7692C21.5192 18.5654 20.8731 19.2115 20.0769 19.2115H3.92308C3.12692 19.2115 2.48077 18.5654 2.48077 17.7692V5.84899L11.4698 14.838C11.7627 15.1309 12.2375 15.1309 12.5304 14.838L21.5192 5.84917Z" fill="#24221E"/>
</svg>
