<svg width="24" height="24" viewBox="0 0 24 24" fill="none" xmlns="http://www.w3.org/2000/svg">
<path d="M21.9975 9.76328C21.9344 9.58763 21.8195 9.4334 21.6669 9.31924C21.5142 9.20506 21.3303 9.13587 21.1375 9.12003L15.4475 8.32323L12.8975 3.36003C12.8157 3.19772 12.6878 3.06084 12.5286 2.96506C12.3695 2.86929 12.1854 2.81848 11.9975 2.81848C11.8097 2.81848 11.6256 2.86929 11.4664 2.96506C11.3073 3.06084 11.1794 3.19772 11.0975 3.36003L8.54754 8.31363L2.85754 9.12003C2.67246 9.14528 2.49846 9.21984 2.35529 9.33522C2.21211 9.45061 2.1055 9.60219 2.04754 9.77288C1.99448 9.93953 1.98972 10.1171 2.03376 10.2861C2.07781 10.4553 2.16899 10.6097 2.29754 10.7329L6.42754 14.5729L5.42754 20.0257C5.38716 20.2066 5.40209 20.3947 5.47052 20.5677C5.53895 20.7406 5.65797 20.891 5.81327 21.0005C5.96856 21.1099 6.15351 21.1741 6.34586 21.1851C6.53822 21.1961 6.72979 21.1535 6.89754 21.0625L11.9975 18.4993L17.0975 21.0625C17.2379 21.1384 17.3964 21.1782 17.5575 21.1777C17.7694 21.1784 17.976 21.1145 18.1475 20.9953C18.3027 20.8886 18.4228 20.7415 18.4937 20.5714C18.5645 20.4013 18.5832 20.2152 18.5475 20.0353L17.5475 14.5825L21.6775 10.7425C21.8219 10.625 21.9286 10.4707 21.9853 10.2974C22.0419 10.124 22.0462 9.93876 21.9975 9.76328ZM15.8475 13.6033C15.7318 13.7112 15.645 13.8444 15.5945 13.9914C15.544 14.1386 15.5313 14.2953 15.5575 14.4481L16.2775 18.4801L12.5175 16.5601C12.3714 16.4907 12.2106 16.4546 12.0475 16.4546C11.8845 16.4546 11.7237 16.4907 11.5775 16.5601L7.81754 18.4801L8.53754 14.4481C8.56377 14.2953 8.5511 14.1386 8.50061 13.9914C8.45011 13.8444 8.36328 13.7112 8.24754 13.6033L5.24754 10.7233L9.45754 10.1377C9.61953 10.116 9.77353 10.0566 9.90603 9.96449C10.0385 9.87243 10.1455 9.7506 10.2175 9.60968L11.9975 5.95203L13.8775 9.61928C13.9496 9.7602 14.0565 9.88203 14.189 9.97409C14.3215 10.0662 14.4755 10.1256 14.6375 10.1473L18.8475 10.7329L15.8475 13.6033Z" fill="#24221E"/>
</svg>
