<svg width="24" height="24" viewBox="0 0 24 24" fill="none" xmlns="http://www.w3.org/2000/svg">
<g clip-path="url(#clip0_4001_2451)">
<mask id="mask0_4001_2451" style="mask-type:luminance" maskUnits="userSpaceOnUse" x="0" y="0" width="24" height="24">
<path d="M24 0H0V24H24V0Z" fill="white"/>
</mask>
<g mask="url(#mask0_4001_2451)">
<path d="M19.6644 7.11147C19.4809 7.29494 19.4809 7.59241 19.6644 7.77588L20.815 8.92657H14.5105C13.8882 8.92657 13.3032 9.16886 12.8632 9.60888C12.4233 10.0488 12.1809 10.6338 12.1809 11.2561V12.5579C12.1809 12.8174 12.3912 13.0278 12.6507 13.0278C12.9102 13.0278 13.1206 12.8174 13.1206 12.5579V11.2561C13.1206 10.4897 13.744 9.86622 14.5105 9.86622H20.815L19.6644 11.0169C19.4809 11.2004 19.4809 11.4978 19.6644 11.6813C19.7561 11.7731 19.8763 11.8189 19.9966 11.8189C20.1168 11.8189 20.237 11.7731 20.3288 11.6813L22.2814 9.7286C22.4649 9.54513 22.4649 9.24766 22.2814 9.06419L20.3288 7.11152C20.1453 6.928 19.8478 6.928 19.6644 7.11147Z" fill="#24221E"/>
<path d="M22.3302 15.8547C22.0349 15.1565 21.6122 14.5296 21.0739 13.9913C20.5356 13.453 19.9087 13.0303 19.2105 12.735C18.4873 12.4291 17.7195 12.274 16.9282 12.274C16.1369 12.274 15.369 12.4291 14.6459 12.735C13.9477 13.0303 13.3207 13.453 12.7824 13.9913C12.2441 14.5295 11.8214 15.1565 11.5261 15.8547C11.2202 16.5779 11.0652 17.3457 11.0652 18.137C11.0652 18.9283 11.2202 19.6962 11.5261 20.4193C11.8214 21.1175 12.2441 21.7445 12.7824 22.2828C13.3207 22.8211 13.9477 23.2438 14.6459 23.5391C15.369 23.845 16.1369 24 16.9282 24C17.7195 24 18.4873 23.845 19.2105 23.5391C19.9087 23.2438 20.5356 22.8211 21.0739 22.2828C21.6122 21.7445 22.0349 21.1175 22.3302 20.4193C22.6361 19.6962 22.7912 18.9283 22.7912 18.137C22.7912 17.3457 22.6361 16.5778 22.3302 15.8547ZM16.9282 23.0604C14.2135 23.0604 12.0049 20.8518 12.0049 18.137C12.0049 15.4223 14.2135 13.2137 16.9282 13.2137C19.6429 13.2137 21.8515 15.4223 21.8515 18.137C21.8515 20.8518 19.6429 23.0604 16.9282 23.0604Z" fill="#24221E"/>
<path d="M19.5318 17.6672H17.398V14.2317C17.398 13.9722 17.1877 13.7618 16.9282 13.7618C16.6687 13.7618 16.4583 13.9722 16.4583 14.2317V18.137C16.4583 18.3965 16.6687 18.6069 16.9282 18.6069H19.5317C19.7912 18.6069 20.0016 18.3965 20.0016 18.137C20.0016 17.8775 19.7912 17.6672 19.5318 17.6672ZM4.46812 6.8809C4.20867 6.8809 3.99829 7.09123 3.99829 7.35073V7.72269C3.99829 8.49448 4.62618 9.12233 5.39793 9.12233H5.67201V9.58236C5.67201 9.84181 5.88234 10.0522 6.14184 10.0522C6.40129 10.0522 6.61167 9.84186 6.61167 9.58236V9.12233H6.88574C7.65754 9.12233 8.28543 8.49444 8.28543 7.72269V6.97883C8.28543 6.20708 7.65754 5.57919 6.88574 5.57919H5.39798C5.14434 5.57919 4.93795 5.37279 4.93795 5.11915V4.3752C4.93795 4.12156 5.14434 3.91517 5.39798 3.91517H6.88574C7.13943 3.91517 7.34578 4.12156 7.34578 4.3752V4.74715C7.34578 5.00661 7.5561 5.21698 7.8156 5.21698C8.0751 5.21698 8.28543 5.00665 8.28543 4.74715V4.3752C8.28543 3.6034 7.65754 2.97556 6.88574 2.97556H6.61167V2.51548C6.61167 2.25603 6.40134 2.04565 6.14184 2.04565C5.88238 2.04565 5.67201 2.25598 5.67201 2.51548V2.97556H5.39793C4.62618 2.97556 3.99829 3.60345 3.99829 4.3752V5.11906C3.99829 5.89086 4.62618 6.51875 5.39793 6.51875H6.8857C7.13938 6.51875 7.34573 6.72514 7.34573 6.97878V7.72264C7.34573 7.97628 7.13934 8.18267 6.8857 8.18267H5.39793C5.14429 8.18267 4.9379 7.97628 4.9379 7.72264V7.35069C4.93795 7.09123 4.72762 6.8809 4.46812 6.8809Z" fill="#24221E"/>
<path d="M12.6508 23.0604H2.42243C2.34976 23.0603 2.2801 23.0314 2.22872 22.98C2.17734 22.9286 2.14844 22.859 2.14835 22.7863V2.5155C2.14835 1.64658 2.85527 0.939609 3.72424 0.939609H17.013C16.6537 1.38497 16.4583 1.93519 16.4583 2.5155V7.90866C16.4583 8.16811 16.6687 8.37848 16.9282 8.37848C17.1876 8.37848 17.398 8.16816 17.398 7.90866V6.14681H20.6476C21.1118 6.14681 21.4893 5.76919 21.4893 5.30508V2.5155C21.4893 1.84359 21.2277 1.21191 20.7526 0.736781C20.2774 0.261656 19.6458 0 18.9738 0H3.72424C3.05233 0 2.42065 0.261656 1.94552 0.736781C1.4704 1.21186 1.20874 1.84359 1.20874 2.5155V22.7863C1.20874 23.4555 1.75319 24 2.42243 24H12.6508C12.9103 24 13.1207 23.7897 13.1207 23.5302C13.1207 23.2707 12.9103 23.0604 12.6508 23.0604ZM20.5497 2.5155V5.2072H17.398V2.5155C17.398 1.64658 18.1049 0.939656 18.9738 0.939609C19.8428 0.939609 20.5497 1.64653 20.5497 2.5155Z" fill="#24221E"/>
<path d="M9.67521 5.21694H14.8824C15.1418 5.21694 15.3522 5.00661 15.3522 4.74711C15.3522 4.48766 15.1419 4.27728 14.8824 4.27728H9.67521C9.41575 4.27728 9.20538 4.48761 9.20538 4.74711C9.20538 5.00661 9.41575 5.21694 9.67521 5.21694ZM15.3522 7.72264C15.3522 7.46319 15.1419 7.25281 14.8824 7.25281H9.67521C9.41575 7.25281 9.20538 7.46314 9.20538 7.72264C9.20538 7.9821 9.41571 8.19247 9.67521 8.19247H14.8824C15.1419 8.19247 15.3522 7.98214 15.3522 7.72264ZM10.6051 10.7863H4.0961C3.83664 10.7863 3.62627 10.9966 3.62627 11.2561C3.62627 11.5156 3.8366 11.726 4.0961 11.726H10.6051C10.8645 11.726 11.0749 11.5156 11.0749 11.2561C11.0749 10.9966 10.8645 10.7863 10.6051 10.7863ZM11.0748 14.2317C11.0748 13.9722 10.8645 13.7618 10.605 13.7618H4.0961C3.83664 13.7618 3.62627 13.9722 3.62627 14.2317C3.62627 14.4912 3.8366 14.7015 4.0961 14.7015H10.6051C10.8645 14.7014 11.0748 14.4911 11.0748 14.2317ZM9.67521 16.7374H4.09605C3.8366 16.7374 3.62622 16.9477 3.62622 17.2072C3.62622 17.4667 3.83655 17.677 4.09605 17.677H9.67516C9.93461 17.677 10.145 17.4667 10.145 17.2072C10.145 16.9477 9.93466 16.7374 9.67521 16.7374ZM4.09605 19.7129C3.8366 19.7129 3.62622 19.9232 3.62622 20.1827C3.62622 20.4422 3.83655 20.6525 4.09605 20.6525H9.67516C9.93461 20.6525 10.145 20.4422 10.145 20.1827C10.145 19.9232 9.93466 19.7129 9.67516 19.7129H4.09605Z" fill="#24221E"/>
<mask id="mask1_4001_2451" style="mask-type:luminance" maskUnits="userSpaceOnUse" x="7" y="12" width="2" height="2">
<path d="M8.67188 12.4219H7.54688V13.5469H8.67188V12.4219Z" fill="white"/>
</mask>
<g mask="url(#mask1_4001_2451)">
<mask id="mask2_4001_2451" style="mask-type:luminance" maskUnits="userSpaceOnUse" x="7" y="12" width="2" height="2">
<path d="M8.67188 12.4219H7.54688V13.5469H8.67188V12.4219Z" fill="white"/>
</mask>
<g mask="url(#mask2_4001_2451)">
<path d="M8.4687 12.7552C8.46011 12.7638 8.46011 12.7778 8.4687 12.7864L8.52264 12.8403H8.22712C8.19795 12.8403 8.17053 12.8517 8.1499 12.8723C8.12928 12.8929 8.11792 12.9203 8.11792 12.9495V13.0105C8.11792 13.0227 8.12778 13.0326 8.13994 13.0326C8.15211 13.0326 8.16196 13.0227 8.16196 13.0105V12.9495C8.16196 12.9136 8.19119 12.8844 8.22712 12.8844H8.52264L8.4687 12.9383C8.46011 12.9469 8.46011 12.9608 8.4687 12.9694C8.47301 12.9737 8.47864 12.9759 8.48428 12.9759C8.48992 12.9759 8.49555 12.9737 8.49985 12.9694L8.59138 12.8779C8.59998 12.8693 8.59998 12.8554 8.59138 12.8468L8.49985 12.7552C8.49125 12.7466 8.47731 12.7466 8.4687 12.7552Z" fill="#24221E"/>
<path d="M8.59348 13.165C8.57963 13.1323 8.55982 13.1029 8.53459 13.0777C8.50935 13.0525 8.47997 13.0326 8.44724 13.0188C8.41334 13.0045 8.37735 12.9972 8.34026 12.9972C8.30317 12.9972 8.26717 13.0045 8.23327 13.0188C8.20055 13.0326 8.17116 13.0525 8.14592 13.0777C8.12069 13.1029 8.10088 13.1323 8.08703 13.165C8.0727 13.1989 8.06543 13.2349 8.06543 13.272C8.06543 13.3091 8.0727 13.3451 8.08703 13.379C8.10088 13.4117 8.12069 13.4411 8.14592 13.4664C8.17116 13.4916 8.20055 13.5114 8.23327 13.5252C8.26717 13.5396 8.30317 13.5468 8.34026 13.5468C8.37735 13.5468 8.41334 13.5396 8.44724 13.5252C8.47997 13.5114 8.50935 13.4916 8.53459 13.4664C8.55982 13.4411 8.57963 13.4117 8.59348 13.379C8.60782 13.3451 8.61509 13.3091 8.61509 13.272C8.61509 13.2349 8.60782 13.1989 8.59348 13.165ZM8.34026 13.5028C8.21301 13.5028 8.10948 13.3993 8.10948 13.272C8.10948 13.1448 8.21301 13.0412 8.34026 13.0412C8.46751 13.0412 8.57104 13.1448 8.57104 13.272C8.57104 13.3993 8.46751 13.5028 8.34026 13.5028Z" fill="#24221E"/>
<path d="M8.46251 13.25H8.36248V13.089C8.36248 13.0768 8.35263 13.067 8.34046 13.067C8.3283 13.067 8.31844 13.0768 8.31844 13.089V13.272C8.31844 13.2842 8.3283 13.2941 8.34046 13.2941H8.46251C8.47466 13.2941 8.48453 13.2842 8.48453 13.272C8.48453 13.2599 8.47467 13.25 8.46251 13.25ZM7.7564 12.7444C7.74424 12.7444 7.73438 12.7543 7.73438 12.7664V12.7839C7.73438 12.82 7.76381 12.8495 7.79998 12.8495H7.81283V12.871C7.81283 12.8832 7.82269 12.8931 7.83485 12.8931C7.84702 12.8931 7.85688 12.8832 7.85688 12.871V12.8495H7.86972C7.9059 12.8495 7.93533 12.82 7.93533 12.7839V12.749C7.93533 12.7128 7.9059 12.6834 7.86972 12.6834H7.79999C7.7881 12.6834 7.77842 12.6737 7.77842 12.6618V12.627C7.77842 12.6151 7.7881 12.6054 7.79999 12.6054H7.86972C7.88162 12.6054 7.89129 12.6151 7.89129 12.627V12.6444C7.89129 12.6566 7.90115 12.6664 7.91331 12.6664C7.92548 12.6664 7.93533 12.6566 7.93533 12.6444V12.627C7.93533 12.5908 7.9059 12.5614 7.86972 12.5614H7.85688V12.5398C7.85688 12.5276 7.84702 12.5178 7.83485 12.5178C7.82269 12.5178 7.81283 12.5276 7.81283 12.5398V12.5614H7.79998C7.76381 12.5614 7.73438 12.5908 7.73438 12.627V12.6618C7.73438 12.698 7.76381 12.7274 7.79998 12.7274H7.86972C7.88161 12.7274 7.89129 12.7371 7.89129 12.749V12.7839C7.89129 12.7958 7.88161 12.8054 7.86972 12.8054H7.79998C7.78809 12.8054 7.77842 12.7958 7.77842 12.7839V12.7664C7.77842 12.7543 7.76856 12.7444 7.7564 12.7444Z" fill="#24221E"/>
<path d="M8.13986 13.5028H7.66041C7.657 13.5028 7.65374 13.5015 7.65133 13.4991C7.64892 13.4967 7.64756 13.4934 7.64756 13.49V12.5398C7.64756 12.4991 7.6807 12.4659 7.72143 12.4659H8.34434C8.3275 12.4868 8.31834 12.5126 8.31834 12.5398V12.7926C8.31834 12.8048 8.3282 12.8146 8.34036 12.8146C8.35253 12.8146 8.36239 12.8048 8.36239 12.7926V12.71H8.51471C8.53647 12.71 8.55417 12.6923 8.55417 12.6706V12.5398C8.55417 12.5083 8.54191 12.4787 8.51963 12.4564C8.49736 12.4341 8.46775 12.4219 8.43625 12.4219H7.72143C7.68993 12.4219 7.66032 12.4341 7.63805 12.4564C7.61578 12.4787 7.60352 12.5083 7.60352 12.5398V13.49C7.60352 13.5214 7.62904 13.5469 7.66041 13.5469H8.13986C8.15202 13.5469 8.16189 13.537 8.16189 13.5249C8.16189 13.5127 8.15202 13.5028 8.13986 13.5028ZM8.51013 12.5398V12.666H8.36238V12.5398C8.36238 12.4991 8.39552 12.4659 8.43625 12.4659C8.47698 12.4659 8.51013 12.4991 8.51013 12.5398Z" fill="#24221E"/>
<path d="M8.00034 12.6664H8.24443C8.25659 12.6664 8.26645 12.6566 8.26645 12.6444C8.26645 12.6322 8.25659 12.6224 8.24443 12.6224H8.00034C7.98818 12.6224 7.97832 12.6322 7.97832 12.6444C7.97832 12.6566 7.98818 12.6664 8.00034 12.6664ZM8.26645 12.7839C8.26645 12.7717 8.25659 12.7619 8.24443 12.7619H8.00034C7.98818 12.7619 7.97832 12.7717 7.97832 12.7839C7.97832 12.796 7.98818 12.8059 8.00034 12.8059H8.24443C8.25659 12.8059 8.26645 12.796 8.26645 12.7839ZM8.04393 12.9275H7.73882C7.72666 12.9275 7.7168 12.9373 7.7168 12.9495C7.7168 12.9617 7.72666 12.9715 7.73882 12.9715H8.04393C8.05609 12.9715 8.06595 12.9617 8.06595 12.9495C8.06595 12.9373 8.05609 12.9275 8.04393 12.9275ZM8.06595 13.089C8.06595 13.0768 8.05609 13.067 8.04393 13.067H7.73882C7.72666 13.067 7.7168 13.0768 7.7168 13.089C7.7168 13.1012 7.72666 13.111 7.73882 13.111H8.04393C8.05609 13.111 8.06595 13.1011 8.06595 13.089ZM8.00034 13.2064H7.73882C7.72666 13.2064 7.7168 13.2163 7.7168 13.2285C7.7168 13.2406 7.72666 13.2505 7.73882 13.2505H8.00034C8.0125 13.2505 8.02237 13.2406 8.02237 13.2285C8.02237 13.2163 8.01251 13.2064 8.00034 13.2064ZM7.73882 13.3459C7.72666 13.3459 7.7168 13.3558 7.7168 13.3679C7.7168 13.3801 7.72666 13.39 7.73882 13.39H8.00034C8.0125 13.39 8.02237 13.3801 8.02237 13.3679C8.02237 13.3558 8.01251 13.3459 8.00034 13.3459H7.73882Z" fill="#24221E"/>
</g>
</g>
</g>
</g>
<defs>
<clipPath id="clip0_4001_2451">
<rect width="24" height="24" fill="white"/>
</clipPath>
</defs>
</svg>
