<svg width="24" height="24" viewBox="0 0 24 24" fill="none" xmlns="http://www.w3.org/2000/svg">
<g clip-path="url(#clip0_4001_2474)">
<mask id="mask0_4001_2474" style="mask-type:luminance" maskUnits="userSpaceOnUse" x="0" y="0" width="24" height="24">
<path d="M24 0H0V24H24V0Z" fill="white"/>
</mask>
<g mask="url(#mask0_4001_2474)">
<path d="M18.4632 23.1429H5.53674C2.47814 23.1429 0 20.7696 0 17.8535V9.96713C0 8.5197 0.937674 6.69978 2.14326 5.80578L8.16 1.33578C9.96838 -0.00521576 12.8596 -0.069073 14.7349 1.18679L21.6335 5.79514C22.9619 6.67849 24 8.57292 24 10.1161V17.8641C24 20.7696 21.5219 23.1429 18.4632 23.1429ZM9.18697 2.59164L3.17023 7.06163C2.37768 7.65763 1.67442 9.00928 1.67442 9.96713V17.8535C1.67442 19.8863 3.40465 21.5465 5.53674 21.5465H18.4632C20.5954 21.5465 22.3256 19.8969 22.3256 17.8641V10.1161C22.3256 9.09442 21.5554 7.67892 20.6735 7.1042L13.7749 2.49585C12.5023 1.64443 10.4037 1.687 9.18697 2.59164Z" fill="#24221E"/>
<path d="M12 18.8859C11.5424 18.8859 11.1628 18.524 11.1628 18.0876V14.8948C11.1628 14.4585 11.5424 14.0966 12 14.0966C12.4577 14.0966 12.8373 14.4585 12.8373 14.8948V18.0876C12.8373 18.524 12.4577 18.8859 12 18.8859Z" fill="#24221E"/>
</g>
</g>
<defs>
<clipPath id="clip0_4001_2474">
<rect width="24" height="24" fill="white"/>
</clipPath>
</defs>
</svg>
