<svg width="24" height="24" viewBox="0 0 24 24" fill="none" xmlns="http://www.w3.org/2000/svg">
<path d="M8.86807 15.2353C9.05047 15.2353 9.23288 15.1681 9.37688 15.0241C9.65529 14.7457 9.65529 14.2849 9.37688 14.0065L7.42807 12.0577L9.37688 10.1089C9.65529 9.83048 9.65529 9.36965 9.37688 9.09125C9.09848 8.81285 8.63767 8.81285 8.35927 9.09125L5.90167 11.5489C5.62327 11.8273 5.62327 12.2881 5.90167 12.5665L8.35927 15.0241C8.49367 15.1681 8.68567 15.2353 8.86807 15.2353Z" fill="#24221E"/>
<path d="M6.47757 12.7777H16.2408C16.6344 12.7777 16.9608 12.4513 16.9608 12.0577C16.9608 11.6641 16.6344 11.3377 16.2408 11.3377H6.47757C6.08397 11.3377 5.75757 11.6641 5.75757 12.0577C5.75757 12.4513 6.08397 12.7777 6.47757 12.7777Z" fill="#24221E"/>
<path d="M12.1726 20.4001C11.779 20.4001 11.4526 20.0737 11.4526 19.6801C11.4526 19.2865 11.779 18.9601 12.1726 18.9601C16.2718 18.9601 19.1326 16.0993 19.1326 12.0001C19.1326 7.9009 16.2718 5.0401 12.1726 5.0401C11.779 5.0401 11.4526 4.7137 11.4526 4.3201C11.4526 3.9265 11.779 3.6001 12.1726 3.6001C17.1166 3.6001 20.5726 7.0561 20.5726 12.0001C20.5726 16.9441 17.1166 20.4001 12.1726 20.4001Z" fill="#24221E"/>
</svg>
