<svg width="24" height="24" viewBox="0 0 24 24" fill="none" xmlns="http://www.w3.org/2000/svg">
<path d="M6.9777 13.2224C5.77136 13.2224 4.79517 12.2462 4.79517 11.0398C4.79517 9.83349 5.77136 8.8573 6.9777 8.8573C8.18406 8.8573 9.16025 9.83349 9.16025 11.0398C9.16025 12.2462 8.18406 13.2224 6.9777 13.2224ZM6.9777 10.0478C6.43009 10.0478 5.98565 10.4922 5.98565 11.0398C5.98565 11.5874 6.43009 12.0319 6.9777 12.0319C7.52533 12.0319 7.96977 11.5874 7.96977 11.0398C7.96977 10.4922 7.52533 10.0478 6.9777 10.0478Z" fill="#24221E"/>
<path d="M15.7077 13.2224C14.5014 13.2224 13.5251 12.2462 13.5251 11.0398C13.5251 9.83349 14.5014 8.8573 15.7077 8.8573C16.9141 8.8573 17.8902 9.83349 17.8902 11.0398C17.8902 12.2462 16.9141 13.2224 15.7077 13.2224ZM15.7077 10.0478C15.16 10.0478 14.7157 10.4922 14.7157 11.0398C14.7157 11.5874 15.16 12.0319 15.7077 12.0319C16.2553 12.0319 16.6998 11.5874 16.6998 11.0398C16.6998 10.4922 16.2553 10.0478 15.7077 10.0478Z" fill="#24221E"/>
<path d="M11.3427 13.2224C10.1363 13.2224 9.16016 12.2462 9.16016 11.0398C9.16016 9.83349 10.1363 8.8573 11.3427 8.8573C12.549 8.8573 13.5252 9.83349 13.5252 11.0398C13.5252 12.2462 12.549 13.2224 11.3427 13.2224ZM11.3427 10.0478C10.7951 10.0478 10.3506 10.4922 10.3506 11.0398C10.3506 11.5874 10.7951 12.0319 11.3427 12.0319C11.8903 12.0319 12.3347 11.5874 12.3347 11.0398C12.3347 10.4922 11.8903 10.0478 11.3427 10.0478Z" fill="#24221E"/>
</svg>
