<svg width="109" height="110" viewBox="0 0 109 110" fill="none" xmlns="http://www.w3.org/2000/svg">
<path d="M33.2079 43.7246C26.8284 46.4426 21.0859 50.3287 16.1394 55.2752C15.4743 55.9405 14.6025 56.273 13.731 56.273C12.8594 56.273 11.9876 55.9405 11.3225 55.2754C9.99239 53.945 9.99218 51.7885 11.3225 50.4583C16.8881 44.8927 23.353 40.5187 30.5378 37.4573C32.2684 36.7201 34.2694 37.5252 35.0066 39.2558C35.7439 40.9864 34.9387 42.9871 33.2079 43.7246ZM23.9354 28.0544C23.0611 26.3887 21.0022 25.7473 19.3362 26.6216C12.5952 30.1603 6.4252 34.7063 0.997765 40.1336C-0.332588 41.4639 -0.332588 43.6205 0.997765 44.9506C1.66284 45.6159 2.53441 45.9484 3.4062 45.9484C4.27777 45.9484 5.14956 45.6157 5.81463 44.9508C10.7558 40.0099 16.3704 35.8723 22.5023 32.6536C24.1681 31.7791 24.8096 29.72 23.9354 28.0544ZM46.6219 51.1694C46.1359 49.3521 44.2703 48.2721 42.4512 48.7588C34.6098 50.856 27.4158 55.0135 21.6469 60.7827C20.3165 62.1128 20.3165 64.2696 21.6469 65.5997C22.3119 66.2648 23.1837 66.5973 24.0553 66.5973C24.9269 66.5973 25.7987 66.2648 26.4637 65.5997C31.3875 60.676 37.5245 57.1282 44.2109 55.3399C46.0286 54.8541 47.108 52.9868 46.6219 51.1694ZM108.002 40.1336C97.8362 29.9674 85.081 22.9401 71.1158 19.8112C58.0965 16.8944 44.5675 17.4573 31.8731 21.4256L17.4455 6.99777C16.1153 5.66741 13.9585 5.66741 12.6284 6.99777C11.2981 8.32791 11.2981 10.4847 12.6284 11.8148L93.9294 93.1156C94.5945 93.7809 95.4663 94.1135 96.3378 94.1135C97.2094 94.1135 98.0812 93.7809 98.7463 93.1156C100.077 91.7855 100.077 89.6287 98.7463 88.2986L66.1996 55.7516C72.3187 57.6374 77.9283 60.9919 82.5364 65.5997C83.2014 66.265 84.0732 66.5976 84.9448 66.5976C85.8164 66.5976 86.6882 66.265 87.3532 65.5997C88.6836 64.2696 88.6836 62.1128 87.3532 60.7827C79.4096 52.8391 68.9271 48.0722 57.7395 47.292L50.0175 39.5698C65.8366 38.2516 81.4785 43.893 92.8607 55.2754C93.5258 55.9407 94.3974 56.2732 95.2691 56.2732C96.1409 56.2732 97.0125 55.9405 97.6776 55.2756C99.0079 53.9453 99.0079 51.7887 97.6776 50.4585C83.5425 36.323 63.5742 30.0523 43.9389 33.4918L37.3818 26.9348C60.9563 20.8559 85.7648 27.5311 103.185 44.9511C103.85 45.6161 104.722 45.9487 105.593 45.9487C106.465 45.9487 107.337 45.6161 108.002 44.9508C109.333 43.6205 109.333 41.4637 108.002 40.1336ZM57.6707 65.1548C57.6554 63.2737 56.1245 61.7686 54.2366 61.7766C45.8266 61.8458 37.9194 65.1595 31.9714 71.1072C30.6411 72.4376 30.6411 74.5942 31.9714 75.9243C32.6365 76.5896 33.5081 76.9221 34.3799 76.9221C35.2517 76.9221 36.1232 76.5894 36.7883 75.9245C41.4644 71.2486 47.6808 68.6434 54.2926 68.5889C56.1737 68.5734 57.6863 67.0359 57.6707 65.1548ZM63.7681 80.7588C66.2438 83.2343 67.607 86.5258 67.607 90.0268C67.607 93.5278 66.2438 96.8193 63.7681 99.2948C61.2132 101.85 57.856 103.127 54.5002 103.127C51.1433 103.127 47.7877 101.85 45.2322 99.2946C42.7565 96.8191 41.3933 93.5278 41.3933 90.0266C41.3933 86.5256 42.7565 83.2343 45.2322 80.7586C50.3424 75.6482 58.6579 75.6482 63.7681 80.7588ZM60.7945 90.0268C60.7945 88.3456 60.1398 86.7649 58.9511 85.5759C57.7238 84.3488 56.112 83.7353 54.5002 83.7353C52.8884 83.7353 51.2764 84.3488 50.0493 85.5759C48.8605 86.7647 48.2058 88.3454 48.2058 90.0268C48.2058 91.7082 48.8605 93.2887 50.0493 94.4775C52.5037 96.9317 56.4967 96.9317 58.9511 94.4775C60.1398 93.2887 60.7945 91.708 60.7945 90.0268Z" fill="#CEA3AC"/>
</svg>
