<svg width="24" height="24" viewBox="0 0 24 24" fill="none" xmlns="http://www.w3.org/2000/svg">
<path d="M17.5865 15.6V10.8C17.5865 7.85281 15.9465 5.38561 13.0865 4.73281V4.08001C13.0865 3.28321 12.4165 2.64001 11.5865 2.64001C10.7565 2.64001 10.0865 3.28321 10.0865 4.08001V4.73281C7.21648 5.38561 5.58648 7.84321 5.58648 10.8V15.6L4.29648 16.8384C3.66648 17.4432 4.10648 18.48 4.99648 18.48H18.1665C19.0565 18.48 19.5065 17.4432 18.8765 16.8384L17.5865 15.6Z" fill="#24221E"/>
<path d="M13.5864 19.44C13.5864 20.496 12.6864 21.36 11.5864 21.36C11.056 21.36 10.5473 21.1577 10.1722 20.7976C9.79714 20.4376 9.58643 19.9493 9.58643 19.44H13.5864Z" fill="#871E35"/>
</svg>
