<svg width="345" height="298" viewBox="0 0 345 298" fill="none" xmlns="http://www.w3.org/2000/svg">
<g clip-path="url(#clip0_130_3466)">
<path d="M344.018 236.866H0.0178223V237.038H344.018V236.866Z" fill="#EBEBEB"/>
<path d="M309.549 247.936H299.298V248.108H309.549V247.936Z" fill="#EBEBEB"/>
<path d="M227.897 249.807H221.918V249.979H227.897V249.807Z" fill="#EBEBEB"/>
<path d="M296.395 241.551H272.872V241.723H296.395V241.551Z" fill="#EBEBEB"/>
<path d="M75.4432 245.101H45.7285V245.273H75.4432V245.101Z" fill="#EBEBEB"/>
<path d="M92.2855 245.101H81.5664V245.273H92.2855V245.101Z" fill="#EBEBEB"/>
<path d="M175.293 242.79H110.841V242.962H175.293V242.79Z" fill="#EBEBEB"/>
<path d="M163.074 206.181H30.228C29.1873 206.179 28.1898 205.765 27.4546 205.028C26.7193 204.292 26.3064 203.294 26.3064 202.253V15.5089C26.3155 14.4742 26.7324 13.4848 27.4667 12.7557C28.2009 12.0266 29.1932 11.6166 30.228 11.6149H163.074C164.116 11.6149 165.115 12.0288 165.852 12.7655C166.589 13.5022 167.002 14.5014 167.002 15.5433V202.253C167.002 203.295 166.589 204.294 165.852 205.031C165.115 205.767 164.116 206.181 163.074 206.181ZM30.228 11.7525C29.2329 11.7543 28.2792 12.1509 27.5762 12.8551C26.8732 13.5594 26.4784 14.5139 26.4784 15.5089V202.253C26.4784 203.248 26.8732 204.202 27.5762 204.907C28.2792 205.611 29.2329 206.007 30.228 206.009H163.074C164.07 206.007 165.024 205.611 165.728 204.907C166.432 204.203 166.829 203.249 166.83 202.253V15.5089C166.829 14.5132 166.432 13.5588 165.728 12.8547C165.024 12.1506 164.07 11.7543 163.074 11.7525H30.228Z" fill="#EBEBEB"/>
<path d="M311.895 206.181H179.042C178.001 206.179 177.003 205.765 176.266 205.029C175.53 204.292 175.116 203.294 175.114 202.253V15.5089C175.125 14.4736 175.543 13.4842 176.278 12.7553C177.014 12.0264 178.007 11.6166 179.042 11.6149H311.895C312.929 11.6184 313.919 12.0292 314.652 12.7581C315.385 13.4871 315.801 14.4754 315.81 15.5089V202.253C315.81 203.292 315.398 204.289 314.664 205.026C313.93 205.762 312.935 206.178 311.895 206.181ZM179.042 11.7525C178.047 11.7543 177.092 12.1506 176.388 12.8547C175.684 13.5588 175.288 14.5132 175.286 15.5089V202.253C175.288 203.249 175.684 204.203 176.388 204.907C177.092 205.611 178.047 206.007 179.042 206.009H311.895C312.891 206.007 313.845 205.611 314.549 204.907C315.253 204.203 315.65 203.249 315.652 202.253V15.5089C315.65 14.5132 315.253 13.5588 314.549 12.8547C313.845 12.1506 312.891 11.7543 311.895 11.7525H179.042Z" fill="#EBEBEB"/>
<path d="M152.41 231.844H157.845V194.623H152.41V231.844Z" fill="#F0F0F0"/>
<path d="M42.4743 236.866H154.26V231.844H42.4743V236.866Z" fill="#F0F0F0"/>
<path d="M152.41 194.623H38.8831V231.844H152.41V194.623Z" fill="#F5F5F5"/>
<path d="M145.062 201.104H46.2239V222.363H145.062V201.104Z" fill="#F0F0F0"/>
<path d="M71.6042 203.945H119.695C120.596 203.945 121.326 203.215 121.326 202.315V202.012C121.326 201.111 120.596 200.381 119.695 200.381H71.6042C70.7036 200.381 69.9736 201.111 69.9736 202.012V202.315C69.9736 203.215 70.7036 203.945 71.6042 203.945Z" fill="#F5F5F5"/>
<path d="M36.3925 194.623H152.41V191.3H36.3925V194.623Z" fill="#F0F0F0"/>
<path d="M160.453 191.3H152.41V194.623H160.453V191.3Z" fill="#E6E6E6"/>
<path d="M148.261 142.204L293.725 142.204V30.6449L148.261 30.6449V142.204Z" fill="#E6E6E6"/>
<path d="M134.646 26.3036H301.953C302.287 26.3036 302.608 26.4363 302.844 26.6724C303.08 26.9085 303.212 27.2287 303.212 27.5626C303.211 27.8954 303.077 28.2138 302.841 28.4485C302.605 28.6831 302.286 28.8148 301.953 28.8148H134.646C134.48 28.8157 134.315 28.7838 134.162 28.7209C134.008 28.6581 133.868 28.5655 133.751 28.4485C133.633 28.3315 133.54 28.1924 133.476 28.0392C133.412 27.886 133.38 27.7217 133.38 27.5558C133.381 27.3904 133.414 27.2269 133.478 27.0745C133.542 26.9221 133.636 26.7838 133.753 26.6675C133.871 26.5512 134.01 26.4592 134.163 26.3968C134.316 26.3344 134.48 26.3027 134.646 26.3036Z" fill="#E6E6E6"/>
<path d="M142.867 142.204L291.207 142.204V30.6449L142.867 30.6449V142.204Z" fill="#F0F0F0"/>
<path d="M148.261 142.204H293.725V145.775H144.546L148.261 142.204Z" fill="#E6E6E6"/>
<path d="M133.882 142.204H282.222L278.506 145.775H130.174L133.882 142.204Z" fill="#F0F0F0"/>
<path d="M283.653 134.657V38.1923L150.415 38.1923V134.657H283.653Z" fill="#FAFAFA"/>
<path d="M239.194 134.65L194.894 38.1923H173.972L218.279 134.65H239.194Z" fill="white"/>
<path d="M213.786 134.65L169.479 38.1923H161.326L205.634 134.65H213.786Z" fill="white"/>
<path d="M151.378 134.657V38.1923H150.422V134.657H151.378Z" fill="#E6E6E6"/>
<g opacity="0.4">
<path opacity="0.4" d="M283.57 116.101H296.56V24.0402H283.57V116.101Z" fill="#F0F0F0"/>
<path opacity="0.4" d="M278.507 116.101H288.627V24.0402H278.507V116.101Z" fill="#E6E6E6"/>
<path opacity="0.4" d="M270.581 116.101H283.57V24.0402H270.581V116.101Z" fill="#F0F0F0"/>
<path opacity="0.4" d="M265.517 116.101H275.638V24.0402H265.517V116.101Z" fill="#E6E6E6"/>
<path opacity="0.4" d="M257.585 116.101H270.574V24.0402H257.585V116.101Z" fill="#F0F0F0"/>
</g>
<g opacity="0.4">
<path opacity="0.4" d="M155.258 116.101H162.743V24.0402H155.258V116.101Z" fill="#F0F0F0"/>
<path opacity="0.4" d="M152.334 116.101H158.168V24.0402H152.334V116.101Z" fill="#E6E6E6"/>
<path opacity="0.4" d="M147.766 116.101H155.251V24.0402H147.766V116.101Z" fill="#F0F0F0"/>
<path opacity="0.4" d="M144.849 116.101H150.683V24.0402H144.849V116.101Z" fill="#E6E6E6"/>
<path opacity="0.4" d="M140.28 116.101H147.766V24.0402H140.28V116.101Z" fill="#F0F0F0"/>
</g>
<path d="M108.171 24.1021H48.4048V176.811H108.171V24.1021Z" fill="#F5F5F5"/>
<path d="M108.178 176.804H109.816L109.816 24.0952H108.178L108.178 176.804Z" fill="#E0E0E0"/>
<path d="M102.633 171.272L102.633 29.6335L53.9364 29.6335L53.9364 171.272H102.633Z" fill="white"/>
<path d="M71.0813 171.272L87.2424 29.6335H96.5648L80.4106 171.272H71.0813Z" fill="#FAFAFA"/>
<path d="M63.0042 171.272L79.1584 29.6335H83.823L67.6688 171.272H63.0042Z" fill="#FAFAFA"/>
<path d="M172.018 267.936C245.69 267.936 305.414 264.449 305.414 260.148C305.414 255.847 245.69 252.36 172.018 252.36C98.3449 252.36 38.6213 255.847 38.6213 260.148C38.6213 264.449 98.3449 267.936 172.018 267.936Z" fill="#F5F5F5"/>
<path d="M273.876 260.148H193.518C192.399 260.16 191.289 259.939 190.26 259.499C189.23 259.058 188.304 258.408 187.539 257.59C186.775 256.772 186.19 255.804 185.82 254.747C185.45 253.69 185.305 252.568 185.393 251.452L196.607 81.4676C196.795 79.1256 197.848 76.9375 199.562 75.3297C201.275 73.722 203.525 72.8099 205.875 72.7713H286.226C287.345 72.7602 288.454 72.9821 289.483 73.4229C290.511 73.8638 291.437 74.5138 292.2 75.3318C292.964 76.1498 293.549 77.1177 293.918 78.1741C294.287 79.2304 294.432 80.352 294.344 81.4676L283.144 251.452C282.956 253.794 281.903 255.982 280.19 257.59C278.476 259.197 276.226 260.109 273.876 260.148Z" fill="#24221E"/>
<path d="M290.794 118.482H281.066C280.796 118.485 280.528 118.431 280.28 118.325C280.032 118.219 279.808 118.062 279.624 117.864C279.439 117.667 279.298 117.433 279.209 117.179C279.12 116.924 279.084 116.653 279.105 116.384L280.075 101.66C280.13 101.101 280.388 100.58 280.802 100.2C281.216 99.8187 281.756 99.6039 282.318 99.5964H292.04C292.307 99.594 292.571 99.6466 292.817 99.7508C293.063 99.8551 293.285 100.009 293.469 100.202C293.652 100.396 293.795 100.625 293.886 100.876C293.978 101.127 294.016 101.394 294 101.66L293.03 116.384C292.986 116.949 292.732 117.477 292.318 117.866C291.905 118.254 291.361 118.473 290.794 118.482Z" fill="#24221E"/>
<path d="M226.907 70.3633H223.35V71.0513H226.907V70.3633Z" fill="#871E35"/>
<path d="M218.967 70.3633H206.033V71.0513H218.967V70.3633Z" fill="#871E35"/>
<path d="M272.652 260.148H192.293C191.174 260.159 190.065 259.937 189.036 259.496C188.007 259.056 187.081 258.406 186.317 257.588C185.553 256.77 184.967 255.802 184.597 254.746C184.227 253.689 184.081 252.568 184.168 251.452L195.41 81.4676C195.598 79.1256 196.651 76.9375 198.364 75.3298C200.078 73.722 202.328 72.81 204.677 72.7713H285.036C286.151 72.7669 287.254 72.9938 288.277 73.4376C289.3 73.8814 290.22 74.5324 290.978 75.3497C291.736 76.1669 292.317 77.1325 292.683 78.1856C293.05 79.2386 293.194 80.3561 293.106 81.4676L281.919 251.452C281.731 253.794 280.678 255.982 278.965 257.59C277.252 259.197 275.001 260.109 272.652 260.148Z" fill="#E3AC1E"/>
<path d="M276.298 240.347H191.282C190.646 240.354 190.016 240.228 189.431 239.978C188.846 239.728 188.32 239.359 187.886 238.894C187.452 238.43 187.119 237.88 186.909 237.279C186.699 236.679 186.616 236.042 186.666 235.408L196.428 87.4188C196.534 86.0919 197.129 84.8515 198.098 83.9386C199.066 83.0258 200.34 82.5055 201.671 82.479H286.708C287.344 82.4723 287.974 82.598 288.559 82.8482C289.143 83.0984 289.67 83.4676 290.104 83.9322C290.538 84.3969 290.871 84.9469 291.081 85.5471C291.291 86.1474 291.374 86.7848 291.324 87.4188L281.561 235.408C281.456 236.738 280.858 237.981 279.884 238.895C278.911 239.808 277.633 240.326 276.298 240.347Z" fill="white"/>
<path d="M260.44 82.479H243.556L202.655 240.347H219.538L260.44 82.479Z" fill="#FAFAFA"/>
<path d="M275.314 82.479H266.873L225.971 240.347H234.413L275.314 82.479Z" fill="#FAFAFA"/>
<path d="M264.1 191.431L245.744 122.005C245.253 120.159 244.051 118.583 242.4 117.622C240.749 116.661 238.785 116.394 236.938 116.879L193.511 128.355L187.718 219.074L258.974 200.244C260.82 199.75 262.394 198.546 263.355 196.894C264.315 195.243 264.583 193.279 264.1 191.431Z" fill="#F0F0F0"/>
<path opacity="0.2" d="M236.863 252.101C239.07 249.966 239.24 246.562 237.242 244.498C235.245 242.433 231.837 242.49 229.63 244.624C227.424 246.759 227.254 250.163 229.251 252.228C231.249 254.292 234.657 254.236 236.863 252.101Z" fill="white"/>
<path opacity="0.2" d="M246.755 77.3465C246.708 77.946 246.438 78.506 245.999 78.917C245.56 79.328 244.983 79.5604 244.382 79.5687C244.097 79.5696 243.815 79.5114 243.554 79.398C243.292 79.2845 243.057 79.1181 242.863 78.9094C242.67 78.7006 242.521 78.454 242.427 78.185C242.333 77.9161 242.296 77.6306 242.318 77.3465C242.364 76.7465 242.634 76.1856 243.073 75.7743C243.512 75.363 244.09 75.1311 244.691 75.1243C244.976 75.1234 245.258 75.1816 245.52 75.2951C245.781 75.4085 246.016 75.5749 246.21 75.7836C246.404 75.9924 246.552 76.239 246.646 76.508C246.74 76.777 246.777 77.0625 246.755 77.3465Z" fill="white"/>
<path opacity="0.2" d="M245.751 77.3465C245.727 77.6763 245.58 77.9852 245.339 78.2119C245.098 78.4386 244.781 78.5668 244.451 78.5711C244.293 78.5736 244.136 78.543 243.991 78.4812C243.846 78.4195 243.715 78.3279 243.608 78.2125C243.5 78.0971 243.418 77.9604 243.366 77.8112C243.315 77.662 243.295 77.5037 243.309 77.3465C243.333 77.0166 243.48 76.7078 243.72 76.4811C243.961 76.2543 244.278 76.1261 244.609 76.1218C244.767 76.1193 244.923 76.15 245.068 76.2118C245.214 76.2735 245.344 76.3651 245.452 76.4805C245.56 76.5959 245.642 76.7326 245.693 76.8818C245.745 77.0309 245.765 77.1893 245.751 77.3465Z" fill="white"/>
<path d="M116.51 68.7602C119.076 62.4512 118.154 54.7663 110.875 53.0463C109.271 52.6331 107.593 52.6014 105.974 52.9539C104.356 53.3063 102.843 54.033 101.556 55.0758C100.269 56.1186 99.244 57.4484 98.5637 58.9586C97.8834 60.4688 97.5664 62.1174 97.6381 63.7722C97.927 70.6522 102.454 76.3832 94.5214 81.3712C86.5888 86.3592 87.435 101.392 102.777 98.4887C118.12 95.5853 109.829 87.694 109.829 87.694C109.829 87.694 106.066 90.7624 104.855 87.6389C103.321 83.5935 113.538 76.1424 116.51 68.7602Z" fill="#24221E"/>
<path d="M89.5129 89.4553L89.1758 89.3796C90.2009 84.7906 91.8108 83.6073 93.5102 82.3551C95.2095 81.103 96.8195 79.9127 98.1198 75.3994C98.7321 73.2735 98.3468 70.9206 97.9684 68.6502C97.4868 65.7537 96.9915 62.754 98.4844 60.0708L98.7803 60.2428C97.3492 62.8159 97.8377 65.7468 98.3055 68.5951C98.6908 70.9068 99.0899 73.2942 98.45 75.4751C97.1222 80.0985 95.3884 81.3713 93.7166 82.6097C92.0447 83.8481 90.5105 84.997 89.5129 89.4553Z" fill="#24221E"/>
<path d="M136.049 103.415C136.097 103.649 136.18 104 136.256 104.316L136.496 105.286C136.662 105.94 136.847 106.593 137.04 107.247C137.432 108.547 137.852 109.861 138.306 111.155C139.214 113.758 140.252 116.313 141.416 118.812L142.282 120.622C142.429 120.945 142.637 121.237 142.895 121.482C143.668 122.104 144.591 122.512 145.571 122.665C148.144 123.081 150.766 123.081 153.339 122.665L154.267 125.589C153.556 125.903 152.828 126.178 152.086 126.415C151.35 126.66 150.601 126.866 149.844 127.034C148.265 127.397 146.646 127.548 145.028 127.481C143.124 127.427 141.272 126.844 139.682 125.795C138.787 125.175 138.032 124.373 137.466 123.442L137.356 123.27L137.288 123.154L137.15 122.906L136.868 122.424L136.311 121.447C134.871 118.823 133.607 116.107 132.527 113.315C132.004 111.939 131.488 110.501 131.068 109.05C130.862 108.362 130.655 107.598 130.47 106.855C130.284 106.112 130.119 105.41 129.967 104.529L136.049 103.415Z" fill="#FFBE9D"/>
<path d="M130.738 93.7965C137.68 96.8925 137.618 107.295 137.618 107.295L130.304 111.691C130.304 111.691 124.8 103.546 125.213 99.8441C125.619 95.9844 126.803 92.0559 130.738 93.7965Z" fill="#871E35"/>
<path opacity="0.2" d="M131.832 102.672C129.933 100.752 128.261 102.968 126.734 105.424C127.781 107.596 128.974 109.694 130.304 111.705L133.304 109.903C133.896 107.612 133.724 104.598 131.832 102.672Z" fill="black"/>
<path d="M152.616 122.926L157.501 120.491L157.556 126.882C157.556 126.882 153.91 127.515 151.481 124.956L152.616 122.926Z" fill="#FFBE9D"/>
<path d="M162.75 121.626L161.911 126.373L157.556 126.882L157.501 120.491L162.75 121.626Z" fill="#FFBE9D"/>
<path d="M107.903 255.071L113.944 255.649L116.758 241.593L110.717 241.015L107.903 255.071Z" fill="#FFBE9D"/>
<path d="M68.2949 238.593L73.2072 242.171L81.4013 230.543L76.4821 226.966L68.2949 238.593Z" fill="#FFBE9D"/>
<path d="M75.0098 239.935L70.9644 234.396C70.8971 234.298 70.796 234.228 70.6804 234.2C70.5648 234.173 70.4429 234.188 70.3383 234.245L65.4879 236.818C65.368 236.888 65.2642 236.982 65.1832 237.094C65.1022 237.207 65.0459 237.335 65.018 237.471C64.9901 237.606 64.9911 237.747 65.0211 237.882C65.0511 238.017 65.1094 238.145 65.1921 238.256C66.6369 240.162 67.4281 241.008 69.21 243.45C70.3108 244.95 72.5124 248.425 74.026 250.495C75.5396 252.566 77.6655 251.183 77.2252 250.186C75.23 245.707 75.1612 243.086 75.3125 240.987C75.3414 240.611 75.2339 240.238 75.0098 239.935Z" fill="#24221E"/>
<path d="M114.742 253.825H107.49C107.36 253.825 107.233 253.869 107.13 253.948C107.027 254.028 106.953 254.14 106.919 254.266L105.344 259.983C105.305 260.118 105.299 260.261 105.325 260.399C105.351 260.537 105.409 260.667 105.495 260.779C105.581 260.891 105.691 260.981 105.818 261.042C105.945 261.103 106.084 261.134 106.224 261.132C108.784 261.132 109.995 261.132 113.18 261.132H122.929C125.578 261.132 126.128 258.456 125.034 258.208C120.122 257.121 117.288 255.621 115.767 254.19C115.484 253.943 115.117 253.813 114.742 253.825Z" fill="#24221E"/>
<path opacity="0.2" d="M116.758 241.6L115.306 248.844H109.148L110.717 241.022L116.758 241.6Z" fill="black"/>
<path opacity="0.2" d="M76.4821 226.966L81.4013 230.55L77.177 236.543L72.2578 232.958L76.4821 226.966Z" fill="black"/>
<path d="M133.6 99.2799C133.173 103.924 131.632 113.04 127.126 130.852L102.399 128.713C103.589 119.431 104.147 113.418 101.821 95.8468C101.746 95.266 101.79 94.6758 101.952 94.113C102.114 93.5502 102.39 93.0267 102.763 92.575C103.136 92.1234 103.598 91.7532 104.12 91.4876C104.642 91.2219 105.213 91.0664 105.798 91.0308C107.58 90.9345 109.699 90.8726 111.825 90.9551C115.586 91.0114 119.338 91.3356 123.053 91.9252C125.234 92.3174 127.559 92.8815 129.451 93.3769C130.729 93.7116 131.847 94.4882 132.606 95.5689C133.366 96.6495 133.718 97.9643 133.6 99.2799Z" fill="#871E35"/>
<path opacity="0.2" d="M102.454 100.993C102.771 103.745 103.005 106.201 103.142 108.403C105.419 108.203 107.098 105.706 107.27 100.484C106.417 97.9589 104.387 98.8739 102.454 100.993Z" fill="black"/>
<path d="M127.126 130.852C127.126 130.852 135.492 167.867 129.878 193.962C126.142 211.438 117.824 246.739 117.824 246.739L107.277 246.471C107.277 246.471 112.313 209.422 114.425 194.871C118.037 169.951 108.99 129.311 108.99 129.311L127.126 130.852Z" fill="#24221E"/>
<path opacity="0.2" d="M117.48 138.331L112.203 146.649C113.792 156.511 114.801 166.458 115.223 176.439C122.64 163.161 119.124 145.355 117.48 138.331Z" fill="black"/>
<path d="M119.338 247.289L106.307 246.959L107.064 242.955L120.356 243.581L119.338 247.289Z" fill="#871E35"/>
<path d="M121.718 130.46C121.718 130.46 116.813 169.71 106.169 191.142C97.5762 208.452 79.5987 235.965 79.5987 235.965L73.0283 230.702C73.0283 230.702 84.2702 200.271 90.6549 188.775C106.321 160.567 93.517 139.067 102.399 128.713L121.718 130.46Z" fill="#24221E"/>
<path d="M224.613 95.5302L107.669 144.665C103.998 146.207 102.272 150.434 103.815 154.105L131.63 220.306C133.172 223.977 137.399 225.703 141.07 224.16L258.014 175.026C261.685 173.483 263.41 169.257 261.868 165.585L234.053 99.3847C232.511 95.7134 228.284 93.9878 224.613 95.5302Z" fill="#871E35"/>
<path opacity="0.1" d="M224.613 95.5302L107.669 144.665C103.998 146.207 102.272 150.434 103.815 154.105L131.63 220.306C133.172 223.977 137.399 225.703 141.07 224.16L258.014 175.026C261.685 173.483 263.41 169.257 261.868 165.585L234.053 99.3847C232.511 95.7134 228.284 93.9878 224.613 95.5302Z" fill="black"/>
<path opacity="0.2" d="M139.927 141.718L117.03 151.338C115.264 152.08 114.434 154.113 115.176 155.878L120.002 167.365C120.744 169.131 122.777 169.961 124.542 169.219L147.44 159.598C149.206 158.857 150.035 156.824 149.294 155.058L144.467 143.571C143.726 141.806 141.693 140.976 139.927 141.718Z" fill="white"/>
<path opacity="0.4" d="M155.995 187.125L133.56 196.551C132.898 196.829 132.587 197.591 132.865 198.254L134.568 202.307C134.846 202.969 135.608 203.28 136.27 203.002L158.705 193.576C159.367 193.297 159.678 192.535 159.4 191.873L157.697 187.82C157.419 187.158 156.657 186.847 155.995 187.125Z" fill="white"/>
<path opacity="0.4" d="M185.183 174.864L162.749 184.291C162.087 184.569 161.775 185.331 162.053 185.993L163.756 190.046C164.035 190.708 164.797 191.019 165.459 190.741L187.894 181.315C188.556 181.037 188.867 180.275 188.589 179.613L186.886 175.56C186.608 174.897 185.845 174.586 185.183 174.864Z" fill="white"/>
<path opacity="0.4" d="M214.365 162.604L191.93 172.03C191.268 172.308 190.957 173.071 191.235 173.733L192.938 177.786C193.216 178.448 193.979 178.759 194.641 178.481L217.076 169.055C217.738 168.777 218.049 168.014 217.771 167.352L216.068 163.299C215.79 162.637 215.027 162.326 214.365 162.604Z" fill="white"/>
<path opacity="0.4" d="M243.554 150.344L221.119 159.77C220.457 160.048 220.146 160.81 220.424 161.472L222.127 165.525C222.405 166.187 223.168 166.499 223.83 166.22L246.265 156.794C246.927 156.516 247.238 155.754 246.96 155.092L245.257 151.039C244.979 150.377 244.216 150.065 243.554 150.344Z" fill="white"/>
<path d="M80.2869 236.694L71.8589 230.316L73.9298 226.615L82.8875 233.564L80.2869 236.694Z" fill="#871E35"/>
<path d="M102.151 127.233L100.844 129.352C100.741 129.511 100.934 129.71 101.216 129.731L127.153 131.974C127.373 131.974 127.566 131.898 127.594 131.76L128.006 129.566C128.041 129.414 127.855 129.27 127.614 129.249L102.571 127.082C102.494 127.07 102.415 127.077 102.342 127.104C102.268 127.13 102.203 127.175 102.151 127.233Z" fill="#871E35"/>
<path opacity="0.5" d="M102.151 127.233L100.844 129.352C100.741 129.511 100.934 129.71 101.216 129.731L127.153 131.974C127.373 131.974 127.566 131.898 127.594 131.76L128.006 129.566C128.041 129.414 127.855 129.27 127.614 129.249L102.571 127.082C102.494 127.07 102.415 127.077 102.342 127.104C102.268 127.13 102.203 127.175 102.151 127.233Z" fill="black"/>
<path d="M105.282 130.322L104.594 130.267C104.463 130.267 104.367 130.178 104.38 130.095L104.945 127.247C104.945 127.158 105.082 127.103 105.22 127.116L105.908 127.171C106.045 127.171 106.142 127.261 106.121 127.343L105.557 130.192C105.529 130.274 105.406 130.336 105.282 130.322Z" fill="#871E35"/>
<path d="M125.234 132.049L124.546 131.994C124.415 131.994 124.319 131.905 124.333 131.822L124.897 128.974C124.922 128.925 124.962 128.885 125.012 128.861C125.062 128.838 125.118 128.831 125.172 128.843L125.86 128.898C125.998 128.898 126.094 128.988 126.073 129.07L125.509 131.919C125.502 132.015 125.378 132.063 125.234 132.049Z" fill="#871E35"/>
<path d="M115.258 131.189L114.57 131.127C114.432 131.127 114.336 131.038 114.357 130.955L114.921 128.107C114.921 128.025 115.058 127.963 115.189 127.976L115.877 128.038C116.008 128.038 116.104 128.128 116.09 128.21L115.526 131.059C115.512 131.141 115.395 131.196 115.258 131.189Z" fill="#871E35"/>
<path d="M76.5509 242.996C76.4735 243.01 76.3944 243.01 76.317 242.996C75.5671 242.845 74.941 241.572 74.6108 240.829C74.5978 240.81 74.5908 240.787 74.5908 240.764C74.5908 240.74 74.5978 240.718 74.6108 240.698C74.6287 240.685 74.6504 240.678 74.6727 240.678C74.695 240.678 74.7168 240.685 74.7346 240.698C74.9685 240.781 77.0188 241.572 77.177 242.322C77.196 242.403 77.1919 242.488 77.1652 242.567C77.1384 242.646 77.0901 242.716 77.0257 242.769C76.8956 242.893 76.7293 242.973 76.5509 242.996ZM74.9479 240.987C75.4158 242.012 75.9386 242.666 76.3652 242.749C76.4615 242.763 76.56 242.753 76.6514 242.719C76.7428 242.686 76.8242 242.629 76.8881 242.556C76.9225 242.53 76.9486 242.495 76.9633 242.455C76.9779 242.414 76.9805 242.371 76.9706 242.329C76.8743 241.868 75.6565 241.276 74.9479 240.987Z" fill="#871E35"/>
<path d="M76.6129 241.084C75.9589 241.165 75.2951 241.094 74.6728 240.877C74.6538 240.869 74.6374 240.855 74.6253 240.838C74.6132 240.821 74.6058 240.802 74.604 240.781C74.6013 240.76 74.6043 240.739 74.6128 240.719C74.6213 240.7 74.6349 240.683 74.6521 240.671C74.7141 240.63 76.1313 239.598 76.9845 239.79C77.0898 239.81 77.1895 239.853 77.2763 239.916C77.3631 239.979 77.435 240.061 77.4867 240.155C77.5548 240.241 77.5918 240.348 77.5918 240.458C77.5918 240.567 77.5548 240.674 77.4867 240.76C77.2419 240.966 76.9329 241.081 76.6129 241.084ZM75.0099 240.719C75.6979 240.918 76.9845 240.932 77.3009 240.581C77.356 240.526 77.4041 240.437 77.3009 240.258C77.267 240.194 77.219 240.139 77.1607 240.096C77.1023 240.053 77.035 240.024 76.9638 240.01C76.3859 239.893 75.3952 240.464 75.0099 240.719Z" fill="#871E35"/>
<path d="M117.962 254.995C117.295 254.978 116.631 254.895 115.98 254.747C115.958 254.738 115.939 254.722 115.926 254.702C115.913 254.681 115.906 254.658 115.906 254.634C115.906 254.61 115.913 254.586 115.926 254.566C115.939 254.546 115.958 254.53 115.98 254.52C116.283 254.376 118.911 253.144 119.571 253.612C119.633 253.651 119.682 253.707 119.712 253.773C119.743 253.838 119.753 253.912 119.743 253.984C119.742 254.118 119.709 254.251 119.647 254.37C119.584 254.49 119.495 254.593 119.386 254.672C118.958 254.929 118.459 255.042 117.962 254.995ZM116.393 254.582C117.177 254.727 118.622 254.919 119.214 254.472C119.29 254.412 119.353 254.336 119.398 254.249C119.444 254.163 119.47 254.067 119.475 253.97C119.475 253.874 119.475 253.832 119.413 253.812C119.042 253.557 117.487 254.101 116.393 254.582Z" fill="#871E35"/>
<path d="M116.008 254.747C115.984 254.757 115.956 254.757 115.932 254.747C115.914 254.734 115.901 254.716 115.893 254.695C115.886 254.674 115.885 254.652 115.891 254.63C115.891 254.513 116.51 251.92 117.955 252.085C118.313 252.133 118.409 252.305 118.43 252.449C118.519 253.137 116.861 254.445 116.063 254.768L116.008 254.747ZM117.81 252.291C116.895 252.291 116.366 253.805 116.187 254.41C117.047 253.956 118.251 252.876 118.175 252.456C118.175 252.422 118.175 252.326 117.907 252.298L117.81 252.291Z" fill="#871E35"/>
<path d="M105.137 101.117L104.773 101.633L104.374 102.218C104.105 102.617 103.837 103.023 103.583 103.442C103.06 104.268 102.585 105.128 102.103 105.988C101.152 107.718 100.316 109.508 99.599 111.347C98.8764 113.176 98.272 115.049 97.7896 116.955L97.4662 118.331C97.4662 118.289 97.4249 118.434 97.5006 118.695C97.7374 119.431 98.0829 120.126 98.5257 120.759C99.6371 122.357 100.885 123.856 102.255 125.238C103.631 126.697 105.158 128.107 106.679 129.511C108.199 130.914 109.795 132.263 111.391 133.591C112.987 134.918 114.618 136.26 116.207 137.553L114.487 140.092C110.802 137.906 107.244 135.513 103.83 132.923C102.11 131.63 100.425 130.267 98.794 128.795C97.0842 127.297 95.5243 125.635 94.1363 123.835C93.3043 122.777 92.6534 121.589 92.2099 120.319C91.9088 119.435 91.8077 118.495 91.914 117.567V117.374V117.271L91.9484 117.065L92.0172 116.645L92.1617 115.813C92.5665 113.597 93.1369 111.414 93.868 109.283C94.6241 107.163 95.5181 105.095 96.5443 103.091C97.0603 102.087 97.6244 101.117 98.2299 100.161C98.5257 99.679 98.8353 99.2043 99.1587 98.7295L99.6678 98.0415C99.8467 97.8007 99.998 97.5875 100.239 97.2916L105.137 101.117Z" fill="#FFBE9D"/>
<path d="M104.525 91.4229C99.8053 92.6613 95.2507 104.103 95.2507 104.103L101.36 109.689C101.36 109.689 110.958 100.938 110.634 96.9889C110.366 93.6314 108.316 90.4185 104.525 91.4229Z" fill="#871E35"/>
<path opacity="0.2" d="M111.825 90.735C110.96 90.9115 110.079 90.9923 109.196 90.9758C109.011 94.3745 111.192 97.6563 116.551 102.059C117.838 98.0484 120.679 97.1815 120.679 97.1815L111.825 90.735Z" fill="black"/>
<path opacity="0.2" d="M123.053 91.8151C123.053 91.8151 123.679 91.9045 125.172 92.2485C126.17 93.7827 127.463 98.5093 124.525 101.88C123.383 97.7525 120.659 97.2296 120.659 97.2296L123.053 91.8151Z" fill="black"/>
<path d="M111.825 90.735C111.825 90.735 110.449 90.735 108.77 90.735C107.772 92.2692 111.205 96.5211 116.558 100.924C117.845 96.9132 120.686 97.154 120.686 97.154L111.825 90.735Z" fill="white"/>
<path d="M123.053 91.8151C123.053 91.8151 123.679 91.9045 125.172 92.2485C126.17 93.7827 128.323 97.9383 125.385 101.282C124.243 97.1539 120.659 97.209 120.659 97.209L123.053 91.8151Z" fill="white"/>
<path d="M114.033 78.3854C114.432 82.0593 114.563 88.7054 111.825 90.9345C111.825 90.9345 113.249 95.0625 120.659 97.2091C125.117 94.6359 123.053 91.9046 123.053 91.9046C119.111 90.5974 119.475 87.6183 120.418 84.8663L114.033 78.3854Z" fill="#FFBE9D"/>
<path opacity="0.2" d="M116.634 81.0342L120.418 84.8663C120.186 85.5032 120.011 86.1594 119.895 86.8271C118.375 86.4763 116.173 84.8939 116.152 83.2702C116.18 82.5024 116.343 81.7455 116.634 81.0342Z" fill="black"/>
<path d="M122.399 63.7035C123.603 62.3756 125.991 64.0681 126.871 67.3224C128.192 72.1384 124.67 72.4824 122.826 70.0744C120.982 67.6664 121.395 64.8112 122.399 63.7035Z" fill="#24221E"/>
<path d="M126.128 72.1589C127.336 72.577 128.478 73.1654 129.52 73.9065C128.921 72.4479 128.385 71.5604 126.128 72.1589Z" fill="#24221E"/>
<path d="M126.823 72.386C127.801 72.1913 128.802 72.1357 129.795 72.2209C128.818 71.471 128.11 71.0995 126.823 72.386Z" fill="#24221E"/>
<path d="M110.786 72.6474C112.32 78.516 112.85 81.0341 116.441 83.4903C121.856 87.1917 128.729 84.0269 128.983 77.8143C129.21 72.2277 126.665 63.5726 120.383 62.348C118.999 62.067 117.566 62.1458 116.221 62.577C114.876 63.0081 113.664 63.7772 112.701 64.8105C111.738 65.8439 111.056 67.107 110.721 68.4791C110.386 69.8512 110.408 71.2864 110.786 72.6474Z" fill="#FFBE9D"/>
<path d="M113.62 64.9074L111.921 66.882C111.411 67.4654 110.692 67.8243 109.919 67.881C109.146 67.9376 108.383 67.6875 107.793 67.1847C107.209 66.6758 106.848 65.957 106.79 65.1843C106.733 64.4115 106.982 63.6471 107.483 63.0567L109.183 61.089C109.693 60.5062 110.411 60.1471 111.183 60.0892C111.956 60.0313 112.72 60.2792 113.311 60.7794C113.894 61.2893 114.253 62.0078 114.311 62.78C114.369 63.5523 114.121 64.3163 113.62 64.9074Z" fill="white"/>
<path d="M115.189 67.1091L113.125 68.141C112.278 68.556 111.301 68.6188 110.408 68.3159C109.514 68.013 108.777 67.3689 108.357 66.5242C107.942 65.6761 107.879 64.6982 108.182 63.8038C108.485 62.9093 109.129 62.1709 109.974 61.7495L112.038 60.7175C112.887 60.3028 113.865 60.2408 114.76 60.545C115.655 60.8492 116.392 61.4949 116.813 62.3412C117.227 63.1892 117.289 64.1667 116.985 65.0602C116.68 65.9536 116.035 66.6903 115.189 67.1091Z" fill="#871E35"/>
<path d="M112.547 77.0368C112.547 77.0368 116.785 76.0668 114.983 69.8679C114.915 69.6293 114.904 69.3785 114.948 69.1347C114.993 68.8909 115.093 68.6606 115.24 68.4613C115.388 68.2621 115.579 68.0993 115.799 67.9853C116.019 67.8713 116.262 67.8093 116.51 67.8039C121.285 67.6732 125.75 66.6756 125.117 63.9098C124.326 60.4148 112.43 57.7178 110.27 64.7148C106.052 65.6986 105.894 74.0096 112.547 77.0368Z" fill="#24221E"/>
<path d="M112.568 75.8123C113.776 76.2303 114.918 76.8187 115.959 77.5598C115.361 76.115 114.824 75.2275 112.568 75.8123Z" fill="#24221E"/>
<path d="M113.263 76.053C114.241 75.8583 115.241 75.8027 116.235 75.8879C115.265 75.1517 114.556 74.7733 113.263 76.053Z" fill="#24221E"/>
<path d="M109.823 77.257C110.372 78.2935 111.31 79.0702 112.43 79.4174C113.923 79.8646 114.694 78.5436 114.308 77.1194C113.958 75.8398 112.76 74.0716 111.254 74.2436C110.926 74.2889 110.615 74.4151 110.348 74.6107C110.081 74.8063 109.867 75.0652 109.725 75.3641C109.583 75.663 109.518 75.9925 109.535 76.3229C109.552 76.6533 109.651 76.9744 109.823 77.257Z" fill="#FFBE9D"/>
<path d="M120.734 72.4479C120.831 72.9295 121.168 73.2735 121.477 73.2116C121.787 73.1496 121.973 72.7024 121.883 72.2208C121.794 71.7392 121.45 71.3952 121.133 71.4572C120.817 71.5191 120.638 71.9594 120.734 72.4479Z" fill="#24221E"/>
<path d="M126.204 71.3678C126.3 71.8562 126.63 72.1934 126.947 72.1314C127.263 72.0695 127.442 71.6292 127.346 71.1476C127.25 70.666 126.919 70.322 126.603 70.3839C126.286 70.4458 126.107 70.8862 126.204 71.3678Z" fill="#24221E"/>
<path d="M126.472 70.4389L127.566 69.8748C127.566 69.8748 127.146 70.8999 126.472 70.4389Z" fill="#24221E"/>
<path d="M124.326 72.5786C124.973 73.5986 125.758 74.5246 126.658 75.3306C126.448 75.5606 126.19 75.7415 125.902 75.8604C125.615 75.9793 125.304 76.0333 124.993 76.0186L124.326 72.5786Z" fill="#ED847E"/>
<path d="M122.757 78.2959C121.739 78.3089 120.754 77.9323 120.005 77.2432C119.983 77.2201 119.97 77.1893 119.97 77.1572C119.97 77.1251 119.983 77.0943 120.005 77.0712C120.028 77.0489 120.059 77.0365 120.091 77.0365C120.123 77.0365 120.154 77.0489 120.177 77.0712C120.64 77.4795 121.193 77.7726 121.791 77.9269C122.388 78.0811 123.014 78.092 123.617 77.9587C123.648 77.9533 123.68 77.9603 123.706 77.9784C123.731 77.9965 123.749 78.024 123.755 78.0551C123.76 78.0861 123.753 78.118 123.735 78.1438C123.717 78.1696 123.689 78.1872 123.658 78.1927C123.362 78.2592 123.06 78.2938 122.757 78.2959Z" fill="#24221E"/>
<path d="M117.453 70.5696C117.409 70.5678 117.367 70.5561 117.329 70.5352C117.274 70.5024 117.235 70.4491 117.219 70.3872C117.204 70.3253 117.213 70.2597 117.246 70.205C117.474 69.8184 117.79 69.4918 118.17 69.2524C118.549 69.0131 118.98 68.8679 119.427 68.829C119.491 68.8289 119.552 68.8531 119.598 68.8966C119.644 68.9401 119.671 68.9996 119.675 69.0629C119.676 69.0945 119.67 69.126 119.659 69.1556C119.648 69.1852 119.631 69.2122 119.609 69.2352C119.587 69.2582 119.561 69.2767 119.533 69.2896C119.504 69.3026 119.473 69.3097 119.441 69.3106C119.072 69.3512 118.718 69.4791 118.408 69.6836C118.098 69.8882 117.841 70.1636 117.659 70.4871C117.634 70.5164 117.602 70.5392 117.566 70.5536C117.53 70.5679 117.491 70.5735 117.453 70.5696Z" fill="#24221E"/>
<path d="M127.724 68.6295C127.686 68.6397 127.646 68.6397 127.607 68.6295C127.287 68.4403 126.926 68.3293 126.554 68.3054C126.182 68.2815 125.81 68.3454 125.468 68.4919C125.407 68.5229 125.336 68.5284 125.27 68.5071C125.205 68.4858 125.151 68.4395 125.12 68.3784C125.089 68.3173 125.084 68.2463 125.105 68.1812C125.126 68.116 125.173 68.062 125.234 68.031C125.646 67.8443 126.097 67.76 126.548 67.7851C127 67.8103 127.439 67.9442 127.828 68.1755C127.855 68.1905 127.879 68.2109 127.899 68.2354C127.918 68.2599 127.932 68.2881 127.941 68.3182C127.949 68.3484 127.951 68.3799 127.947 68.4109C127.943 68.4419 127.933 68.4718 127.917 68.4988C127.9 68.536 127.873 68.5677 127.839 68.5907C127.805 68.6137 127.765 68.6272 127.724 68.6295Z" fill="#24221E"/>
<path d="M113.958 136.528L119.462 136.913L116.978 142.796C116.978 142.796 112.382 141.344 112.196 137.98L113.958 136.528Z" fill="#FFBE9D"/>
<path d="M121.574 140.243L118.911 144.261L116.985 142.796L119.482 136.913L121.574 140.243Z" fill="#FFBE9D"/>
<path d="M121.003 71.5122L122.097 70.948C122.097 70.948 121.677 71.9731 121.003 71.5122Z" fill="#24221E"/>
</g>
<defs>
<clipPath id="clip0_130_3466">
<rect width="344" height="297" fill="white" transform="translate(0.0178223 0.774902)"/>
</clipPath>
</defs>
</svg>
