<svg width="24" height="24" viewBox="0 0 24 24" fill="none" xmlns="http://www.w3.org/2000/svg">
<g clip-path="url(#clip0_4001_2501)">
<mask id="mask0_4001_2501" style="mask-type:luminance" maskUnits="userSpaceOnUse" x="0" y="0" width="24" height="24">
<path d="M24 0H0V24H24V0Z" fill="white"/>
</mask>
<g mask="url(#mask0_4001_2501)">
<path d="M15.2729 23.1819H8.72743C7.28743 23.1819 6.08744 23.0452 5.0729 22.7509C4.70199 22.6457 4.46198 22.2987 4.4838 21.9306C4.75652 18.7868 8.06198 16.3157 12.0002 16.3157C15.9384 16.3157 19.2329 18.7763 19.5165 21.9306C19.5493 22.3092 19.3093 22.6457 18.9275 22.7509C17.9129 23.0452 16.7129 23.1819 15.2729 23.1819ZM6.24017 21.4049C6.96017 21.5416 7.77834 21.6047 8.72743 21.6047H15.2729C16.222 21.6047 17.0402 21.5416 17.7602 21.4049C17.182 19.3861 14.7929 17.893 12.0002 17.893C9.20743 17.893 6.81835 19.3861 6.24017 21.4049Z" fill="#24221E"/>
<path d="M15.2726 1.36377H8.72718C3.27264 1.36377 1.09082 3.46673 1.09082 8.72412V15.0329C1.09082 19.0076 2.33446 21.1841 5.30173 21.9938C5.54173 19.2599 8.45446 17.1044 11.9999 17.1044C15.5454 17.1044 18.4581 19.2599 18.6981 21.9938C21.6654 21.1841 22.909 19.0076 22.909 15.0329V8.72412C22.909 3.46673 20.7272 1.36377 15.2726 1.36377ZM11.9999 14.1602C9.83991 14.1602 8.09446 12.4675 8.09446 10.3855C8.09446 8.30354 9.83991 6.62117 11.9999 6.62117C14.1599 6.62117 15.9054 8.30354 15.9054 10.3855C15.9054 12.4675 14.1599 14.1602 11.9999 14.1602Z" stroke="#24221E" stroke-width="1.5" stroke-linecap="round" stroke-linejoin="round"/>
<path d="M11.9998 14.9488C9.39249 14.9488 7.27612 12.8985 7.27612 10.3855C7.27612 7.8724 9.39249 5.83252 11.9998 5.83252C14.6071 5.83252 16.7234 7.8724 16.7234 10.3855C16.7234 12.8985 14.6071 14.9488 11.9998 14.9488ZM11.9998 7.40973C10.2979 7.40973 8.91249 8.74513 8.91249 10.3855C8.91249 12.0363 10.2979 13.3716 11.9998 13.3716C13.7016 13.3716 15.0871 12.0363 15.0871 10.3855C15.0871 8.74513 13.7016 7.40973 11.9998 7.40973Z" fill="#24221E"/>
</g>
</g>
<defs>
<clipPath id="clip0_4001_2501">
<rect width="24" height="24" fill="white"/>
</clipPath>
</defs>
</svg>
