<svg width="24" height="24" viewBox="0 0 24 24" fill="none" xmlns="http://www.w3.org/2000/svg">
<g clip-path="url(#clip0_4001_2511)">
<mask id="mask0_4001_2511" style="mask-type:luminance" maskUnits="userSpaceOnUse" x="0" y="0" width="24" height="24">
<path d="M24 0H0V24H24V0Z" fill="white"/>
</mask>
<g mask="url(#mask0_4001_2511)">
<path d="M15.5688 23.1384C15.3346 23.1384 15.1003 23.1048 14.8662 23.0487C14.1748 22.858 13.5948 22.4207 13.2268 21.8039L13.093 21.5796C12.435 20.4357 11.5316 20.4357 10.8736 21.5796L10.7509 21.7927C10.3829 22.4207 9.80297 22.8692 9.11153 23.0487C8.40892 23.2393 7.68402 23.1384 7.07063 22.7683L5.15242 21.6581C4.47212 21.2656 3.98141 20.6264 3.76951 19.8525C3.56878 19.0787 3.66914 18.2825 4.05948 17.5985C4.3829 17.0265 4.47212 16.5106 4.28252 16.1855C4.09294 15.8602 3.61338 15.6696 2.9554 15.6696C1.32714 15.6696 0 14.3351 0 12.6977V10.724C0 9.08669 1.32714 7.75217 2.9554 7.75217C3.61338 7.75217 4.09294 7.56153 4.28252 7.23631C4.47212 6.91108 4.39405 6.39522 4.05948 5.82329C3.66914 5.13921 3.56878 4.33176 3.76951 3.56917C3.97026 2.79538 4.46096 2.15616 5.15242 1.76365L7.08179 0.653422C8.342 -0.0979459 10.0037 0.339417 10.7621 1.62908L10.8959 1.85337C11.5539 2.99724 12.4572 2.99724 13.1153 1.85337L13.2379 1.64029C13.9963 0.339417 15.658 -0.0979459 16.9294 0.664637L18.8476 1.77487C19.5278 2.16737 20.0186 2.80659 20.2304 3.5804C20.4312 4.35419 20.3309 5.15042 19.9405 5.8345C19.6171 6.40643 19.5278 6.92231 19.7174 7.24752C19.907 7.57274 20.3866 7.76338 21.0446 7.76338C22.6729 7.76338 24 9.09791 24 10.7352V12.709C24 14.3463 22.6729 15.6808 21.0446 15.6808C20.3866 15.6808 19.907 15.8714 19.7174 16.1967C19.5278 16.5219 19.606 17.0377 19.9405 17.6097C20.3309 18.2938 20.4424 19.1012 20.2304 19.8637C20.0297 20.6376 19.539 21.2768 18.8476 21.6693L16.9182 22.7795C16.4945 23.0151 16.0372 23.1384 15.5688 23.1384ZM11.9889 18.989C12.9814 18.989 13.907 19.6171 14.5428 20.7273L14.6654 20.9403C14.7992 21.1759 15.0223 21.3441 15.2899 21.4114C15.5576 21.4786 15.8252 21.445 16.0483 21.3105L17.9777 20.189C18.2676 20.0208 18.4907 19.7404 18.58 19.404C18.6691 19.0675 18.6245 18.7199 18.4572 18.4283C17.8216 17.3293 17.7434 16.1967 18.2342 15.3331C18.7249 14.4696 19.7398 13.9762 21.0112 13.9762C21.7249 13.9762 22.2937 13.4042 22.2937 12.6865V10.7128C22.2937 10.0063 21.7249 9.42313 21.0112 9.42313C19.7398 9.42313 18.7249 8.92969 18.2342 8.06618C17.7434 7.20266 17.8216 6.07 18.4572 4.97099C18.6245 4.67941 18.6691 4.33176 18.58 3.99533C18.4907 3.6589 18.2788 3.38975 17.9888 3.21032L16.0595 2.10009C15.58 1.80851 14.9442 1.97673 14.6543 2.47017L14.5316 2.68324C13.8959 3.79347 12.9702 4.42148 11.9777 4.42148C10.9851 4.42148 10.0595 3.79347 9.42379 2.68324L9.30112 2.45895C9.02231 1.98794 8.39777 1.81972 7.91821 2.10009L5.98885 3.22153C5.69888 3.38975 5.47584 3.67011 5.38662 4.00655C5.2974 4.34298 5.342 4.69063 5.5093 4.9822C6.14498 6.08122 6.22304 7.21387 5.73234 8.07739C5.24164 8.9409 4.22676 9.43434 2.9554 9.43434C2.24164 9.43434 1.67286 10.0063 1.67286 10.724V12.6977C1.67286 13.4042 2.24164 13.9874 2.9554 13.9874C4.22676 13.9874 5.24164 14.4809 5.73234 15.3443C6.22304 16.2079 6.14498 17.3405 5.5093 18.4395C5.342 18.7312 5.2974 19.0787 5.38662 19.4152C5.47584 19.7516 5.68774 20.0208 5.97769 20.2002L7.90706 21.3105C8.14127 21.4562 8.42008 21.4899 8.67658 21.4226C8.94424 21.3553 9.16729 21.1759 9.31226 20.9403L9.43494 20.7273C10.0706 19.6283 10.9963 18.989 11.9889 18.989Z" fill="#24221E"/>
<path d="M11.9888 15.9162C9.68025 15.9162 7.80664 14.0322 7.80664 11.7108C7.80664 9.38947 9.68025 7.50543 11.9888 7.50543C14.2974 7.50543 16.1709 9.38947 16.1709 11.7108C16.1709 14.0322 14.2974 15.9162 11.9888 15.9162ZM11.9888 9.1876C10.6059 9.1876 9.47951 10.3203 9.47951 11.7108C9.47951 13.1015 10.6059 14.234 11.9888 14.234C13.3717 14.234 14.4981 13.1015 14.4981 11.7108C14.4981 10.3203 13.3717 9.1876 11.9888 9.1876Z" fill="#24221E"/>
</g>
</g>
<defs>
<clipPath id="clip0_4001_2511">
<rect width="24" height="24" fill="white"/>
</clipPath>
</defs>
</svg>
