<svg width="124" height="120" viewBox="0 0 124 120" fill="none" xmlns="http://www.w3.org/2000/svg">
<circle cx="60" cy="60" r="60" fill="#E3AC1E"/>
<circle cx="64" cy="60" r="60" fill="url(#paint0_linear_2047_2999)"/>
<path d="M84.1103 41.6536C83.6004 41.2967 83.0252 41.0438 82.4176 40.9093C81.81 40.7748 81.1818 40.7614 80.569 40.8698C79.9563 40.9782 79.3708 41.2064 78.8462 41.5412C78.3215 41.8761 77.868 42.3111 77.5114 42.8213L59.4968 68.5608L47.6851 60.4886C46.7378 59.8403 45.5718 59.595 44.4437 59.8068C43.3156 60.0185 42.3178 60.6699 41.6698 61.6177C41.0218 62.5655 40.7766 63.732 40.9883 64.8607C41.2 65.9893 41.8511 66.9876 42.7984 67.6359L58.6314 78.4555C59.119 78.7885 59.6701 79.0173 60.2501 79.1275C60.8302 79.2377 61.4267 79.2269 62.0024 79.0959C62.6165 78.9885 63.2033 78.7609 63.7293 78.4262C64.2553 78.0914 64.71 77.6561 65.0675 77.1452L85.2781 48.2592C85.9984 47.2278 86.2799 45.9524 86.0608 44.7134C85.8417 43.4744 85.1399 42.373 84.1095 41.6515" fill="white"/>
<defs>
<linearGradient id="paint0_linear_2047_2999" x1="64" y1="0" x2="64" y2="120" gradientUnits="userSpaceOnUse">
<stop stop-color="#9B4457"/>
<stop offset="1" stop-color="#9B7209"/>
</linearGradient>
</defs>
</svg>
