<svg width="24" height="24" viewBox="0 0 24 24" fill="none" xmlns="http://www.w3.org/2000/svg">
<g clip-path="url(#clip0_4001_2518)">
<mask id="mask0_4001_2518" style="mask-type:luminance" maskUnits="userSpaceOnUse" x="0" y="0" width="24" height="24">
<path d="M24 0H0V24H24V0Z" fill="white"/>
</mask>
<g mask="url(#mask0_4001_2518)">
<path d="M18.7571 24H5.23832C3.06328 24 1.40131 23.1614 0.553603 21.6496C-0.282953 20.1378 -0.171412 18.189 0.888226 16.1693L7.6476 3.29527C8.76301 1.16929 10.3023 0 11.9977 0C13.6931 0 15.2323 1.16929 16.3478 3.29527L23.1072 16.1812C24.1668 18.2008 24.2894 20.1378 23.4418 21.6614C22.5941 23.1614 20.9321 24 18.7571 24ZM11.9977 1.77166C10.9492 1.77166 9.92304 2.62205 9.10879 4.15748L2.36057 17.0434C1.60208 18.4842 1.4794 19.8071 2.00364 20.7637C2.52787 21.7205 3.6879 22.2402 5.24947 22.2402H18.7682C20.3298 22.2402 21.4787 21.7205 22.0141 20.7637C22.5494 19.8071 22.4156 18.4961 21.6571 17.0434L14.8866 4.15748C14.0724 2.62205 13.0462 1.77166 11.9977 1.77166Z" fill="#24221E"/>
<path d="M11.9977 15.248C11.5404 15.248 11.1611 14.8465 11.1611 14.3622V8.45669C11.1611 7.97244 11.5404 7.57086 11.9977 7.57086C12.455 7.57086 12.8342 7.97244 12.8342 8.45669V14.3622C12.8342 14.8465 12.455 15.248 11.9977 15.248Z" fill="#24221E"/>
<path d="M11.9977 19.0867C11.9308 19.0867 11.8527 19.075 11.7747 19.0631C11.7077 19.0513 11.6408 19.0277 11.5739 18.9923C11.507 18.9686 11.44 18.9331 11.3731 18.886C11.3173 18.8387 11.2616 18.7914 11.2058 18.7442C11.005 18.5198 10.8823 18.2126 10.8823 17.9056C10.8823 17.5985 11.005 17.2914 11.2058 17.067C11.2616 17.0198 11.3173 16.9726 11.3731 16.9253C11.44 16.878 11.507 16.8426 11.5739 16.819C11.6408 16.7836 11.7077 16.7599 11.7747 16.7482C11.9197 16.7126 12.0758 16.7126 12.2096 16.7482C12.2878 16.7599 12.3547 16.7836 12.4216 16.819C12.4885 16.8426 12.5555 16.878 12.6223 16.9253C12.6781 16.9726 12.7339 17.0198 12.7897 17.067C12.9905 17.2914 13.1131 17.5985 13.1131 17.9056C13.1131 18.2126 12.9905 18.5198 12.7897 18.7442C12.7339 18.7914 12.6781 18.8387 12.6223 18.886C12.5555 18.9331 12.4885 18.9686 12.4216 18.9923C12.3547 19.0277 12.2878 19.0513 12.2096 19.0631C12.1427 19.075 12.0647 19.0867 11.9977 19.0867Z" fill="#24221E"/>
</g>
</g>
<defs>
<clipPath id="clip0_4001_2518">
<rect width="24" height="24" fill="white"/>
</clipPath>
</defs>
</svg>
