<svg width="24" height="24" viewBox="0 0 24 24" fill="none" xmlns="http://www.w3.org/2000/svg">
<path d="M10.5077 6.00006C10.5077 5.73949 10.413 5.486 10.2379 5.2779C10.0628 5.06979 9.81688 4.91839 9.53722 4.84655C9.25756 4.77472 8.95939 4.78636 8.68778 4.87972C8.41616 4.97309 8.18585 5.1431 8.03166 5.36406L4.4315 8.58846C4.30353 8.69915 4.20146 8.83157 4.13124 8.97797C4.06102 9.12438 4.02406 9.28184 4.02251 9.44117C4.02097 9.60047 4.05487 9.75849 4.12224 9.90604C4.1896 10.0535 4.28909 10.1874 4.41489 10.3001C4.54069 10.4128 4.69029 10.5019 4.85495 10.5622C5.01961 10.6226 5.19604 10.6529 5.37395 10.6516C5.55185 10.6501 5.72767 10.6171 5.89113 10.5541C6.0546 10.4913 6.20244 10.3999 6.32604 10.2852L7.828 8.94126V18.0001C7.828 18.3183 7.96917 18.6235 8.22044 18.8486C8.4717 19.0737 8.8125 19.2001 9.16785 19.2001C9.5232 19.2001 9.86399 19.0737 10.1152 18.8486C10.3665 18.6235 10.5077 18.3183 10.5077 18.0001V6.06006V6.00006Z" fill="#24221E"/>
<path d="M13.5078 18.0001C13.5078 18.2606 13.6024 18.5141 13.7775 18.7222C13.9526 18.9303 14.1986 19.0817 14.4782 19.1535C14.7579 19.2254 15.056 19.2137 15.3277 19.1204C15.5993 19.027 15.8296 18.857 15.9838 18.6361L19.5853 15.4116C19.7097 15.3002 19.8083 15.1678 19.8756 15.0222C19.9429 14.8765 19.9775 14.7204 19.9775 14.5628C19.9774 14.4052 19.9427 14.2492 19.8753 14.1035C19.8079 13.9579 19.7091 13.8256 19.5846 13.7143C19.4601 13.6028 19.3124 13.5145 19.1497 13.4542C18.9871 13.3939 18.8129 13.3629 18.6369 13.363C18.4609 13.3631 18.2866 13.3942 18.1241 13.4545C17.9615 13.5149 17.8138 13.6034 17.6894 13.7148L16.1888 15.0588V6.00005C16.1888 5.68179 16.0476 5.37657 15.7963 5.15152C15.5451 4.92648 15.2043 4.80005 14.8489 4.80005C14.4936 4.80005 14.1528 4.92648 13.9015 5.15152C13.6503 5.37657 13.5091 5.68179 13.5091 6.00005V17.9401V18.0001H13.5078Z" fill="#24221E"/>
</svg>
