<svg width="24" height="24" viewBox="0 0 24 24" fill="none" xmlns="http://www.w3.org/2000/svg">
<g clip-path="url(#clip0_4001_2526)">
<mask id="mask0_4001_2526" style="mask-type:luminance" maskUnits="userSpaceOnUse" x="0" y="0" width="24" height="24">
<path d="M24 0H0V24H24V0Z" fill="white"/>
</mask>
<g mask="url(#mask0_4001_2526)">
<path d="M21.1098 5.35986L21.64 5.89011L23.14 4.39011C23.2103 4.31979 23.2498 4.22442 23.2498 4.12499C23.2498 4.02555 23.2103 3.93019 23.14 3.85986L21.64 2.35986L21.1098 2.89011L21.9697 3.74999H17.6249V4.49999H21.9697L21.1098 5.35986ZM18.8598 8.89011L19.39 8.35986L18.5302 7.49999H22.8749V6.74999H18.5302L19.39 5.89011L18.8598 5.35986L17.3598 6.85986C17.2895 6.93019 17.25 7.02555 17.25 7.12499C17.25 7.22442 17.2895 7.31979 17.3598 7.39011L18.8598 8.89011Z" fill="#24221E"/>
<path d="M22.8113 11.6888C22.5454 11.4221 22.1886 11.2657 21.8123 11.2511C21.4361 11.2365 21.0682 11.3647 20.7825 11.61C20.6513 11.3863 20.464 11.2008 20.239 11.0719C20.0141 10.943 19.7593 10.8751 19.5 10.875C19.3323 10.8726 19.1656 10.9019 19.0087 10.9612C18.8349 11.0226 18.6745 11.1169 18.5363 11.2387C18.4043 11.0147 18.2163 10.8288 17.9908 10.6993C17.7653 10.5697 17.51 10.5011 17.25 10.5C16.9861 10.5008 16.7272 10.572 16.5 10.7062V4.5C16.5 4.10218 16.342 3.72064 16.0607 3.43934C15.7794 3.15804 15.3978 3 15 3C14.7361 3.00076 14.4772 3.07197 14.25 3.20625V1.875C14.2491 1.57691 14.1303 1.29127 13.9195 1.08049C13.7087 0.869703 13.4231 0.75089 13.125 0.75H4.125C3.82691 0.75089 3.54127 0.869703 3.33049 1.08049C3.1197 1.29127 3.00089 1.57691 3 1.875V9.375H2.625C2.12772 9.375 1.65081 9.57254 1.29917 9.92417C0.947544 10.2758 0.75 10.7527 0.75 11.25V12.7838L1.5 20.6437V22.875C1.5 22.9745 1.53951 23.0698 1.60984 23.1402C1.68016 23.2105 1.77554 23.25 1.875 23.25H10.125C10.2245 23.25 10.3198 23.2105 10.3902 23.1402C10.4605 23.0698 10.5 22.9745 10.5 22.875V20.745L11.895 18.75H12.7012L13.125 19.9387V22.875C13.125 22.9745 13.1645 23.0698 13.2348 23.1402C13.3052 23.2105 13.4005 23.25 13.5 23.25H21C21.0995 23.25 21.1948 23.2105 21.2652 23.1402C21.3355 23.0698 21.375 22.9745 21.375 22.875V19.9387L23.0963 15.1163C23.1975 14.8335 23.2495 14.5354 23.25 14.235V12.75C23.2502 12.553 23.2115 12.3578 23.1362 12.1757C23.0609 11.9936 22.9505 11.8282 22.8113 11.6888ZM9.75 22.5H2.25V21H9.75V22.5ZM9.93 20.25H2.21625L1.5 12.75V11.25C1.50089 10.9519 1.6197 10.6663 1.83049 10.4555C2.04127 10.2447 2.32691 10.1259 2.625 10.125H5.25C5.54837 10.125 5.83452 10.2435 6.0455 10.4545C6.25647 10.6655 6.375 10.9516 6.375 11.25C6.375 11.5484 6.25647 11.8345 6.0455 12.0455C5.83452 12.2565 5.54837 12.375 5.25 12.375H3.375C3.27554 12.375 3.18016 12.4145 3.10984 12.4848C3.03951 12.5552 3 12.6505 3 12.75V17.625C3.00089 17.9231 3.1197 18.2087 3.33049 18.4195C3.54127 18.6303 3.82691 18.7491 4.125 18.75H10.98L9.93 20.25ZM4.125 18C4.02554 18 3.93016 17.9605 3.85984 17.8902C3.78951 17.8198 3.75 17.7245 3.75 17.625V16.5H10.5V15.75H3.75V13.125H5.25C5.74728 13.125 6.22419 12.9275 6.57583 12.5758C6.92746 12.2242 7.125 11.7473 7.125 11.25C7.125 10.7527 6.92746 10.2758 6.57583 9.92417C6.22419 9.57254 5.74728 9.375 5.25 9.375H3.75V1.875C3.75 1.77554 3.78951 1.68016 3.85984 1.60984C3.93016 1.53951 4.02554 1.5 4.125 1.5H13.125C13.2245 1.5 13.3198 1.53951 13.3902 1.60984C13.4605 1.68016 13.5 1.77554 13.5 1.875V9.585C13.2723 9.44831 13.0118 9.37575 12.7463 9.375C12.3497 9.37599 11.9697 9.53395 11.6893 9.81434C11.4089 10.0947 11.251 10.4747 11.25 10.8712V14.235C11.2508 14.5366 11.3027 14.8358 11.4037 15.12L12.4313 18H4.125ZM15 22.5H13.875V20.25H15V22.5ZM16.875 22.5H15.75V20.25H16.875V22.5ZM18.75 22.5H17.625V20.25H18.75V22.5ZM20.625 22.5H19.5V20.25H20.625V22.5ZM22.5 14.235C22.4995 14.4496 22.4628 14.6626 22.3912 14.865L20.7375 19.5H13.7625L12.1088 14.8688C12.0375 14.665 12.0008 14.4508 12 14.235V10.8712C12.0002 10.7728 12.0199 10.6753 12.0578 10.5844C12.0957 10.4935 12.1512 10.4109 12.221 10.3415C12.2908 10.272 12.3736 10.217 12.4647 10.1795C12.5558 10.142 12.6534 10.1229 12.7519 10.1231C12.8504 10.1234 12.9478 10.143 13.0387 10.1809C13.1296 10.2189 13.2122 10.2743 13.2817 10.3441C13.3511 10.4139 13.4062 10.4968 13.4436 10.5878C13.4811 10.6789 13.5002 10.7765 13.5 10.875V13.875H14.25V4.5C14.2515 4.30154 14.331 4.11163 14.4713 3.9713C14.6116 3.83096 14.8015 3.75147 15 3.75C15.1987 3.75059 15.3892 3.8298 15.5297 3.97033C15.6702 4.11085 15.7494 4.30127 15.75 4.5V13.875H16.5V12C16.5015 11.8015 16.581 11.6116 16.7213 11.4713C16.8616 11.331 17.0515 11.2515 17.25 11.25C17.4487 11.2506 17.6392 11.3298 17.7797 11.4703C17.9202 11.6108 17.9994 11.8013 18 12V13.875H18.75V12.375C18.7501 12.2766 18.7697 12.1792 18.8076 12.0885C18.8456 11.9977 18.9012 11.9154 18.9713 11.8463C19.0506 11.7626 19.15 11.7006 19.26 11.6663C19.337 11.6386 19.4182 11.6246 19.5 11.625C19.6987 11.6256 19.8892 11.7048 20.0297 11.8453C20.1702 11.9858 20.2494 12.1763 20.25 12.375V14.25H21V12.75C21.0006 12.5513 21.0798 12.3608 21.2203 12.2203C21.3608 12.0798 21.5513 12.0006 21.75 12C21.9485 12.0015 22.1384 12.081 22.2787 12.2213C22.419 12.3616 22.4985 12.5515 22.5 12.75V14.235Z" fill="#24221E"/>
<path d="M8.625 2.25C7.88332 2.25 7.1583 2.46993 6.54161 2.88199C5.92493 3.29404 5.44428 3.87971 5.16045 4.56494C4.87662 5.25016 4.80236 6.00416 4.94706 6.73159C5.09175 7.45902 5.4489 8.1272 5.97335 8.65165C6.4978 9.1761 7.16598 9.53325 7.89341 9.67795C8.62084 9.82264 9.37484 9.74838 10.0601 9.46455C10.7453 9.18072 11.331 8.70007 11.743 8.08339C12.1551 7.4667 12.375 6.74168 12.375 6C12.3734 5.00593 11.9778 4.05302 11.2749 3.3501C10.572 2.64718 9.61908 2.25159 8.625 2.25ZM8.625 9C8.03166 9 7.45164 8.82405 6.95829 8.49441C6.46494 8.16476 6.08043 7.69623 5.85336 7.14805C5.6263 6.59987 5.56689 5.99667 5.68265 5.41473C5.7984 4.83279 6.08412 4.29824 6.50368 3.87868C6.92324 3.45912 7.45779 3.1734 8.03973 3.05764C8.62167 2.94189 9.22487 3.0013 9.77305 3.22836C10.3212 3.45542 10.7898 3.83994 11.1194 4.33329C11.4491 4.82664 11.625 5.40666 11.625 6C11.6239 6.79531 11.3075 7.55774 10.7451 8.12012C10.1827 8.68249 9.42032 8.99891 8.625 9Z" fill="#24221E"/>
<path d="M9.75 6.75C9.74881 6.98197 9.67617 7.20795 9.54197 7.39717C9.40777 7.58639 9.21853 7.72966 9 7.8075V8.25H8.25V7.8075C8.03147 7.72966 7.84223 7.58639 7.70803 7.39717C7.57383 7.20795 7.50119 6.98197 7.5 6.75H8.25C8.25 6.82417 8.27199 6.89667 8.3132 6.95834C8.3544 7.02001 8.41297 7.06807 8.48149 7.09645C8.55002 7.12484 8.62542 7.13226 8.69816 7.11779C8.7709 7.10333 8.83772 7.06761 8.89017 7.01517C8.94261 6.96272 8.97833 6.8959 8.99279 6.82316C9.00726 6.75042 8.99984 6.67502 8.97145 6.60649C8.94307 6.53797 8.89501 6.4794 8.83334 6.4382C8.77167 6.39699 8.69917 6.375 8.625 6.375C8.36117 6.37295 8.10646 6.27824 7.90538 6.10743C7.7043 5.93662 7.56965 5.70057 7.52498 5.44054C7.4803 5.18052 7.52843 4.91306 7.66096 4.68492C7.79349 4.45679 8.00199 4.28249 8.25 4.1925V3.75H9V4.1925C9.21853 4.27034 9.40777 4.41361 9.54197 4.60283C9.67617 4.79205 9.74881 5.01803 9.75 5.25H9C9 5.17583 8.97801 5.10333 8.9368 5.04166C8.8956 4.97999 8.83703 4.93193 8.76851 4.90355C8.69998 4.87516 8.62458 4.86774 8.55184 4.88221C8.4791 4.89667 8.41228 4.93239 8.35983 4.98484C8.30739 5.03728 8.27167 5.1041 8.25721 5.17684C8.24274 5.24958 8.25016 5.32498 8.27855 5.39351C8.30693 5.46203 8.35499 5.5206 8.41666 5.5618C8.47833 5.60301 8.55083 5.625 8.625 5.625C8.92309 5.62589 9.20873 5.7447 9.41951 5.95549C9.6303 6.16627 9.74911 6.45191 9.75 6.75Z" fill="#24221E"/>
</g>
</g>
<defs>
<clipPath id="clip0_4001_2526">
<rect width="24" height="24" fill="white"/>
</clipPath>
</defs>
</svg>
