<svg width="24" height="24" viewBox="0 0 24 24" fill="none" xmlns="http://www.w3.org/2000/svg">
<path d="M11.6733 11.8752C11.6445 11.8752 11.6253 11.8752 11.5965 11.8752C11.5485 11.8656 11.4813 11.8656 11.4237 11.8752C8.63975 11.7888 6.53735 9.60001 6.53735 6.90244C6.53735 4.15684 8.77415 1.92004 11.5197 1.92004C14.2653 1.92004 16.5021 4.15684 16.5021 6.90244C16.4925 9.60001 14.3805 11.7888 11.7021 11.8752C11.6925 11.8752 11.6829 11.8752 11.6733 11.8752ZM11.5197 3.36004C9.57095 3.36004 7.97735 4.95364 7.97735 6.90244C7.97735 8.82244 9.47495 10.368 11.3853 10.4352C11.4333 10.4256 11.5677 10.4256 11.6925 10.4352C13.5741 10.3488 15.0525 8.80324 15.0621 6.90244C15.0621 4.95364 13.4685 3.36004 11.5197 3.36004Z" fill="#24221E"/>
<path d="M11.6827 22.368C9.80112 22.368 7.90993 21.888 6.47953 20.928C5.14513 20.0448 4.41553 18.8352 4.41553 17.52C4.41553 16.2048 5.14513 14.9856 6.47953 14.0928C9.35953 12.1824 14.0251 12.1824 16.8859 14.0928C18.2107 14.976 18.9499 16.1856 18.9499 17.5008C18.9499 18.816 18.2203 20.0352 16.8859 20.928C15.4459 21.888 13.5643 22.368 11.6827 22.368ZM7.27633 15.3024C6.35473 15.9168 5.85553 16.704 5.85553 17.5296C5.85553 18.3456 6.36433 19.1328 7.27633 19.7376C9.66672 21.3408 13.6987 21.3408 16.0891 19.7376C17.0107 19.1232 17.5099 18.336 17.5099 17.5104C17.5099 16.6944 17.0011 15.9072 16.0891 15.3024C13.6987 13.7088 9.66672 13.7088 7.27633 15.3024Z" fill="#24221E"/>
</svg>
